{
.appVersion = "3139";
.formatVersion = 3;
DisplayStrings = (
"Che/f.short ’s o’clock l’ève
\"'„“”‘I’‚/quotedblleft.case/quotedblright.case/quoteleft.case ,./quoteright.case   don’t dqaon't
„“”‘’‚/quotedblleft.case/quotedblright.case/quoteleft.case/quoteright.case ,  [/f.short ]",
"АБВГЃҐДЕЀЁЖЗИЙЍҊКЌЛМНОПРСТУЎФХЧЦШЩЏЬЪЫЉЊЅЄЭІЇЈЋЮЯЂѢѪѲѴҒҔҖҘҚҜҞҠҢҤԤҨҪҬҮҰҲҴҶҸҺԦҼҾӀӁӃӅӇӉӋӍӐӒӔӖӘӚӜӞӠӢӤӦӨӪӬӮӰӲӴӶӸӺӼӾԐԒԚԜҌҎԨԮ/De-cy.loclBGR/Ii-cy.loclBGR/Iishort-cy.loclBGR/Iigrave-cy.loclBGR/El-cy.loclBGR/Ef-cy.loclBGR/Imacron-cy.loclBGR/Idieresis-cy.loclBGR/Ghestroke-cy.loclBSH/Zedescender-cy.loclBSH/Esdescender-cy.loclBSH/Esdescender-cy.loclCHU/A-cy.ss02/De-cy.ss02/Ii-cy.ss02/Iishort-cy.ss02/Iishorttail-cy.ss02/Iigrave-cy.ss02/El-cy.ss02/U-cy.ss02/Ushort-cy.ss02/Lje-cy.ss02/Eltail-cy.ss02/Abreve-cy.ss02/Adieresis-cy.ss02/Imacron-cy.ss02/Idieresis-cy.ss02/Umacron-cy.ss02/Udieresis-cy.ss02/Uhungarumlaut-cy.ss02/De-cy.ss10/Ii-cy.ss10/Iishort-cy.ss10/Iishorttail-cy.ss10/El-cy.ss10/Ef-cy.ss10/Eltail-cy.ss10/Imacron-cy.ss10/Idieresis-cy.ss10/Iegrave-cy.ss13/Iigrave-cy.ss13/Iigrave-cy.ss02.ss13 Ҧ/Iishorttail-cy.loclBGR/Eltail-cy.loclBGR абвгѓґдеѐёжзийѝҋкќлмнопрстуўфхчцшщџьъыљњѕєэіїјћюяђѣѫѳѵғҕҗҙқҝҟҡңҥԥҩҫҭүұҳҵҷҹһԧҽҿӏӂӄӆӈӊӌӎӑӓӕӗәӛӝӟӡӣӥӧөӫӭӯӱӳӵӷӹӻӽӿԑԓԛԝҍҏ/de-cy.Ge ԩԯ/ve-cy.loclBGR/de-cy.loclBGR/zhe-cy.loclBGR/ze-cy.loclBGR/ka-cy.loclBGR/yu-cy.loclBGR/zedescender-cy.loclBSH/esdescender-cy.loclBSH/esdescender-cy.loclCHU/gje-cy.loclMKD/be-cy.loclSRB/ge-cy.loclSRB/de-cy.loclSRB/pe-cy.loclSRB/te-cy.loclSRB/sha-cy.loclSRB/be-cy.ss09/ge-cy.ss09/de-cy.ss09/pe-cy.ss09/te-cy.ss09/sha-cy.ss09/ve-cy.ss10/de-cy.ss10/zhe-cy.ss10/ze-cy.ss10/ka-cy.ss10/yu-cy.ss10 ҧ/be-cy.loclMKD/ge-cy.loclMKD/de-cy.loclMKD/pe-cy.loclMKD/te-cy.loclMKD/sha-cy.loclMKD",

glyphs = (
{
glyphname = A;
kernLeft = A;
kernRight = A;
layers = (
{
anchors = (
{
name = bottom;
pos = (271,0);
},
{
name = ogonek;
pos = (415,12);
},
{
name = top;
pos = (388,625);
}
);
layerId = "2373B5BC-5F65-41C1-A640-5B37284EFBFD";
shapes = (
{
closed = 1;
nodes = (
(0,0,o),
(19,4,o),
(58,4,cs),
(92,4,o),
(131,0,o),
(157,0,cs),
(163,0,o),
(163,12,o),
(158,12,cs),
(98,12,o),
(70,26,o),
(129,133,cs),
(378,587,l),
(361,570,l),
(434,84,ls),
(442,28,o),
(432,12,o),
(367,12,cs),
(363,12,o),
(363,0,o),
(367,0,cs),
(399,0,o),
(425,4,o),
(462,4,cs),
(499,4,o),
(530,0,o),
(561,0,cs),
(566,0,o),
(566,12,o),
(561,12,cs),
(499,12,o),
(491,29,o),
(483,84,cs),
(400,633,ls),
(399,637,o),
(385,640,o),
(382,635,cs),
(94,120,ls),
(44,33,o),
(0,12,o),
(-34,12,cs),
(-39,12,o),
(-39,0,o),
(-34,0,cs)
);
},
{
closed = 1;
nodes = (
(430,339,l),
(428,358,l),
(241,358,l),
(226,339,l)
);
}
);
width = 599;
},
{
anchors = (
{
name = bottom;
pos = (271,0);
},
{
name = ogonek;
pos = (415,12);
},
{
name = top;
pos = (386,625);
}
);
layerId = "A1717557-2B81-457C-987E-D55DA76CA63F";
shapes = (
{
closed = 1;
nodes = (
(0,0,o),
(19,4,o),
(58,4,cs),
(101,4,o),
(149,0,o),
(180,0,cs),
(186,0,o),
(186,12,o),
(181,12,cs),
(99,12,o),
(84,46,o),
(130,129,cs),
(379,582,l),
(323,505,l),
(408,84,ls),
(420,28,o),
(406,12,o),
(356,12,cs),
(351,12,o),
(351,0,o),
(356,0,cs),
(391,0,o),
(420,4,o),
(462,4,cs),
(504,4,o),
(538,0,o),
(573,0,cs),
(578,0,o),
(578,12,o),
(573,12,cs),
(522,12,o),
(519,29,o),
(509,84,cs),
(400,633,ls),
(399,637,o),
(385,639,o),
(382,634,cs),
(103,136,ls),
(56,51,o),
(0,12,o),
(-34,12,cs),
(-39,12,o),
(-39,0,o),
(-34,0,cs)
);
},
{
closed = 1;
nodes = (
(407,295,l),
(405,323,l),
(218,323,l),
(202,295,l)
);
}
);
width = 605;
}
);
unicode = 65;
},
{
glyphname = Aogonek;
kernLeft = A;
kernRight = A;
layers = (
{
anchors = (
{
name = bottom;
pos = (271,0);
},
{
name = ogonek;
pos = (415,12);
},
{
name = top;
pos = (389,625);
}
);
layerId = "2373B5BC-5F65-41C1-A640-5B37284EFBFD";
shapes = (
{
closed = 1;
nodes = (
(418,-275,o),
(442,-265,o),
(473,-242,cs),
(476,-239,o),
(471,-232,o),
(468,-234,cs),
(456,-241,o),
(443,-248,o),
(416,-248,cs),
(345,-248,o),
(317,-194,o),
(329,-131,cs),
(343,-54,o),
(408,1,o),
(499,1,cs),
(516,1,o),
(527,0,o),
(561,0,cs),
(566,0,o),
(566,12,o),
(561,12,cs),
(505,12,o),
(491,26,o),
(481,96,cs),
(400,633,ls),
(399,637,o),
(385,640,o),
(382,635,cs),
(99,120,ls),
(50,30,o),
(0,12,o),
(-34,12,cs),
(-39,12,o),
(-39,0,o),
(-34,0,cs),
(0,0,o),
(19,4,o),
(58,4,cs),
(92,4,o),
(131,0,o),
(157,0,cs),
(163,0,o),
(163,12,o),
(158,12,cs),
(98,12,o),
(76,25,o),
(135,133,cs),
(378,587,l),
(361,570,l),
(430,84,ls),
(442,1,o),
(311,-37,o),
(290,-165,cs),
(278,-234,o),
(310,-275,o),
(384,-275,cs)
);
},
{
closed = 1;
nodes = (
(430,339,l),
(428,358,l),
(253,358,l),
(237,339,l)
);
}
);
width = 599;
},
{
anchors = (
{
name = bottom;
pos = (271,0);
},
{
name = ogonek;
pos = (415,12);
},
{
name = top;
pos = (387,625);
}
);
layerId = "A1717557-2B81-457C-987E-D55DA76CA63F";
shapes = (
{
closed = 1;
nodes = (
(414,-275,o),
(446,-258,o),
(484,-219,cs),
(488,-215,o),
(483,-208,o),
(480,-211,cs),
(468,-221,o),
(458,-229,o),
(434,-229,cs),
(380,-229,o),
(357,-191,o),
(364,-131,cs),
(372,-58,o),
(423,1,o),
(478,1,cs),
(497,1,o),
(539,0,o),
(573,0,cs),
(578,0,o),
(578,12,o),
(573,12,cs),
(535,12,o),
(520,26,o),
(509,84,cs),
(400,633,ls),
(399,637,o),
(385,639,o),
(382,634,cs),
(103,136,ls),
(56,51,o),
(0,12,o),
(-34,12,cs),
(-39,12,o),
(-39,0,o),
(-34,0,cs),
(0,0,o),
(19,4,o),
(58,4,cs),
(101,4,o),
(149,0,o),
(180,0,cs),
(186,0,o),
(186,12,o),
(181,12,cs),
(99,12,o),
(84,46,o),
(130,129,cs),
(379,582,l),
(323,505,l),
(408,84,ls),
(433,-36,o),
(291,-69,o),
(278,-177,cs),
(270,-247,o),
(324,-275,o),
(375,-275,cs)
);
},
{
closed = 1;
nodes = (
(407,295,l),
(405,323,l),
(218,323,l),
(202,295,l)
);
}
);
width = 605;
}
);
metricRight = A;
unicode = 260;
},
{
glyphname = AE;
kernLeft = A;
layers = (
{
anchors = (
{
name = bottom;
pos = (351,0);
},
{
name = ogonek;
pos = (177,12);
},
{
name = top;
pos = (596,625);
}
);
layerId = "2373B5BC-5F65-41C1-A640-5B37284EFBFD";
shapes = (
{
closed = 1;
nodes = (
(-21,0,o),
(-2,4,o),
(40,4,cs),
(85,4,o),
(109,0,o),
(145,0,cs),
(150,0,o),
(151,12,o),
(145,12,cs),
(63,12,o),
(68,47,o),
(125,123,cs),
(490,602,l),
(465,613,l),
(396,81,ls),
(389,23,o),
(371,12,o),
(303,12,cs),
(297,12,o),
(297,0,o),
(303,0,cs),
(676,0,ls),
(687,0,o),
(690,4,o),
(692,15,cs),
(699,56,o),
(713,110,o),
(723,145,cs),
(725,149,o),
(713,151,o),
(712,147,cs),
(689,71,o),
(643,18,o),
(595,18,cs),
(511,18,ls),
(444,18,o),
(439,29,o),
(446,85,cs),
(503,543,ls),
(510,600,o),
(526,611,o),
(615,611,cs),
(658,611,ls),
(720,611,o),
(746,564,o),
(735,495,cs),
(733,491,o),
(745,490,o),
(746,494,cs),
(751,522,o),
(759,580,o),
(765,616,cs),
(766,622,o),
(765,625,o),
(758,625,cs),
(387,625,ls),
(381,625,o),
(381,613,o),
(387,613,cs),
(462,613,o),
(465,611,o),
(439,574,cs),
(104,132,ls),
(30,35,o),
(-6,12,o),
(-56,12,cs),
(-62,12,o),
(-62,0,o),
(-56,0,cs)
);
},
{
closed = 1;
nodes = (
(470,316,l),
(467,335,l),
(282,335,l),
(264,316,l)
);
},
{
closed = 1;
nodes = (
(671,268,o),
(675,295,o),
(680,325,cs),
(683,349,o),
(688,365,o),
(694,404,cs),
(695,408,o),
(683,411,o),
(683,406,cs),
(674,356,o),
(653,335,o),
(598,335,cs),
(467,335,l),
(464,316,ls),
(591,316,ls),
(649,316,o),
(664,297,o),
(654,237,cs),
(654,234,o),
(664,232,o),
(665,235,cs)
);
}
);
width = 768;
},
{
anchors = (
{
name = bottom;
pos = (352,0);
},
{
name = ogonek;
pos = (177,12);
},
{
name = top;
pos = (561,625);
}
);
layerId = "A1717557-2B81-457C-987E-D55DA76CA63F";
shapes = (
{
closed = 1;
nodes = (
(-21,0,o),
(-2,4,o),
(40,4,cs),
(85,4,o),
(156,0,o),
(192,0,cs),
(196,0,o),
(198,12,o),
(192,12,cs),
(119,12,o),
(94,62,o),
(136,123,cs),
(467,602,l),
(440,613,l),
(371,81,ls),
(364,23,o),
(352,12,o),
(303,12,cs),
(297,12,o),
(297,0,o),
(303,0,cs),
(676,0,l),
(687,0,o),
(690,4,o),
(692,15,cs),
(701,60,o),
(713,118,o),
(726,157,cs),
(727,160,o),
(717,163,o),
(715,159,cs),
(671,73,o),
(601,18,o),
(532,18,cs),
(519,18,ls),
(470,18,o),
(464,29,o),
(471,85,cs),
(529,543,ls),
(535,589,o),
(552,611,o),
(586,611,cs),
(604,611,ls),
(677,611,o),
(727,561,o),
(733,483,cs),
(733,480,o),
(744,477,o),
(745,482,cs),
(750,512,o),
(760,577,o),
(766,616,cs),
(767,622,o),
(766,625,o),
(760,625,cs),
(352,625,ls),
(346,625,o),
(346,613,o),
(352,613,cs),
(427,613,o),
(436,614,o),
(411,577,cs),
(110,135,ls),
(42,34,o),
(-6,12,o),
(-56,12,cs),
(-62,12,o),
(-62,0,o),
(-56,0,cs)
);
},
{
closed = 1;
nodes = (
(469,311,l),
(467,339,l),
(282,339,l),
(263,311,l)
);
},
{
closed = 1;
nodes = (
(682,261,o),
(684,291,o),
(691,325,cs),
(697,352,o),
(701,371,o),
(708,414,cs),
(709,420,o),
(697,421,o),
(696,415,cs),
(684,360,o),
(651,339,o),
(592,339,cs),
(432,339,l),
(428,311,ls),
(585,311,ls),
(642,311,o),
(673,281,o),
(663,223,cs),
(662,218,o),
(674,216,o),
(675,222,cs)
);
}
);
width = 772;
}
);
metricRight = "=E";
unicode = 198;
},
{
glyphname = B;
layers = (
{
anchors = (
{
name = bottom;
pos = (222,0);
},
{
name = top;
pos = (332,625);
}
);
layerId = "2373B5BC-5F65-41C1-A640-5B37284EFBFD";
shapes = (
{
closed = 1;
nodes = (
(384,367,o),
(444,416,o),
(461,491,cs),
(477,566,o),
(443,628,o),
(327,628,cs),
(302,628,o),
(253,622,o),
(221,622,cs),
(184,622,o),
(147,625,o),
(118,625,cs),
(113,625,o),
(113,613,o),
(118,613,cs),
(186,613,o),
(195,602,o),
(186,545,cs),
(104,82,ls),
(94,25,o),
(78,12,o),
(9,12,cs),
(5,12,o),
(5,0,o),
(9,0,cs),
(36,0,o),
(74,2,o),
(113,2,cs),
(154,2,o),
(206,-4,o),
(246,-4,cs),
(351,-4,o),
(444,80,o),
(462,181,cs),
(480,280,o),
(420,353,o),
(309,353,c),
(297,344,l)
);
},
{
closed = 1;
nodes = (
(406,615,o),
(425,556,o),
(413,491,cs),
(399,413,o),
(347,351,o),
(240,351,cs),
(237,351,o),
(211,351,o),
(172,354,c),
(198,346,l),
(232,540,ls),
(244,612,o),
(261,615,o),
(306,615,cs)
);
},
{
closed = 1;
nodes = (
(154,12,o),
(142,29,o),
(151,80,cs),
(196,338,l),
(171,327,l),
(204,332,o),
(235,333,o),
(270,332,cs),
(374,330,o),
(422,265,o),
(406,164,cs),
(392,77,o),
(337,12,o),
(234,12,cs)
);
},
{
closed = 0;
nodes = (
(172,354,l)
);
}
);
width = 511;
},
{
anchors = (
{
name = bottom;
pos = (247,0);
},
{
name = top;
pos = (357,625);
}
);
layerId = "A1717557-2B81-457C-987E-D55DA76CA63F";
shapes = (
{
closed = 1;
nodes = (
(436,358,o),
(506,421,o),
(522,494,cs),
(539,580,o),
(475,628,o),
(350,628,cs),
(311,628,o),
(273,622,o),
(237,622,cs),
(195,622,o),
(157,625,o),
(125,625,cs),
(123,625,o),
(120,613,o),
(125,613,cs),
(174,613,o),
(186,605,o),
(177,547,cs),
(95,84,ls),
(84,27,o),
(67,12,o),
(15,12,cs),
(13,12,o),
(12,0,o),
(15,0,cs),
(46,0,o),
(87,2,o),
(131,2,cs),
(170,2,o),
(226,-4,o),
(260,-4,cs),
(388,-4,o),
(499,73,o),
(520,175,cs),
(540,278,o),
(464,353,o),
(325,353,c),
(312,333,l)
);
},
{
closed = 1;
nodes = (
(407,608,o),
(442,571,o),
(425,496,cs),
(408,416,o),
(354,351,o),
(277,351,cs),
(275,351,o),
(248,351,o),
(209,353,c),
(241,346,l),
(275,538,ls),
(283,588,o),
(298,608,o),
(335,608,cs)
);
},
{
closed = 1;
nodes = (
(189,18,o),
(185,35,o),
(193,77,cs),
(237,330,l),
(206,318,l),
(240,324,o),
(271,324,o),
(285,324,cs),
(399,324,o),
(434,258,o),
(413,163,cs),
(394,71,o),
(343,18,o),
(244,18,cs)
);
},
{
closed = 0;
nodes = (
(209,353,l)
);
}
);
width = 561;
}
);
unicode = 66;
},
{
glyphname = C;
kernLeft = O;
kernRight = C;
layers = (
{
anchors = (
{
name = bottom;
pos = (305,0);
},
{
name = top;
pos = (418,625);
}
);
layerId = "2373B5BC-5F65-41C1-A640-5B37284EFBFD";
metricLeft = "=O";
shapes = (
{
closed = 1;
nodes = (
(367,-13,o),
(429,-5,o),
(492,15,cs),
(504,19,o),
(505,22,o),
(510,39,cs),
(540,145,ls),
(542,149,o),
(532,153,o),
(530,149,cs),
(476,47,o),
(399,-1,o),
(322,-1,cs),
(179,-1,o),
(95,154,o),
(129,346,cs),
(157,508,o),
(262,615,o),
(396,615,cs),
(492,615,o),
(559,578,o),
(566,470,cs),
(566,465,o),
(575,465,o),
(577,470,cs),
(585,575,ls),
(586,589,o),
(586,592,o),
(577,599,cs),
(546,623,o),
(487,636,o),
(433,636,cs),
(273,636,o),
(102,508,o),
(68,319,cs),
(40,165,o),
(92,-13,o),
(316,-13,cs)
);
}
);
width = 585;
},
{
anchors = (
{
name = bottom;
pos = (309,0);
},
{
name = top;
pos = (421,625);
}
);
layerId = "A1717557-2B81-457C-987E-D55DA76CA63F";
metricLeft = "=O";
shapes = (
{
closed = 1;
nodes = (
(372,-12,o),
(437,-4,o),
(504,19,cs),
(516,22,o),
(518,26,o),
(522,42,cs),
(549,157,ls),
(550,160,o),
(542,165,o),
(538,160,cs),
(461,56,o),
(393,8,o),
(326,8,cs),
(206,8,o),
(146,164,o),
(172,346,cs),
(195,511,o),
(280,609,o),
(395,609,cs),
(482,609,o),
(543,549,o),
(566,450,cs),
(567,446,o),
(577,446,o),
(577,450,cs),
(593,584,ls),
(594,598,o),
(594,602,o),
(585,607,cs),
(554,623,o),
(490,636,o),
(436,636,cs),
(269,636,o),
(97,519,o),
(60,313,cs),
(33,164,o),
(83,-12,o),
(320,-12,cs)
);
}
);
width = 588;
}
);
metricLeft = "=O";
unicode = 67;
},
{
glyphname = D;
kernRight = O;
layers = (
{
anchors = (
{
name = bottom;
pos = (260,0);
},
{
name = center;
pos = (326,312);
},
{
name = top;
pos = (325,625);
}
);
layerId = "2373B5BC-5F65-41C1-A640-5B37284EFBFD";
metricRight = "=O";
shapes = (
{
closed = 1;
nodes = (
(389,-4,o),
(549,123,o),
(584,323,cs),
(614,495,o),
(513,627,o),
(331,627,cs),
(302,627,o),
(255,622,o),
(219,622,cs),
(180,622,o),
(145,625,o),
(118,625,cs),
(115,625,o),
(115,613,o),
(118,613,cs),
(182,613,o),
(192,601,o),
(181,544,cs),
(99,81,ls),
(89,23,o),
(75,12,o),
(11,12,cs),
(7,12,o),
(7,0,o),
(11,0,cs),
(37,0,o),
(70,2,o),
(110,2,cs),
(149,2,o),
(200,-4,o),
(232,-4,cs)
);
},
{
closed = 1;
nodes = (
(150,9,o),
(138,35,o),
(149,92,cs),
(228,542,ls),
(240,605,o),
(267,614,o),
(337,614,cs),
(484,614,o),
(553,476,o),
(522,301,cs),
(488,112,o),
(367,9,o),
(226,9,cs)
);
}
);
width = 606;
},
{
anchors = (
{
name = bottom;
pos = (284,0);
},
{
name = center;
pos = (339,312);
},
{
name = top;
pos = (339,625);
}
);
layerId = "A1717557-2B81-457C-987E-D55DA76CA63F";
metricRight = "=O";
shapes = (
{
closed = 1;
nodes = (
(414,-4,o),
(586,125,o),
(621,323,cs),
(653,502,o),
(542,627,o),
(349,627,cs),
(312,627,o),
(270,622,o),
(233,622,cs),
(189,622,o),
(151,625,o),
(120,625,cs),
(117,625,o),
(117,613,o),
(120,613,cs),
(171,613,o),
(180,601,o),
(170,544,cs),
(88,81,ls),
(77,23,o),
(67,12,o),
(13,12,cs),
(9,12,o),
(9,0,o),
(13,0,cs),
(43,0,o),
(80,2,o),
(124,2,cs),
(165,2,o),
(219,-4,o),
(251,-4,cs)
);
},
{
closed = 1;
nodes = (
(189,16,o),
(179,40,o),
(188,92,cs),
(268,542,ls),
(276,587,o),
(289,607,o),
(340,607,cs),
(502,607,o),
(532,443,o),
(508,301,cs),
(476,119,o),
(373,16,o),
(247,16,cs)
);
}
);
width = 636;
}
);
metricLeft = H;
metricRight = O;
unicode = 68;
},
{
glyphname = Eth;
kernRight = O;
layers = (
{
layerId = "2373B5BC-5F65-41C1-A640-5B37284EFBFD";
shapes = (
{
closed = 1;
nodes = (
(315,302,ls),
(320,302,o),
(320,320,o),
(315,320,cs),
(53,320,ls),
(47,320,o),
(47,302,o),
(53,302,cs)
);
},
{
ref = D;
}
);
width = 606;
},
{
layerId = "A1717557-2B81-457C-987E-D55DA76CA63F";
shapes = (
{
closed = 1;
nodes = (
(331,297,ls),
(337,297,o),
(337,325,o),
(331,325,cs),
(69,325,ls),
(63,325,o),
(63,297,o),
(69,297,cs)
);
},
{
ref = D;
}
);
width = 636;
}
);
unicode = 208;
},
{
glyphname = E;
layers = (
{
anchors = (
{
name = bottom;
pos = (270,0);
},
{
name = ogonek;
pos = (404,12);
},
{
name = top;
pos = (331,625);
},
{
name = topleft;
pos = (99,625);
}
);
layerId = "2373B5BC-5F65-41C1-A640-5B37284EFBFD";
shapes = (
{
closed = 1;
nodes = (
(419,0,ls),
(429,0,o),
(433,4,o),
(435,15,cs),
(442,56,o),
(454,110,o),
(465,145,cs),
(467,149,o),
(455,151,o),
(454,147,cs),
(432,71,o),
(388,18,o),
(344,18,cs),
(213,18,ls),
(150,18,o),
(142,29,o),
(151,85,cs),
(232,543,ls),
(242,600,o),
(254,611,o),
(317,611,cs),
(416,611,ls),
(467,611,o),
(490,564,o),
(478,495,cs),
(477,491,o),
(489,489,o),
(490,494,cs),
(495,522,o),
(503,580,o),
(509,616,cs),
(510,622,o),
(509,625,o),
(503,625,cs),
(122,625,ls),
(118,625,o),
(118,613,o),
(122,613,cs),
(186,613,o),
(195,601,o),
(185,544,cs),
(103,81,ls),
(92,23,o),
(80,12,o),
(15,12,cs),
(12,12,o),
(12,0,o),
(15,0,cs)
);
},
{
closed = 1;
nodes = (
(411,268,o),
(414,295,o),
(419,325,cs),
(422,349,o),
(427,365,o),
(433,402,cs),
(434,408,o),
(422,409,o),
(421,404,cs),
(413,353,o),
(394,335,o),
(343,335,cs),
(174,335,l),
(171,316,ls),
(336,316,ls),
(391,316,o),
(404,295,o),
(393,235,cs),
(392,229,o),
(404,228,o),
(405,234,cs)
);
}
);
width = 510;
},
{
anchors = (
{
name = bottom;
pos = (298,0);
},
{
name = ogonek;
pos = (420,12);
},
{
name = top;
pos = (350,625);
},
{
name = topleft;
pos = (99,625);
}
);
layerId = "A1717557-2B81-457C-987E-D55DA76CA63F";
shapes = (
{
closed = 1;
nodes = (
(435,0,ls),
(446,0,o),
(449,4,o),
(451,15,cs),
(460,60,o),
(473,118,o),
(485,157,cs),
(487,160,o),
(476,163,o),
(474,159,cs),
(425,75,o),
(345,21,o),
(267,21,cs),
(241,21,ls),
(192,21,o),
(184,32,o),
(193,85,cs),
(274,543,ls),
(283,594,o),
(289,604,o),
(345,604,cs),
(363,604,ls),
(436,604,o),
(487,557,o),
(492,483,cs),
(492,480,o),
(503,477,o),
(504,482,cs),
(509,512,o),
(519,577,o),
(525,616,cs),
(526,622,o),
(525,625,o),
(519,625,cs),
(126,625,ls),
(123,625,o),
(123,613,o),
(126,613,cs),
(177,613,o),
(186,601,o),
(175,544,cs),
(94,81,ls),
(83,23,o),
(74,12,o),
(20,12,cs),
(16,12,o),
(16,0,o),
(20,0,cs)
);
},
{
closed = 1;
nodes = (
(441,261,o),
(444,291,o),
(450,325,cs),
(455,352,o),
(460,371,o),
(467,414,cs),
(468,420,o),
(456,421,o),
(455,415,cs),
(443,360,o),
(411,339,o),
(351,339,cs),
(191,339,l),
(187,311,ls),
(344,311,ls),
(401,311,o),
(432,281,o),
(422,223,cs),
(421,218,o),
(433,216,o),
(434,222,cs)
);
}
);
width = 531;
}
);
metricLeft = B;
unicode = 69;
},
{
glyphname = Schwa;
kernRight = O;
layers = (
{
anchors = (
{
name = bottom;
pos = (247,0);
},
{
name = top;
pos = (428,625);
}
);
layerId = "2373B5BC-5F65-41C1-A640-5B37284EFBFD";
shapes = (
{
closed = 1;
nodes = (
(373,-12,o),
(525,109,o),
(564,324,cs),
(589,470,o),
(556,636,o),
(346,636,cs),
(297,636,o),
(264,627,o),
(209,607,cs),
(189,600,o),
(181,611,o),
(189,635,cs),
(192,640,o),
(180,644,o),
(178,639,cs),
(116,490,ls),
(115,487,o),
(125,482,o),
(127,487,cs),
(175,582,o),
(274,625,o),
(345,625,cs),
(478,625,o),
(533,477,o),
(498,288,cs),
(467,115,o),
(382,7,o),
(254,7,cs),
(153,7,o),
(94,74,o),
(112,175,c),
(64,175,ls),
(57,175,o),
(54,173,o),
(51,163,cs),
(40,94,o),
(76,-12,o),
(219,-12,cs)
);
},
{
closed = 1;
nodes = (
(480,158,l),
(482,177,l),
(98,175,l),
(94,153,l)
);
}
);
width = 591;
},
{
anchors = (
{
name = bottom;
pos = (247,0);
},
{
name = top;
pos = (428,625);
}
);
layerId = "A1717557-2B81-457C-987E-D55DA76CA63F";
shapes = (
{
closed = 1;
nodes = (
(380,-12,o),
(537,109,o),
(575,324,cs),
(601,465,o),
(573,636,o),
(339,636,cs),
(296,636,o),
(257,630,o),
(198,619,cs),
(177,614,o),
(170,622,o),
(178,647,cs),
(180,651,o),
(168,656,o),
(166,650,cs),
(104,467,ls),
(103,463,o),
(112,458,o),
(116,463,cs),
(191,568,o),
(267,615,o),
(333,615,cs),
(447,615,o),
(480,482,o),
(447,288,cs),
(416,106,o),
(353,13,o),
(257,13,cs),
(174,13,o),
(139,83,o),
(152,175,c),
(53,175,ls),
(46,175,o),
(42,173,o),
(40,163,cs),
(27,91,o),
(68,-12,o),
(218,-12,cs)
);
},
{
closed = 1;
nodes = (
(480,157,l),
(482,177,l),
(98,175,l),
(94,152,l)
);
}
);
width = 591;
}
);
metricRight = O;
unicode = 399;
},
{
glyphname = F;
kernRight = F;
layers = (
{
anchors = (
{
name = bottom;
pos = (208,0);
},
{
name = top;
pos = (318,625);
}
);
layerId = "2373B5BC-5F65-41C1-A640-5B37284EFBFD";
shapes = (
{
closed = 1;
nodes = (
(39,0,o),
(74,2,o),
(110,2,cs),
(164,2,o),
(211,0,o),
(247,0,cs),
(250,0,o),
(250,12,o),
(247,12,cs),
(145,12,o),
(138,26,o),
(149,85,cs),
(229,543,ls),
(240,600,o),
(251,611,o),
(315,611,cs),
(414,611,ls),
(464,611,o),
(488,564,o),
(476,495,cs),
(475,491,o),
(487,489,o),
(488,494,cs),
(492,522,o),
(501,580,o),
(506,616,cs),
(508,622,o),
(506,625,o),
(501,625,cs),
(119,625,ls),
(116,625,o),
(116,613,o),
(119,613,cs),
(184,613,o),
(193,600,o),
(182,544,cs),
(101,81,ls),
(90,23,o),
(77,12,o),
(13,12,cs),
(9,12,o),
(9,0,o),
(13,0,c)
);
},
{
closed = 1;
nodes = (
(396,256,o),
(399,283,o),
(405,313,cs),
(409,337,o),
(413,353,o),
(419,391,cs),
(420,396,o),
(408,398,o),
(407,392,cs),
(399,342,o),
(380,323,o),
(329,323,cs),
(160,323,l),
(157,304,ls),
(322,304,ls),
(377,304,o),
(389,283,o),
(379,223,cs),
(378,218,o),
(389,216,o),
(391,222,cs)
);
}
);
width = 483;
},
{
anchors = (
{
name = bottom;
pos = (209,0);
},
{
name = top;
pos = (319,625);
}
);
layerId = "A1717557-2B81-457C-987E-D55DA76CA63F";
shapes = (
{
closed = 1;
nodes = (
(44,0,o),
(83,2,o),
(124,2,cs),
(201,2,o),
(248,0,o),
(273,0,cs),
(276,0,o),
(276,12,o),
(273,12,cs),
(194,12,o),
(179,25,o),
(189,85,cs),
(270,543,ls),
(280,594,o),
(285,604,o),
(342,604,cs),
(359,604,ls),
(433,604,o),
(483,557,o),
(489,483,cs),
(489,480,o),
(499,477,o),
(501,482,cs),
(505,512,o),
(516,577,o),
(522,616,cs),
(523,622,o),
(522,625,o),
(516,625,cs),
(123,625,ls),
(119,625,o),
(119,613,o),
(123,613,cs),
(173,613,o),
(182,601,o),
(172,544,cs),
(90,81,ls),
(80,23,o),
(69,12,o),
(15,12,cs),
(12,12,o),
(12,0,o),
(15,0,cs)
);
},
{
closed = 1;
nodes = (
(414,249,o),
(418,280,o),
(423,313,cs),
(428,340,o),
(433,359,o),
(440,402,cs),
(441,408,o),
(429,409,o),
(428,404,cs),
(416,349,o),
(384,327,o),
(324,327,cs),
(187,327,l),
(184,299,l),
(317,299,ls),
(374,299,o),
(405,269,o),
(395,212,cs),
(394,206,o),
(406,205,o),
(407,211,cs)
);
}
);
width = 485;
}
);
unicode = 70;
},
{
glyphname = G;
kernLeft = O;
layers = (
{
anchors = (
{
name = bottom;
pos = (344,0);
},
{
name = top;
pos = (443,625);
}
);
layerId = "2373B5BC-5F65-41C1-A640-5B37284EFBFD";
metricLeft = "=O";
shapes = (
{
closed = 1;
nodes = (
(387,-12,o),
(453,0,o),
(512,16,cs),
(520,19,o),
(523,20,o),
(524,28,cs),
(527,44,o),
(522,49,o),
(533,116,cs),
(552,222,o),
(558,234,o),
(600,233,cs),
(606,233,o),
(605,247,o),
(600,247,cs),
(536,243,o),
(483,243,o),
(414,249,cs),
(408,249,o),
(407,233,o),
(414,233,cs),
(506,233,o),
(509,222,o),
(492,126,cs),
(475,23,o),
(440,5,o),
(354,5,cs),
(191,5,o),
(95,142,o),
(132,344,cs),
(163,508,o),
(271,615,o),
(429,615,cs),
(525,615,o),
(582,566,o),
(586,470,cs),
(586,465,o),
(596,464,o),
(598,470,cs),
(606,575,ls),
(607,586,o),
(609,589,o),
(601,598,cs),
(572,623,o),
(522,636,o),
(468,636,cs),
(275,636,o),
(105,501,o),
(70,308,cs),
(37,127,o),
(131,-12,o),
(330,-12,cs)
);
}
);
width = 630;
},
{
anchors = (
{
name = bottom;
pos = (342,0);
},
{
name = top;
pos = (429,625);
}
);
layerId = "A1717557-2B81-457C-987E-D55DA76CA63F";
metricLeft = "=O";
shapes = (
{
closed = 1;
nodes = (
(392,-12,o),
(468,0,o),
(536,16,cs),
(544,19,o),
(546,20,o),
(547,28,cs),
(551,44,o),
(547,49,o),
(557,116,cs),
(572,221,o),
(572,234,o),
(598,233,cs),
(604,233,o),
(602,247,o),
(598,247,cs),
(522,243,o),
(458,243,o),
(377,249,cs),
(371,249,o),
(370,233,o),
(377,233,cs),
(468,233,o),
(477,222,o),
(464,126,cs),
(453,35,o),
(427,9,o),
(363,9,cs),
(219,9,o),
(143,146,o),
(174,356,cs),
(198,512,o),
(285,611,o),
(405,611,cs),
(498,611,o),
(557,549,o),
(580,450,cs),
(581,446,o),
(589,446,o),
(591,450,cs),
(607,584,ls),
(608,598,o),
(608,602,o),
(599,607,cs),
(568,623,o),
(505,636,o),
(447,636,cs),
(261,636,o),
(95,506,o),
(61,319,cs),
(27,132,o),
(122,-12,o),
(330,-12,cs)
);
}
);
width = 633;
}
);
metricLeft = O;
unicode = 71;
},
{
glyphname = H;
layers = (
{
anchors = (
{
name = bottom;
pos = (313,0);
},
{
name = center;
pos = (325,312);
},
{
name = top;
pos = (412,625);
},
{
name = topleft;
pos = (99,625);
}
);
layerId = "2373B5BC-5F65-41C1-A640-5B37284EFBFD";
shapes = (
{
closed = 1;
nodes = (
(36,0,o),
(71,2,o),
(108,2,cs),
(147,2,o),
(182,0,o),
(209,0,cs),
(213,0,o),
(213,12,o),
(209,12,cs),
(144,12,o),
(136,23,o),
(146,81,cs),
(228,542,ls),
(239,599,o),
(251,613,o),
(316,613,cs),
(319,613,o),
(319,625,o),
(316,625,cs),
(290,625,o),
(253,622,o),
(215,622,cs),
(178,622,o),
(144,625,o),
(118,625,cs),
(115,625,o),
(115,613,o),
(118,613,cs),
(182,613,o),
(191,601,o),
(181,544,cs),
(99,81,ls),
(89,23,o),
(75,12,o),
(11,12,cs),
(7,12,o),
(7,0,o),
(11,0,cs)
);
},
{
closed = 1;
nodes = (
(545,316,l),
(547,335,l),
(165,335,l),
(161,316,l)
);
},
{
closed = 1;
nodes = (
(422,0,o),
(458,2,o),
(496,2,cs),
(533,2,o),
(568,0,o),
(594,0,cs),
(598,0,o),
(598,12,o),
(594,12,cs),
(530,12,o),
(520,23,o),
(530,81,cs),
(612,544,ls),
(622,601,o),
(636,613,o),
(699,613,cs),
(703,613,o),
(703,625,o),
(699,625,cs),
(674,625,o),
(636,622,o),
(600,622,cs),
(563,622,o),
(527,625,o),
(502,625,cs),
(498,625,o),
(498,613,o),
(502,613,cs),
(567,613,o),
(574,599,o),
(564,542,cs),
(483,81,ls),
(473,23,o),
(461,12,o),
(395,12,cs),
(392,12,o),
(392,0,o),
(395,0,cs)
);
}
);
width = 670;
},
{
anchors = (
{
name = bottom;
pos = (315,0);
},
{
name = center;
pos = (327,312);
},
{
name = top;
pos = (414,625);
},
{
name = topleft;
pos = (99,625);
}
);
layerId = "A1717557-2B81-457C-987E-D55DA76CA63F";
shapes = (
{
closed = 1;
nodes = (
(42,0,o),
(81,2,o),
(122,2,cs),
(166,2,o),
(205,0,o),
(235,0,cs),
(239,0,o),
(239,12,o),
(235,12,cs),
(184,12,o),
(175,23,o),
(186,81,cs),
(268,542,ls),
(278,598,o),
(288,613,o),
(342,613,cs),
(345,613,o),
(345,625,o),
(342,625,cs),
(312,625,o),
(271,622,o),
(229,622,cs),
(187,622,o),
(150,625,o),
(120,625,cs),
(117,625,o),
(117,613,o),
(120,613,cs),
(171,613,o),
(180,600,o),
(170,544,cs),
(88,81,ls),
(77,23,o),
(67,12,o),
(13,12,cs),
(9,12,o),
(9,0,o),
(13,0,cs)
);
},
{
closed = 1;
nodes = (
(547,311,l),
(550,339,l),
(167,339,l),
(164,311,l)
);
},
{
closed = 1;
nodes = (
(405,0,o),
(444,2,o),
(487,2,cs),
(529,2,o),
(571,0,o),
(596,0,cs),
(600,0,o),
(600,12,o),
(596,12,cs),
(546,12,o),
(536,23,o),
(546,81,cs),
(628,544,ls),
(639,600,o),
(649,613,o),
(702,613,cs),
(705,613,o),
(705,625,o),
(702,625,cs),
(673,625,o),
(632,622,o),
(591,622,cs),
(549,622,o),
(510,625,o),
(481,625,cs),
(477,625,o),
(477,613,o),
(481,613,cs),
(531,613,o),
(538,598,o),
(529,542,cs),
(448,81,ls),
(437,23,o),
(429,12,o),
(374,12,cs),
(371,12,o),
(371,0,o),
(374,0,cs)
);
}
);
width = 675;
}
);
unicode = 72;
},
{
glyphname = Hbar;
layers = (
{
anchors = (
{
name = bottom;
pos = (302,0);
},
{
name = center;
pos = (379,312);
},
{
name = top;
pos = (379,625);
}
);
layerId = "2373B5BC-5F65-41C1-A640-5B37284EFBFD";
shapes = (
{
closed = 1;
nodes = (
(36,0,o),
(71,2,o),
(108,2,cs),
(147,2,o),
(182,0,o),
(209,0,cs),
(213,0,o),
(213,12,o),
(209,12,cs),
(144,12,o),
(136,23,o),
(146,81,cs),
(228,542,ls),
(239,599,o),
(251,613,o),
(316,613,cs),
(319,613,o),
(319,625,o),
(316,625,cs),
(290,625,o),
(253,622,o),
(215,622,cs),
(178,622,o),
(144,625,o),
(118,625,cs),
(115,625,o),
(115,613,o),
(118,613,cs),
(182,613,o),
(192,601,o),
(181,544,cs),
(99,81,ls),
(89,23,o),
(75,12,o),
(11,12,cs),
(7,12,o),
(7,0,o),
(11,0,cs)
);
},
{
closed = 1;
nodes = (
(533,222,l),
(536,241,l),
(153,241,l),
(150,222,l)
);
},
{
closed = 1;
nodes = (
(557,409,l),
(559,428,l),
(177,428,l),
(173,409,l)
);
},
{
closed = 1;
nodes = (
(422,0,o),
(458,2,o),
(496,2,cs),
(533,2,o),
(568,0,o),
(594,0,cs),
(598,0,o),
(598,12,o),
(594,12,cs),
(530,12,o),
(519,23,o),
(530,81,cs),
(612,544,ls),
(622,601,o),
(636,613,o),
(699,613,cs),
(703,613,o),
(703,625,o),
(699,625,cs),
(674,625,o),
(636,622,o),
(600,622,cs),
(563,622,o),
(527,625,o),
(502,625,cs),
(498,625,o),
(498,613,o),
(502,613,cs),
(567,613,o),
(574,599,o),
(564,542,cs),
(483,81,ls),
(473,23,o),
(461,12,o),
(395,12,cs),
(392,12,o),
(392,0,o),
(395,0,cs)
);
}
);
width = 670;
},
{
anchors = (
{
name = bottom;
pos = (302,0);
},
{
name = center;
pos = (379,312);
},
{
name = top;
pos = (379,625);
}
);
layerId = "A1717557-2B81-457C-987E-D55DA76CA63F";
shapes = (
{
closed = 1;
nodes = (
(42,0,o),
(81,2,o),
(122,2,cs),
(166,2,o),
(205,0,o),
(235,0,cs),
(239,0,o),
(239,12,o),
(235,12,cs),
(184,12,o),
(175,23,o),
(186,81,cs),
(268,542,ls),
(278,598,o),
(288,613,o),
(342,613,cs),
(345,613,o),
(345,625,o),
(342,625,cs),
(312,625,o),
(271,622,o),
(229,622,cs),
(187,622,o),
(150,625,o),
(120,625,cs),
(117,625,o),
(117,613,o),
(120,613,cs),
(171,613,o),
(180,600,o),
(170,544,cs),
(88,81,ls),
(77,23,o),
(67,12,o),
(13,12,cs),
(9,12,o),
(9,0,o),
(13,0,cs)
);
},
{
closed = 1;
nodes = (
(547,218,l),
(550,246,l),
(167,246,l),
(164,218,l)
);
},
{
closed = 1;
nodes = (
(547,405,l),
(550,433,l),
(167,433,l),
(164,405,l)
);
},
{
closed = 1;
nodes = (
(405,0,o),
(444,2,o),
(487,2,cs),
(529,2,o),
(571,0,o),
(596,0,cs),
(600,0,o),
(600,12,o),
(596,12,cs),
(546,12,o),
(536,23,o),
(546,81,cs),
(628,544,ls),
(639,600,o),
(649,613,o),
(702,613,cs),
(705,613,o),
(705,625,o),
(702,625,cs),
(673,625,o),
(632,622,o),
(591,622,cs),
(549,622,o),
(510,625,o),
(481,625,cs),
(477,625,o),
(477,613,o),
(481,613,cs),
(531,613,o),
(538,598,o),
(529,542,cs),
(448,81,ls),
(437,23,o),
(429,12,o),
(374,12,cs),
(371,12,o),
(371,0,o),
(374,0,cs)
);
}
);
width = 675;
}
);
unicode = 294;
},
{
glyphname = I;
layers = (
{
anchors = (
{
name = bottom;
pos = (117,0);
},
{
name = ogonek;
pos = (131,12);
},
{
name = top;
pos = (223,625);
},
{
name = topleft;
pos = (99,625);
}
);
layerId = "2373B5BC-5F65-41C1-A640-5B37284EFBFD";
shapes = (
{
closed = 1;
nodes = (
(46,0,o),
(81,2,o),
(118,2,cs),
(159,2,o),
(192,0,o),
(219,0,cs),
(222,0,o),
(222,12,o),
(219,12,cs),
(153,12,o),
(144,23,o),
(154,81,cs),
(236,542,ls),
(247,599,o),
(260,613,o),
(324,613,cs),
(327,613,o),
(327,625,o),
(324,625,cs),
(298,625,o),
(264,622,o),
(222,622,cs),
(185,622,o),
(151,625,o),
(124,625,cs),
(120,625,o),
(120,613,o),
(124,613,cs),
(188,613,o),
(199,601,o),
(188,544,cs),
(106,81,ls),
(96,23,o),
(83,12,o),
(19,12,cs),
(15,12,o),
(15,0,o),
(19,0,cs)
);
}
);
width = 301;
},
{
anchors = (
{
name = bottom;
pos = (135,0);
},
{
name = ogonek;
pos = (145,12);
},
{
name = top;
pos = (241,625);
},
{
name = topleft;
pos = (99,625);
}
);
layerId = "A1717557-2B81-457C-987E-D55DA76CA63F";
shapes = (
{
closed = 1;
nodes = (
(55,0,o),
(94,2,o),
(136,2,cs),
(181,2,o),
(218,0,o),
(248,0,cs),
(251,0,o),
(251,12,o),
(248,12,cs),
(196,12,o),
(187,23,o),
(198,81,cs),
(280,542,ls),
(290,599,o),
(299,613,o),
(353,613,cs),
(357,613,o),
(357,625,o),
(353,625,cs),
(324,625,o),
(287,622,o),
(240,622,cs),
(198,622,o),
(160,625,o),
(130,625,cs),
(126,625,o),
(126,613,o),
(130,613,cs),
(180,613,o),
(191,601,o),
(180,544,cs),
(98,81,ls),
(88,23,o),
(78,12,o),
(25,12,cs),
(21,12,o),
(21,0,o),
(25,0,cs)
);
}
);
width = 336;
}
);
metricLeft = "H+5";
metricRight = "H+5";
unicode = 73;
},
{
glyphname = IJ;
kernLeft = U;
kernRight = U;
layers = (
{
layerId = "2373B5BC-5F65-41C1-A640-5B37284EFBFD";
shapes = (
{
closed = 1;
nodes = (
(400,-13,o),
(499,82,o),
(530,258,cs),
(579,542,ls),
(589,599,o),
(601,613,o),
(662,613,cs),
(667,613,o),
(667,625,o),
(662,625,cs),
(637,625,o),
(604,622,o),
(566,622,cs),
(524,622,o),
(485,625,o),
(451,625,cs),
(447,625,o),
(447,613,o),
(451,613,cs),
(530,613,o),
(539,601,o),
(529,544,cs),
(468,200,ls),
(447,80,o),
(391,1,o),
(278,1,cs),
(177,1,o),
(165,67,o),
(163,111,cs),
(161,142,o),
(160,167,o),
(131,167,cs),
(117,167,o),
(104,156,o),
(102,136,cs),
(92,71,o),
(159,-13,o),
(283,-13,cs)
);
},
{
closed = 1;
nodes = (
(83,269,o),
(120,271,o),
(159,271,cs),
(201,271,o),
(236,269,o),
(264,269,cs),
(269,269,o),
(269,281,o),
(264,281,cs),
(194,281,o),
(187,292,o),
(198,350,cs),
(232,542,ls),
(242,599,o),
(255,613,o),
(324,613,cs),
(330,613,o),
(330,625,o),
(324,625,cs),
(297,625,o),
(261,622,o),
(219,622,cs),
(180,622,o),
(143,625,o),
(113,625,cs),
(108,625,o),
(108,613,o),
(113,613,cs),
(181,613,o),
(191,601,o),
(180,544,cs),
(146,350,ls),
(136,292,o),
(123,281,o),
(55,281,cs),
(49,281,o),
(49,269,o),
(55,269,cs)
);
}
);
width = 619;
},
{
layerId = "A1717557-2B81-457C-987E-D55DA76CA63F";
shapes = (
{
closed = 1;
nodes = (
(415,-14,o),
(525,81,o),
(556,258,cs),
(605,542,ls),
(614,599,o),
(623,613,o),
(674,613,cs),
(678,613,o),
(678,625,o),
(674,625,cs),
(646,625,o),
(608,622,o),
(566,622,cs),
(519,622,o),
(477,625,o),
(440,625,cs),
(435,625,o),
(435,613,o),
(440,613,cs),
(504,613,o),
(513,601,o),
(503,544,cs),
(442,200,ls),
(421,76,o),
(372,7,o),
(277,7,cs),
(193,7,o),
(191,62,o),
(189,112,cs),
(188,153,o),
(187,191,o),
(139,191,cs),
(101,191,o),
(83,167,o),
(78,136,cs),
(67,61,o),
(154,-14,o),
(277,-14,cs)
);
},
{
closed = 1;
nodes = (
(75,269,o),
(116,271,o),
(159,271,cs),
(206,271,o),
(244,269,o),
(276,269,cs),
(281,269,o),
(281,281,o),
(276,281,cs),
(221,281,o),
(213,292,o),
(223,350,cs),
(257,542,ls),
(268,599,o),
(277,613,o),
(336,613,cs),
(342,613,o),
(342,625,o),
(336,625,cs),
(305,625,o),
(265,622,o),
(219,622,cs),
(175,622,o),
(135,625,o),
(102,625,cs),
(96,625,o),
(96,613,o),
(102,613,cs),
(156,613,o),
(165,601,o),
(154,544,cs),
(120,350,ls),
(110,292,o),
(101,281,o),
(43,281,cs),
(37,281,o),
(37,269,o),
(43,269,cs)
);
}
);
width = 619;
}
);
unicode = 306;
},
{
glyphname = Istroke;
layers = (
{
layerId = "2373B5BC-5F65-41C1-A640-5B37284EFBFD";
shapes = (
{
closed = 1;
nodes = (
(269,302,ls),
(274,302,o),
(274,320,o),
(269,320,cs),
(73,320,ls),
(67,320,o),
(67,302,o),
(73,302,cs)
);
},
{
ref = I;
}
);
width = 301;
},
{
layerId = "A1717557-2B81-457C-987E-D55DA76CA63F";
shapes = (
{
closed = 1;
nodes = (
(305,297,ls),
(311,297,o),
(311,325,o),
(305,325,cs),
(76,325,ls),
(70,325,o),
(70,297,o),
(76,297,cs)
);
},
{
ref = I;
}
);
width = 336;
}
);
unicode = 407;
},
{
glyphname = J;
kernRight = J;
layers = (
{
anchors = (
{
name = bottom;
pos = (102,0);
},
{
name = top;
pos = (212,625);
}
);
layerId = "2373B5BC-5F65-41C1-A640-5B37284EFBFD";
shapes = (
{
closed = 1;
nodes = (
(76,-146,o),
(113,-89,o),
(142,67,cs),
(226,542,ls),
(236,599,o),
(249,613,o),
(313,613,cs),
(317,613,o),
(317,625,o),
(313,625,cs),
(288,625,o),
(254,622,o),
(212,622,cs),
(174,622,o),
(140,625,o),
(113,625,cs),
(110,625,o),
(110,613,o),
(113,613,cs),
(178,613,o),
(188,601,o),
(178,544,cs),
(89,40,ls),
(69,-70,o),
(37,-145,o),
(-25,-182,cs),
(-28,-185,o),
(-22,-195,o),
(-19,-193,cs)
);
}
);
width = 271;
},
{
anchors = (
{
name = bottom;
pos = (87,0);
},
{
name = top;
pos = (237,625);
}
);
layerId = "A1717557-2B81-457C-987E-D55DA76CA63F";
shapes = (
{
closed = 1;
nodes = (
(101,-146,o),
(159,-90,o),
(187,67,cs),
(271,542,ls),
(282,599,o),
(291,613,o),
(345,613,cs),
(349,613,o),
(349,625,o),
(345,625,cs),
(316,625,o),
(278,622,o),
(232,622,cs),
(189,622,o),
(152,625,o),
(122,625,cs),
(118,625,o),
(118,613,o),
(122,613,cs),
(172,613,o),
(182,601,o),
(172,544,cs),
(83,40,ls),
(63,-70,o),
(32,-145,o),
(-30,-182,cs),
(-34,-185,o),
(-28,-194,o),
(-25,-193,cs)
);
}
);
width = 317;
}
);
unicode = 74;
},
{
glyphname = K;
kernRight = K;
layers = (
{
anchors = (
{
name = bottom;
pos = (290,0);
},
{
name = top;
pos = (379,625);
}
);
layerId = "2373B5BC-5F65-41C1-A640-5B37284EFBFD";
shapes = (
{
closed = 1;
nodes = (
(36,0,o),
(71,2,o),
(108,2,cs),
(147,2,o),
(171,0,o),
(198,0,cs),
(201,0,o),
(201,12,o),
(198,12,cs),
(132,12,o),
(136,23,o),
(146,81,cs),
(228,542,ls),
(239,599,o),
(251,613,o),
(316,613,cs),
(319,613,o),
(319,625,o),
(316,625,cs),
(290,625,o),
(253,622,o),
(215,622,cs),
(178,622,o),
(144,625,o),
(118,625,cs),
(115,625,o),
(115,613,o),
(118,613,cs),
(182,613,o),
(191,601,o),
(181,544,cs),
(99,81,ls),
(89,23,o),
(75,12,o),
(11,12,cs),
(7,12,o),
(7,0,o),
(11,0,cs)
);
},
{
closed = 1;
nodes = (
(470,0,o),
(496,0,o),
(540,0,cs),
(544,0,o),
(544,12,o),
(540,12,cs),
(489,12,o),
(469,15,o),
(364,199,cs),
(260,380,l),
(218,349,l),
(335,145,ls),
(422,-7,o),
(400,0,o),
(457,0,cs)
);
},
{
closed = 1;
nodes = (
(171,295,l),
(456,544,ls),
(513,599,o),
(570,613,o),
(609,613,cs),
(613,613,o),
(613,625,o),
(609,625,cs),
(586,625,o),
(565,622,o),
(523,622,cs),
(477,622,o),
(455,625,o),
(428,625,cs),
(425,625,o),
(425,613,o),
(428,613,cs),
(488,613,o),
(490,601,o),
(437,550,cs),
(150,294,l)
);
}
);
width = 587;
},
{
anchors = (
{
name = bottom;
pos = (304,0);
},
{
name = top;
pos = (393,625);
}
);
layerId = "A1717557-2B81-457C-987E-D55DA76CA63F";
shapes = (
{
closed = 1;
nodes = (
(42,0,o),
(81,2,o),
(122,2,cs),
(172,2,o),
(201,0,o),
(235,0,cs),
(239,0,o),
(239,12,o),
(235,12,cs),
(173,12,o),
(175,23,o),
(186,81,cs),
(268,542,ls),
(278,599,o),
(288,613,o),
(342,613,cs),
(345,613,o),
(345,625,o),
(342,625,cs),
(312,625,o),
(271,622,o),
(229,622,cs),
(187,622,o),
(150,625,o),
(120,625,cs),
(117,625,o),
(117,613,o),
(120,613,cs),
(171,613,o),
(180,601,o),
(170,544,cs),
(88,81,ls),
(77,23,o),
(67,12,o),
(13,12,cs),
(9,12,o),
(9,0,o),
(13,0,cs)
);
},
{
closed = 1;
nodes = (
(510,0,o),
(539,0,o),
(589,0,cs),
(593,0,o),
(593,12,o),
(589,12,cs),
(542,12,o),
(530,32,o),
(437,216,cs),
(340,411,l),
(263,342,l),
(353,160,ls),
(434,-2,o),
(391,0,o),
(495,0,cs)
);
},
{
closed = 1;
nodes = (
(185,260,l),
(464,518,ls),
(530,578,o),
(606,613,o),
(658,613,cs),
(662,613,o),
(662,625,o),
(658,625,cs),
(632,625,o),
(608,622,o),
(560,622,cs),
(515,622,o),
(457,625,o),
(430,625,cs),
(427,625,o),
(427,613,o),
(430,613,cs),
(482,613,o),
(485,567,o),
(439,524,cs),
(160,262,l)
);
}
);
width = 625;
}
);
metricLeft = H;
unicode = 75;
},
{
glyphname = L;
kernRight = L;
layers = (
{
anchors = (
{
name = bottom;
pos = (247,0);
},
{
name = center;
pos = (268,312);
},
{
name = top;
pos = (216,625);
},
{
name = topright;
pos = (513,625);
}
);
layerId = "2373B5BC-5F65-41C1-A640-5B37284EFBFD";
shapes = (
{
closed = 1;
nodes = (
(426,0,ls),
(436,0,o),
(440,4,o),
(442,15,cs),
(449,56,o),
(462,110,o),
(473,145,cs),
(474,149,o),
(461,151,o),
(461,147,cs),
(439,71,o),
(401,18,o),
(329,18,cs),
(209,18,ls),
(146,18,o),
(138,29,o),
(147,85,cs),
(228,543,ls),
(239,600,o),
(251,613,o),
(316,613,cs),
(319,613,o),
(319,625,o),
(316,625,cs),
(290,625,o),
(253,622,o),
(215,622,cs),
(178,622,o),
(144,625,o),
(118,625,cs),
(115,625,o),
(115,613,o),
(118,613,cs),
(182,613,o),
(191,601,o),
(181,544,cs),
(99,81,ls),
(89,23,o),
(76,12,o),
(12,12,cs),
(8,12,o),
(8,0,o),
(12,0,cs)
);
}
);
width = 494;
},
{
anchors = (
{
name = bottom;
pos = (261,0);
},
{
name = center;
pos = (274,312);
},
{
name = top;
pos = (230,625);
},
{
name = topright;
pos = (527,625);
}
);
layerId = "A1717557-2B81-457C-987E-D55DA76CA63F";
shapes = (
{
closed = 1;
nodes = (
(440,0,ls),
(450,0,o),
(454,4,o),
(456,15,cs),
(464,63,o),
(480,127,o),
(491,168,cs),
(492,172,o),
(482,174,o),
(480,171,cs),
(420,68,o),
(347,21,o),
(249,21,cs),
(223,21,ls),
(186,21,o),
(178,32,o),
(187,85,cs),
(268,543,ls),
(278,600,o),
(288,613,o),
(342,613,cs),
(345,613,o),
(345,625,o),
(342,625,cs),
(312,625,o),
(271,622,o),
(229,622,cs),
(187,622,o),
(150,625,o),
(120,625,cs),
(117,625,o),
(117,613,o),
(120,613,cs),
(171,613,o),
(180,601,o),
(170,544,cs),
(88,81,ls),
(77,23,o),
(68,12,o),
(14,12,cs),
(11,12,o),
(11,0,o),
(14,0,cs)
);
}
);
width = 505;
}
);
metricLeft = H;
unicode = 76;
},
{
glyphname = Lslash;
kernRight = L;
layers = (
{
layerId = "2373B5BC-5F65-41C1-A640-5B37284EFBFD";
shapes = (
{
closed = 1;
nodes = (
(292,366,ls),
(297,368,o),
(288,385,o),
(283,382,cs),
(64,256,ls),
(60,254,o),
(69,237,o),
(74,240,cs)
);
},
{
ref = L;
}
);
width = 494;
},
{
layerId = "A1717557-2B81-457C-987E-D55DA76CA63F";
shapes = (
{
closed = 1;
nodes = (
(292,366,ls),
(297,368,o),
(288,385,o),
(283,382,cs),
(64,256,ls),
(60,254,o),
(69,237,o),
(74,240,cs)
);
},
{
ref = L;
}
);
width = 505;
}
);
metricRight = L;
unicode = 321;
},
{
glyphname = M;
layers = (
{
anchors = (
{
name = bottom;
pos = (331,0);
},
{
name = top;
pos = (429,625);
}
);
layerId = "2373B5BC-5F65-41C1-A640-5B37284EFBFD";
shapes = (
{
closed = 1;
nodes = (
(494,0,o),
(527,2,o),
(566,2,cs),
(605,2,o),
(640,0,o),
(665,0,cs),
(669,0,o),
(669,12,o),
(665,12,cs),
(601,12,o),
(593,23,o),
(601,81,cs),
(670,546,ls),
(678,602,o),
(709,613,o),
(764,613,cs),
(766,613,o),
(766,625,o),
(764,625,cs),
(744,625,o),
(727,623,o),
(698,623,cs),
(684,623,o),
(668,625,o),
(661,625,cs),
(651,625,o),
(639,615,o),
(630,600,cs),
(325,35,l),
(351,74,l),
(244,573,ls),
(235,616,o),
(229,625,o),
(214,625,cs),
(207,625,o),
(196,623,o),
(180,623,cs),
(167,623,o),
(144,625,o),
(127,625,cs),
(124,625,o),
(124,613,o),
(127,613,cs),
(153,613,o),
(189,605,o),
(202,542,cs),
(315,8,ls),
(316,2,o),
(326,2,o),
(329,7,cs),
(656,613,l),
(630,589,l),
(554,81,ls),
(546,23,o),
(532,12,o),
(467,12,cs),
(463,12,o),
(463,0,o),
(467,0,cs)
);
},
{
closed = 1;
nodes = (
(41,0,o),
(67,2,o),
(94,2,cs),
(124,2,o),
(146,0,o),
(167,0,cs),
(171,0,o),
(171,12,o),
(167,12,cs),
(119,12,o),
(109,36,o),
(120,104,cs),
(209,600,l),
(193,602,l),
(102,104,ls),
(89,36,o),
(67,12,o),
(19,12,cs),
(15,12,o),
(15,0,o),
(19,0,cs)
);
}
);
width = 730;
},
{
anchors = (
{
name = bottom;
pos = (337,0);
},
{
name = top;
pos = (447,625);
}
);
layerId = "A1717557-2B81-457C-987E-D55DA76CA63F";
shapes = (
{
closed = 1;
nodes = (
(491,0,o),
(529,2,o),
(572,2,cs),
(615,2,o),
(654,0,o),
(683,0,cs),
(687,0,o),
(687,12,o),
(683,12,cs),
(633,12,o),
(625,23,o),
(633,81,cs),
(702,546,ls),
(710,602,o),
(730,613,o),
(770,613,cs),
(772,613,o),
(772,625,o),
(770,625,cs),
(750,625,o),
(733,623,o),
(704,623,cs),
(682,623,o),
(651,625,o),
(639,625,cs),
(623,625,o),
(609,615,o),
(602,600,cs),
(329,39,l),
(394,132,l),
(301,573,ls),
(291,616,o),
(285,625,o),
(270,625,cs),
(255,625,o),
(223,623,o),
(186,623,cs),
(159,623,o),
(138,625,o),
(122,625,cs),
(118,625,o),
(118,613,o),
(122,613,cs),
(151,613,o),
(193,605,o),
(208,542,cs),
(320,8,ls),
(322,2,o),
(332,2,o),
(335,7,cs),
(633,613,l),
(609,580,l),
(535,81,ls),
(526,23,o),
(516,12,o),
(461,12,cs),
(457,12,o),
(457,0,o),
(461,0,cs)
);
},
{
closed = 1;
nodes = (
(39,0,o),
(68,2,o),
(99,2,cs),
(135,2,o),
(165,0,o),
(189,0,cs),
(193,0,o),
(193,12,o),
(189,12,cs),
(143,12,o),
(124,57,o),
(137,130,cs),
(222,600,l),
(198,602,l),
(109,127,ls),
(96,56,o),
(58,12,o),
(13,12,cs),
(9,12,o),
(9,0,o),
(13,0,cs)
);
}
);
width = 742;
}
);
unicode = 77;
},
{
glyphname = N;
layers = (
{
anchors = (
{
name = bottom;
pos = (309,0);
},
{
name = top;
pos = (389,625);
}
);
layerId = "2373B5BC-5F65-41C1-A640-5B37284EFBFD";
shapes = (
{
closed = 1;
nodes = (
(495,-16,o),
(503,-15,o),
(504,-11,cs),
(510,65,l),
(251,573,ls),
(233,611,o),
(237,625,o),
(222,625,cs),
(215,625,o),
(200,623,o),
(184,623,cs),
(167,623,o),
(143,625,o),
(124,625,cs),
(120,625,o),
(120,613,o),
(124,613,cs),
(152,613,o),
(179,598,o),
(207,543,cs),
(492,-11,ls)
);
},
{
closed = 1;
nodes = (
(37,0,o),
(63,2,o),
(90,2,cs),
(120,2,o),
(143,0,o),
(164,0,cs),
(167,0,o),
(167,12,o),
(164,12,cs),
(116,12,o),
(105,36,o),
(117,104,cs),
(202,600,l),
(186,602,l),
(98,104,ls),
(87,36,o),
(63,12,o),
(15,12,cs),
(12,12,o),
(12,0,o),
(15,0,cs)
);
},
{
closed = 1;
nodes = (
(598,520,ls),
(609,588,o),
(633,613,o),
(681,613,cs),
(684,613,o),
(684,625,o),
(681,625,cs),
(658,625,o),
(633,622,o),
(606,622,cs),
(575,622,o),
(553,625,o),
(532,625,cs),
(529,625,o),
(529,613,o),
(532,613,cs),
(580,613,o),
(591,588,o),
(579,520,cs),
(492,20,l),
(504,-11,l)
);
}
);
width = 650;
},
{
anchors = (
{
name = bottom;
pos = (315,0);
},
{
name = top;
pos = (401,625);
}
);
layerId = "A1717557-2B81-457C-987E-D55DA76CA63F";
shapes = (
{
closed = 1;
nodes = (
(491,-19,o),
(516,-14,o),
(516,-7,cs),
(523,143,l),
(287,573,ls),
(265,611,o),
(269,625,o),
(254,625,cs),
(247,625,o),
(211,623,o),
(189,623,cs),
(166,623,o),
(129,625,o),
(102,625,cs),
(98,625,o),
(98,613,o),
(102,613,cs),
(130,613,o),
(154,598,o),
(185,543,cs),
(487,-9,ls)
);
},
{
closed = 1;
nodes = (
(27,0,o),
(61,2,o),
(96,2,cs),
(136,2,o),
(165,0,o),
(193,0,cs),
(196,0,o),
(196,12,o),
(193,12,cs),
(142,12,o),
(116,51,o),
(127,116,cs),
(214,600,l),
(187,602,l),
(99,116,ls),
(88,51,o),
(48,12,o),
(-2,12,cs),
(-6,12,o),
(-6,0,o),
(-2,0,cs)
);
},
{
closed = 1;
nodes = (
(608,509,ls),
(620,573,o),
(660,613,o),
(710,613,cs),
(713,613,o),
(713,625,o),
(710,625,cs),
(681,625,o),
(647,622,o),
(612,622,cs),
(572,622,o),
(539,625,o),
(515,625,cs),
(511,625,o),
(511,613,o),
(515,613,cs),
(567,613,o),
(592,573,o),
(580,509,cs),
(497,54,l),
(516,-7,l)
);
}
);
width = 655;
}
);
unicode = 78;
},
{
glyphname = O;
kernLeft = O;
kernRight = O;
layers = (
{
anchors = (
{
name = bottom;
pos = (308,0);
},
{
name = center;
pos = (343,312);
},
{
name = ogonek;
pos = (398,12);
},
{
name = top;
pos = (399,625);
},
{
name = topleft;
pos = (99,625);
},
{
name = topright;
pos = (579,577);
}
);
layerId = "2373B5BC-5F65-41C1-A640-5B37284EFBFD";
shapes = (
{
closed = 1;
nodes = (
(441,-12,o),
(592,122,o),
(626,313,cs),
(657,487,o),
(579,636,o),
(409,636,cs),
(249,636,o),
(104,502,o),
(71,313,cs),
(40,135,o),
(122,-12,o),
(285,-12,cs)
);
},
{
closed = 1;
nodes = (
(164,14,o),
(88,177,o),
(125,366,cs),
(154,516,o),
(242,612,o),
(368,612,cs),
(529,612,o),
(613,460,o),
(571,260,cs),
(537,99,o),
(446,14,o),
(327,14,cs)
);
}
);
width = 650;
},
{
anchors = (
{
name = bottom;
pos = (308,0);
},
{
name = center;
pos = (343,312);
},
{
name = ogonek;
pos = (398,12);
},
{
name = top;
pos = (399,625);
},
{
name = topleft;
pos = (99,625);
},
{
name = topright;
pos = (612,580);
}
);
layerId = "A1717557-2B81-457C-987E-D55DA76CA63F";
shapes = (
{
closed = 1;
nodes = (
(440,-12,o),
(601,111,o),
(637,313,cs),
(670,494,o),
(582,636,o),
(411,636,cs),
(240,636,o),
(92,499,o),
(60,313,cs),
(28,133,o),
(112,-12,o),
(281,-12,cs)
);
},
{
closed = 1;
nodes = (
(196,14,o),
(143,187,o),
(173,366,cs),
(199,518,o),
(277,612,o),
(372,612,cs),
(498,612,o),
(554,443,o),
(523,260,cs),
(497,109,o),
(419,14,o),
(324,14,cs)
);
}
);
width = 655;
}
);
unicode = 79;
},
{
glyphname = Oslash;
kernLeft = O;
kernRight = O;
layers = (
{
anchors = (
{
name = bottom;
pos = (291,0);
},
{
name = top;
pos = (384,625);
}
);
layerId = "2373B5BC-5F65-41C1-A640-5B37284EFBFD";
shapes = (
{
closed = 1;
nodes = (
(662,618,ls),
(667,622,o),
(651,633,o),
(648,629,cs),
(35,7,ls),
(30,2,o),
(44,-11,o),
(48,-7,cs)
);
},
{
ref = O;
}
);
width = 650;
},
{
anchors = (
{
name = bottom;
pos = (294,0);
},
{
name = top;
pos = (395,625);
}
);
layerId = "A1717557-2B81-457C-987E-D55DA76CA63F";
shapes = (
{
closed = 1;
nodes = (
(668,616,ls),
(673,621,o),
(650,639,o),
(647,635,cs),
(27,7,ls),
(22,2,o),
(43,-18,o),
(47,-14,cs)
);
},
{
ref = O;
}
);
width = 655;
}
);
unicode = 216;
},
{
glyphname = OE;
kernLeft = O;
layers = (
{
anchors = (
{
name = bottom;
pos = (75,0);
},
{
name = ogonek;
pos = (243,12);
},
{
name = top;
pos = (284,625);
}
);
layerId = "2373B5BC-5F65-41C1-A640-5B37284EFBFD";
metricLeft = "=O";
metricRight = "=E";
shapes = (
{
closed = 1;
nodes = (
(360,-4,o),
(411,0,o),
(451,0,cs),
(715,0,ls),
(725,0,o),
(729,4,o),
(731,15,cs),
(738,56,o),
(750,110,o),
(761,145,cs),
(763,149,o),
(751,151,o),
(750,147,cs),
(727,71,o),
(684,18,o),
(640,18,cs),
(551,18,ls),
(484,18,o),
(476,29,o),
(485,85,cs),
(566,543,ls),
(577,600,o),
(589,611,o),
(655,611,cs),
(718,611,l),
(768,611,o),
(795,564,o),
(784,495,cs),
(782,491,o),
(794,489,o),
(795,494,cs),
(800,522,o),
(808,580,o),
(814,616,cs),
(815,622,o),
(814,625,o),
(808,625,cs),
(556,625,ls),
(515,625,o),
(460,627,o),
(426,627,cs),
(265,627,o),
(103,501,o),
(69,301,cs),
(40,129,o),
(143,-4,o),
(327,-4,cs)
);
},
{
closed = 1;
nodes = (
(174,9,o),
(105,147,o),
(135,323,cs),
(166,511,o),
(288,614,o),
(433,614,cs),
(513,614,o),
(524,588,o),
(513,531,cs),
(435,82,ls),
(425,19,o),
(394,9,o),
(320,9,cs)
);
},
{
closed = 1;
nodes = (
(716,268,o),
(719,295,o),
(724,325,cs),
(727,349,o),
(732,365,o),
(738,402,cs),
(739,408,o),
(727,409,o),
(726,404,cs),
(718,353,o),
(699,335,o),
(648,335,cs),
(506,335,l),
(504,316,ls),
(641,316,ls),
(696,316,o),
(709,295,o),
(698,235,cs),
(697,229,o),
(709,228,o),
(710,234,cs)
);
}
);
width = 806;
},
{
anchors = (
{
name = bottom;
pos = (74,0);
},
{
name = ogonek;
pos = (242,12);
},
{
name = top;
pos = (283,625);
}
);
layerId = "A1717557-2B81-457C-987E-D55DA76CA63F";
metricLeft = "=O";
metricRight = "=E";
shapes = (
{
closed = 1;
nodes = (
(359,-4,o),
(409,0,o),
(450,0,cs),
(713,0,ls),
(724,0,o),
(727,4,o),
(730,15,cs),
(738,60,o),
(751,118,o),
(764,157,cs),
(765,160,o),
(754,163,o),
(752,159,cs),
(703,73,o),
(660,18,o),
(581,18,cs),
(556,18,ls),
(506,18,o),
(498,29,o),
(508,85,cs),
(588,543,ls),
(598,594,o),
(604,604,o),
(660,604,cs),
(677,604,ls),
(751,604,o),
(774,557,o),
(780,483,cs),
(780,480,o),
(791,477,o),
(792,482,cs),
(796,512,o),
(807,577,o),
(813,616,cs),
(814,622,o),
(813,625,o),
(807,625,cs),
(554,625,ls),
(513,625,o),
(458,627,o),
(425,627,cs),
(260,627,o),
(95,504,o),
(58,309,cs),
(26,132,o),
(135,-4,o),
(326,-4,cs)
);
},
{
closed = 1;
nodes = (
(204,16,o),
(139,151,o),
(171,331,cs),
(202,513,o),
(305,606,o),
(432,606,cs),
(487,606,o),
(497,588,o),
(487,531,cs),
(408,82,ls),
(398,19,o),
(377,16,o),
(319,16,cs)
);
},
{
closed = 1;
nodes = (
(732,261,o),
(736,291,o),
(742,325,cs),
(746,352,o),
(751,371,o),
(758,414,cs),
(759,420,o),
(747,421,o),
(746,415,cs),
(735,360,o),
(702,339,o),
(642,339,cs),
(505,339,l),
(502,311,l),
(635,311,ls),
(692,311,o),
(723,281,o),
(713,223,cs),
(712,218,o),
(724,216,o),
(725,222,cs)
);
}
);
width = 809;
}
);
metricLeft = O;
metricRight = E;
unicode = 338;
},
{
glyphname = P;
kernRight = P;
layers = (
{
anchors = (
{
name = bottom;
pos = (214,0);
},
{
name = top;
pos = (324,625);
}
);
layerId = "2373B5BC-5F65-41C1-A640-5B37284EFBFD";
metricLeft = "=F";
shapes = (
{
closed = 1;
nodes = (
(37,0,o),
(73,2,o),
(109,2,cs),
(149,2,o),
(184,0,o),
(211,0,cs),
(214,0,o),
(214,12,o),
(211,12,cs),
(145,12,o),
(137,23,o),
(147,81,cs),
(228,542,ls),
(241,613,o),
(254,615,o),
(318,615,cs),
(396,615,o),
(462,549,o),
(440,433,cs),
(419,325,o),
(325,276,o),
(246,276,cs),
(236,276,o),
(226,277,o),
(216,280,cs),
(212,281,o),
(208,268,o),
(212,267,cs),
(225,263,o),
(237,262,o),
(253,262,cs),
(343,262,o),
(475,319,o),
(499,453,cs),
(522,575,o),
(439,628,o),
(340,628,cs),
(291,628,o),
(246,622,o),
(216,622,cs),
(179,622,o),
(145,625,o),
(119,625,cs),
(116,625,o),
(116,613,o),
(119,613,cs),
(184,613,o),
(193,601,o),
(182,544,cs),
(101,81,ls),
(90,23,o),
(76,12,o),
(12,12,cs),
(8,12,o),
(8,0,o),
(12,0,cs)
);
}
);
width = 496;
},
{
anchors = (
{
name = bottom;
pos = (233,0);
},
{
name = top;
pos = (343,625);
}
);
layerId = "A1717557-2B81-457C-987E-D55DA76CA63F";
metricLeft = "=F";
shapes = (
{
closed = 1;
nodes = (
(44,0,o),
(83,2,o),
(124,2,cs),
(168,2,o),
(207,0,o),
(237,0,cs),
(241,0,o),
(241,12,o),
(237,12,cs),
(187,12,o),
(178,23,o),
(188,81,cs),
(269,542,ls),
(280,595,o),
(290,607,o),
(333,607,cs),
(394,607,o),
(446,544,o),
(428,433,cs),
(412,327,o),
(349,283,o),
(285,283,cs),
(276,283,o),
(265,284,o),
(256,287,cs),
(251,288,o),
(247,268,o),
(250,267,cs),
(263,263,o),
(276,262,o),
(291,262,cs),
(381,262,o),
(513,318,o),
(538,453,cs),
(560,571,o),
(475,628,o),
(352,628,cs),
(312,628,o),
(258,622,o),
(232,622,cs),
(189,622,o),
(152,625,o),
(123,625,cs),
(119,625,o),
(119,613,o),
(123,613,cs),
(173,613,o),
(182,602,o),
(172,544,cs),
(90,81,ls),
(80,23,o),
(69,12,o),
(15,12,cs),
(12,12,o),
(12,0,o),
(15,0,cs)
);
}
);
width = 532;
}
);
metricLeft = F;
unicode = 80;
},
{
glyphname = Thorn;
kernRight = O;
layers = (
{
anchors = (
{
name = bottom;
pos = (232,0);
},
{
name = top;
pos = (342,625);
}
);
layerId = "2373B5BC-5F65-41C1-A640-5B37284EFBFD";
shapes = (
{
closed = 1;
nodes = (
(37,0,o),
(73,2,o),
(109,2,cs),
(158,2,o),
(201,0,o),
(234,0,cs),
(237,0,o),
(237,12,o),
(234,12,cs),
(144,12,o),
(137,22,o),
(147,81,cs),
(228,542,ls),
(240,606,o),
(251,613,o),
(342,613,cs),
(345,613,o),
(345,625,o),
(342,625,cs),
(310,625,o),
(268,622,o),
(216,622,c),
(179,622,o),
(145,625,o),
(119,625,cs),
(116,625,o),
(116,613,o),
(119,613,cs),
(184,613,o),
(193,601,o),
(182,544,cs),
(101,81,ls),
(90,23,o),
(76,12,o),
(12,12,cs),
(8,12,o),
(8,0,o),
(12,0,cs)
);
},
{
closed = 1;
nodes = (
(332,122,o),
(485,179,o),
(511,312,cs),
(537,444,o),
(437,499,o),
(317,499,cs),
(268,499,o),
(218,495,o),
(180,483,c),
(186,471,l),
(211,480,o),
(237,487,o),
(295,487,cs),
(395,487,o),
(478,415,o),
(451,292,cs),
(428,185,o),
(316,136,o),
(222,136,cs),
(213,136,o),
(202,137,o),
(193,139,cs),
(188,140,o),
(185,127,o),
(188,126,cs),
(201,123,o),
(214,122,o),
(229,122,cs)
);
}
);
width = 531;
},
{
anchors = (
{
name = bottom;
pos = (240,0);
},
{
name = top;
pos = (350,625);
}
);
layerId = "A1717557-2B81-457C-987E-D55DA76CA63F";
shapes = (
{
closed = 1;
nodes = (
(44,0,o),
(83,2,o),
(124,2,cs),
(178,2,o),
(225,0,o),
(261,0,cs),
(264,0,o),
(264,12,o),
(261,12,cs),
(185,12,o),
(178,22,o),
(188,81,cs),
(269,542,ls),
(281,606,o),
(290,613,o),
(368,613,cs),
(372,613,o),
(372,625,o),
(368,625,cs),
(333,625,o),
(288,622,o),
(232,622,cs),
(189,622,o),
(152,625,o),
(123,625,cs),
(119,625,o),
(119,613,o),
(123,613,cs),
(173,613,o),
(182,601,o),
(172,544,cs),
(90,81,ls),
(80,23,o),
(69,12,o),
(15,12,cs),
(12,12,o),
(12,0,o),
(15,0,cs)
);
},
{
closed = 1;
nodes = (
(375,133,o),
(510,185,o),
(538,312,cs),
(565,433,o),
(473,499,o),
(325,499,cs),
(285,499,o),
(233,495,o),
(195,483,c),
(201,463,l),
(225,471,o),
(258,478,o),
(290,478,cs),
(406,478,o),
(446,388,o),
(427,292,cs),
(406,184,o),
(331,153,o),
(274,153,cs),
(264,153,o),
(254,154,o),
(244,157,cs),
(240,158,o),
(235,139,o),
(239,138,cs),
(251,135,o),
(264,133,o),
(280,133,cs)
);
}
);
width = 546;
}
);
metricLeft = F;
unicode = 222;
},
{
glyphname = Q;
kernLeft = O;
kernRight = O;
layers = (
{
anchors = (
{
name = bottom;
pos = (291,0);
},
{
name = top;
pos = (401,625);
}
);
layerId = "2373B5BC-5F65-41C1-A640-5B37284EFBFD";
shapes = (
{
closed = 1;
nodes = (
(620,-195,o),
(650,-191,o),
(681,-184,cs),
(684,-182,o),
(681,-172,o),
(677,-173,cs),
(668,-175,o),
(653,-177,o),
(641,-177,cs),
(567,-177,o),
(473,-91,o),
(423,29,c),
(366,9,l),
(427,-124,o),
(522,-195,o),
(595,-195,cs)
);
},
{
ref = O;
}
);
width = 650;
},
{
anchors = (
{
name = bottom;
pos = (294,0);
},
{
name = top;
pos = (404,625);
}
);
layerId = "A1717557-2B81-457C-987E-D55DA76CA63F";
shapes = (
{
closed = 1;
nodes = (
(648,-200,o),
(675,-194,o),
(701,-185,cs),
(704,-184,o),
(701,-173,o),
(697,-174,cs),
(687,-177,o),
(677,-178,o),
(665,-178,cs),
(611,-178,o),
(501,-84,o),
(455,48,c),
(363,1,l),
(433,-130,o),
(530,-200,o),
(627,-200,cs)
);
},
{
ref = O;
}
);
width = 655;
}
);
unicode = 81;
},
{
glyphname = R;
kernRight = R;
layers = (
{
anchors = (
{
name = bottom;
pos = (299,0);
},
{
name = top;
pos = (312,625);
}
);
layerId = "2373B5BC-5F65-41C1-A640-5B37284EFBFD";
shapes = (
{
closed = 1;
nodes = (
(42,0,o),
(81,2,o),
(119,2,cs),
(160,2,o),
(194,0,o),
(223,0,cs),
(227,0,o),
(227,12,o),
(222,12,cs),
(153,12,o),
(146,23,o),
(157,81,cs),
(200,320,l),
(211,319,o),
(227,318,o),
(237,318,cs),
(342,318,o),
(441,404,o),
(458,503,cs),
(473,580,o),
(430,628,o),
(335,628,cs),
(308,628,o),
(258,622,o),
(228,622,cs),
(189,622,o),
(153,625,o),
(125,625,cs),
(120,625,o),
(120,613,o),
(125,613,cs),
(194,613,o),
(202,601,o),
(192,544,cs),
(110,81,ls),
(99,23,o),
(82,12,o),
(14,12,cs),
(9,12,o),
(9,0,o),
(14,0,cs)
);
},
{
closed = 1;
nodes = (
(501,0,o),
(532,0,o),
(582,0,cs),
(587,0,o),
(587,12,o),
(582,12,cs),
(506,12,o),
(448,97,o),
(337,349,c),
(297,333,l),
(382,127,o),
(453,0,o),
(485,0,cs)
);
},
{
closed = 1;
nodes = (
(241,340,o),
(220,342,o),
(204,344,c),
(239,542,ls),
(251,613,o),
(267,615,o),
(311,615,cs),
(378,615,o),
(421,577,o),
(402,469,cs),
(386,378,o),
(344,340,o),
(256,340,cs)
);
}
);
width = 608;
},
{
anchors = (
{
name = bottom;
pos = (342,0);
},
{
name = top;
pos = (343,625);
}
);
layerId = "A1717557-2B81-457C-987E-D55DA76CA63F";
shapes = (
{
closed = 1;
nodes = (
(50,0,o),
(92,2,o),
(136,2,cs),
(181,2,o),
(219,0,o),
(251,0,cs),
(255,0,o),
(255,12,o),
(250,12,cs),
(196,12,o),
(188,25,o),
(199,81,cs),
(241,318,l),
(244,317,o),
(249,316,o),
(253,316,cs),
(374,316,o),
(491,404,o),
(512,503,cs),
(529,580,o),
(476,628,o),
(351,628,cs),
(324,628,o),
(275,622,o),
(244,622,cs),
(201,622,o),
(161,625,o),
(130,625,cs),
(125,625,o),
(125,613,o),
(130,613,cs),
(185,613,o),
(193,601,o),
(182,544,cs),
(101,81,ls),
(90,25,o),
(77,12,o),
(19,12,cs),
(14,12,o),
(14,0,o),
(19,0,cs)
);
},
{
closed = 1;
nodes = (
(484,0,o),
(530,0,o),
(611,0,cs),
(615,0,o),
(615,12,o),
(611,12,cs),
(542,12,o),
(485,101,o),
(388,360,c),
(308,333,l),
(378,92,o),
(434,0,o),
(460,0,cs)
);
},
{
closed = 1;
nodes = (
(264,343,o),
(254,344,o),
(246,346,c),
(281,542,ls),
(292,605,o),
(298,607,o),
(342,607,cs),
(385,607,o),
(420,571,o),
(405,469,cs),
(391,378,o),
(352,343,o),
(273,343,cs)
);
}
);
width = 635;
}
);
metricLeft = "=B";
unicode = 82;
},
{
glyphname = S;
kernLeft = S;
layers = (
{
anchors = (
{
name = bottom;
pos = (211,0);
},
{
name = top;
pos = (318,625);
}
);
layerId = "2373B5BC-5F65-41C1-A640-5B37284EFBFD";
shapes = (
{
closed = 1;
nodes = (
(310,-12,o),
(389,65,o),
(405,157,cs),
(421,253,o),
(356,296,o),
(291,338,cs),
(229,379,o),
(168,419,o),
(184,504,cs),
(194,561,o),
(233,623,o),
(315,623,cs),
(406,623,o),
(422,547,o),
(422,489,cs),
(422,484,o),
(434,484,o),
(434,489,cs),
(446,595,ls),
(447,602,o),
(442,608,o),
(434,612,cs),
(396,629,o),
(361,636,o),
(329,636,cs),
(243,636,o),
(150,585,o),
(131,481,cs),
(115,387,o),
(175,346,o),
(237,304,cs),
(301,261,o),
(364,218,o),
(346,122,cs),
(330,32,o),
(264,2,o),
(205,2,cs),
(102,2,o),
(67,91,o),
(71,171,cs),
(71,177,o),
(60,177,o),
(60,171,cs),
(50,41,ls),
(50,32,o),
(50,26,o),
(56,22,cs),
(101,-4,o),
(139,-12,o),
(181,-12,cs)
);
}
);
width = 460;
},
{
anchors = (
{
name = bottom;
pos = (216,0);
},
{
name = top;
pos = (309,625);
}
);
layerId = "A1717557-2B81-457C-987E-D55DA76CA63F";
shapes = (
{
closed = 1;
nodes = (
(333,-12,o),
(416,64,o),
(434,160,cs),
(450,253,o),
(380,309,o),
(315,360,cs),
(256,407,o),
(199,447,o),
(213,526,cs),
(220,566,o),
(248,615,o),
(309,615,cs),
(368,615,o),
(418,558,o),
(439,465,cs),
(440,461,o),
(449,461,o),
(450,465,cs),
(465,595,ls),
(467,602,o),
(462,608,o),
(454,612,cs),
(412,629,o),
(372,636,o),
(336,636,cs),
(236,636,o),
(135,586,o),
(113,481,cs),
(96,392,o),
(159,344,o),
(222,296,cs),
(282,250,o),
(340,199,o),
(327,115,cs),
(318,51,o),
(277,12,o),
(219,12,cs),
(150,12,o),
(102,67,o),
(77,182,cs),
(76,188,o),
(65,188,o),
(65,182,cs),
(33,41,ls),
(30,32,o),
(33,26,o),
(39,22,cs),
(94,-4,o),
(142,-12,o),
(192,-12,cs)
);
}
);
width = 470;
}
);
unicode = 83;
},
{
glyphname = Saltillo;
kernLeft = quote;
kernRight = quote;
layers = (
{
layerId = "2373B5BC-5F65-41C1-A640-5B37284EFBFD";
shapes = (
{
closed = 1;
nodes = (
(173,591,o),
(151,420,o),
(132,289,c),
(131,285,o),
(142,285,o),
(143,289,c),
(173,421,o),
(210,595,o),
(256,725,cs),
(258,730,o),
(242,732,o),
(224,732,cs),
(201,732,o),
(175,729,o),
(175,725,cs)
);
}
);
width = 243;
},
{
background = {
shapes = (
{
closed = 1;
nodes = (
(124,589,o),
(130,422,o),
(135,289,c),
(135,286,o),
(145,286,o),
(145,289,c),
(151,422,o),
(158,589,o),
(181,721,c),
(183,725,o),
(162,729,o),
(142,729,c),
(122,729,o),
(102,725,o),
(102,721,c)
);
}
);
};
layerId = "A1717557-2B81-457C-987E-D55DA76CA63F";
shapes = (
{
closed = 1;
nodes = (
(171,596,o),
(153,432,o),
(135,297,c),
(134,292,o),
(157,291,o),
(158,295,c),
(187,431,o),
(232,602,o),
(290,725,cs),
(295,735,o),
(267,739,o),
(237,739,cs),
(200,739,o),
(159,733,o),
(160,725,cs)
);
}
);
width = 263;
}
);
unicode = 42891;
},
{
glyphname = Germandbls;
kernLeft = Germandbls;
layers = (
{
anchors = (
{
name = bottom;
pos = (258,0);
},
{
name = top;
pos = (368,625);
}
);
background = {
shapes = (
{
closed = 1;
nodes = (
(472,-12,o),
(540,100,o),
(556,189,cs),
(567,255,o),
(554,324,o),
(466,368,c),
(613,634,ls),
(615,636,o),
(612,639,o),
(608,639,cs),
(605,639,o),
(599,625,o),
(583,625,cs),
(575,625,o),
(511,634,o),
(434,634,cs),
(248,634,o),
(136,484,o),
(116,372,cs),
(65,81,ls),
(55,23,o),
(38,12,o),
(-27,12,cs),
(-31,12,o),
(-33,0,o),
(-29,0,cs),
(-1,0,o),
(33,1,o),
(72,1,cs),
(104,1,o),
(147,0,o),
(178,0,cs),
(182,0,o),
(184,12,o),
(181,12,cs),
(110,12,o),
(102,23,o),
(113,81,cs),
(168,394,ls),
(192,530,o),
(255,603,o),
(379,603,cs),
(440,603,o),
(514,583,o),
(554,566,c),
(427,338,ls),
(424,333,o),
(421,328,o),
(428,323,c),
(510,280,o),
(523,212,o),
(511,148,cs),
(497,64,o),
(444,8,o),
(388,8,cs),
(332,8,o),
(272,65,o),
(273,128,cs),
(273,135,o),
(263,132,o),
(263,126,cs),
(260,31,ls),
(259,24,o),
(259,16,o),
(264,12,cs),
(284,-4,o),
(310,-12,o),
(345,-12,cs)
);
}
);
};
layerId = "2373B5BC-5F65-41C1-A640-5B37284EFBFD";
shapes = (
{
closed = 1;
nodes = (
(471,-12,o),
(526,88,o),
(541,171,cs),
(554,242,o),
(536,319,o),
(436,368,c),
(603,634,ls),
(604,636,o),
(602,639,o),
(598,639,cs),
(595,639,o),
(589,625,o),
(573,625,cs),
(565,625,o),
(501,634,o),
(424,634,cs),
(244,634,o),
(136,484,o),
(116,372,cs),
(65,81,ls),
(55,23,o),
(37,12,o),
(-27,12,cs),
(-31,12,o),
(-31,0,o),
(-27,0,cs),
(1,0,o),
(33,1,o),
(72,1,cs),
(104,1,o),
(150,0,o),
(181,0,cs),
(184,0,o),
(184,12,o),
(181,12,cs),
(110,12,o),
(103,23,o),
(113,81,cs),
(168,394,ls),
(192,530,o),
(251,603,o),
(369,603,cs),
(430,603,o),
(501,584,o),
(541,567,c),
(397,338,ls),
(394,333,o),
(391,328,o),
(398,323,c),
(495,275,o),
(510,191,o),
(496,127,cs),
(482,61,o),
(443,8,o),
(387,8,cs),
(332,8,o),
(263,60,o),
(263,127,cs),
(263,132,o),
(253,131,o),
(253,126,cs),
(250,31,ls),
(250,22,o),
(250,15,o),
(254,12,cs),
(277,-6,o),
(316,-12,o),
(346,-12,cs)
);
}
);
width = 582;
},
{
anchors = (
{
name = bottom;
pos = (283,0);
},
{
name = top;
pos = (393,625);
}
);
background = {
shapes = (
{
closed = 1;
nodes = (
(522,-12,o),
(583,104,o),
(597,188,cs),
(611,271,o),
(576,324,o),
(502,403,c),
(652,633,ls),
(654,637,o),
(645,643,o),
(642,638,cs),
(634,626,o),
(633,625,o),
(621,625,cs),
(612,625,o),
(550,636,o),
(471,636,cs),
(274,636,o),
(138,490,o),
(115,359,cs),
(66,81,ls),
(56,23,o),
(37,12,o),
(-10,12,cs),
(-13,12,o),
(-15,0,o),
(-12,0,cs),
(21,0,o),
(57,1,o),
(101,1,cs),
(132,1,o),
(175,0,o),
(207,0,cs),
(211,0,o),
(213,12,o),
(209,12,cs),
(161,12,o),
(156,23,o),
(166,81,cs),
(225,414,ls),
(242,512,o),
(259,588,o),
(369,588,cs),
(422,588,o),
(491,570,o),
(550,519,c),
(418,317,ls),
(414,310,o),
(417,306,o),
(420,303,cs),
(500,222,o),
(534,180,o),
(523,110,cs),
(514,54,o),
(482,23,o),
(431,23,cs),
(374,23,o),
(322,61,o),
(317,166,cs),
(317,169,o),
(310,168,o),
(309,164,cs),
(275,29,ls),
(271,15,o),
(277,14,o),
(282,11,cs),
(315,-10,o),
(355,-12,o),
(374,-12,cs)
);
}
);
};
layerId = "A1717557-2B81-457C-987E-D55DA76CA63F";
shapes = (
{
closed = 1;
nodes = (
(512,-12,o),
(573,104,o),
(587,188,cs),
(601,271,o),
(566,324,o),
(492,403,c),
(642,633,ls),
(644,637,o),
(635,643,o),
(632,638,cs),
(624,626,o),
(623,625,o),
(611,625,cs),
(602,625,o),
(540,636,o),
(461,636,cs),
(270,636,o),
(138,490,o),
(115,359,cs),
(66,81,ls),
(56,23,o),
(37,12,o),
(-10,12,cs),
(-13,12,o),
(-13,0,o),
(-10,0,cs),
(23,0,o),
(57,1,o),
(101,1,cs),
(133,1,o),
(176,0,o),
(209,0,cs),
(213,0,o),
(213,12,o),
(209,12,cs),
(161,12,o),
(156,23,o),
(166,81,cs),
(225,414,ls),
(242,512,o),
(259,588,o),
(369,588,cs),
(412,588,o),
(481,570,o),
(540,519,c),
(408,317,ls),
(404,310,o),
(407,306,o),
(410,303,cs),
(490,222,o),
(524,180,o),
(513,110,cs),
(504,54,o),
(472,23,o),
(421,23,cs),
(368,23,o),
(323,55,o),
(318,153,cs),
(318,156,o),
(307,158,o),
(306,154,cs),
(275,29,ls),
(271,15,o),
(277,14,o),
(282,11,cs),
(315,-10,o),
(347,-12,o),
(364,-12,cs)
);
}
);
width = 616;
},
{
anchors = (
{
name = bottom;
pos = (282,0);
},
{
name = top;
pos = (392,625);
}
);
associatedMasterId = "2373B5BC-5F65-41C1-A640-5B37284EFBFD";
background = {
shapes = (
{
closed = 1;
nodes = (
(494,-12,o),
(564,80,o),
(579,166,cs),
(592,240,o),
(551,297,o),
(436,385,c),
(626,625,ls),
(628,628,o),
(620,634,o),
(616,629,cs),
(581,588,o),
(581,585,o),
(543,601,cs),
(510,615,o),
(450,636,o),
(399,636,cs),
(258,636,o),
(159,504,o),
(137,382,cs),
(83,81,ls),
(73,23,o),
(55,12,o),
(-13,12,cs),
(-18,12,o),
(-18,0,o),
(-13,0,cs),
(18,0,o),
(53,1,o),
(94,1,cs),
(129,1,o),
(172,0,o),
(206,0,cs),
(211,0,o),
(211,12,o),
(206,12,cs),
(131,12,o),
(122,23,o),
(132,81,cs),
(189,404,ls),
(218,559,o),
(267,605,o),
(349,605,cs),
(400,605,o),
(468,585,o),
(538,540,c),
(398,361,ls),
(393,356,o),
(393,351,o),
(399,346,cs),
(504,258,o),
(545,196,o),
(532,124,cs),
(519,48,o),
(473,8,o),
(413,8,cs),
(346,8,o),
(281,74,o),
(281,137,cs),
(281,143,o),
(269,143,o),
(269,136,cs),
(267,41,ls),
(267,32,o),
(265,26,o),
(271,22,cs),
(308,-5,o),
(339,-12,o),
(377,-12,cs)
);
}
);
};
layerId = "17914773-71BF-4C0C-9C6F-370623D39FD6";
name = "Jun 29 17, 23:20";
shapes = (
{
closed = 1;
nodes = (
(494,-12,o),
(564,80,o),
(579,166,cs),
(592,240,o),
(551,297,o),
(436,385,c),
(626,625,ls),
(628,628,o),
(620,634,o),
(616,629,cs),
(581,588,o),
(581,585,o),
(543,601,cs),
(510,615,o),
(450,636,o),
(399,636,cs),
(258,636,o),
(159,504,o),
(137,382,cs),
(83,81,ls),
(73,23,o),
(55,12,o),
(-13,12,cs),
(-18,12,o),
(-18,0,o),
(-13,0,cs),
(18,0,o),
(53,1,o),
(94,1,cs),
(129,1,o),
(172,0,o),
(206,0,cs),
(211,0,o),
(211,12,o),
(206,12,cs),
(131,12,o),
(122,23,o),
(132,81,cs),
(189,404,ls),
(218,559,o),
(267,605,o),
(349,605,cs),
(400,605,o),
(468,585,o),
(538,540,c),
(398,361,ls),
(393,356,o),
(393,351,o),
(399,346,cs),
(504,258,o),
(545,196,o),
(532,124,cs),
(519,48,o),
(473,8,o),
(413,8,cs),
(346,8,o),
(281,74,o),
(281,137,cs),
(281,143,o),
(269,143,o),
(269,136,cs),
(267,41,ls),
(267,32,o),
(265,26,o),
(271,22,cs),
(308,-5,o),
(339,-12,o),
(377,-12,cs)
);
}
);
width = 630;
},
{
anchors = (
{
name = bottom;
pos = (294,0);
},
{
name = top;
pos = (404,625);
}
);
associatedMasterId = "A1717557-2B81-457C-987E-D55DA76CA63F";
background = {
shapes = (
{
closed = 1;
nodes = (
(523,-12,o),
(607,71,o),
(623,166,cs),
(637,249,o),
(592,325,o),
(477,408,c),
(647,625,ls),
(649,628,o),
(641,634,o),
(637,629,cs),
(613,598,o),
(595,600,o),
(584,604,cs),
(533,620,o),
(481,636,o),
(422,636,cs),
(264,636,o),
(145,517,o),
(120,382,cs),
(67,81,ls),
(56,23,o),
(43,12,o),
(-15,12,cs),
(-20,12,o),
(-20,0,o),
(-15,0,cs),
(19,0,o),
(57,1,o),
(103,1,cs),
(138,1,o),
(181,0,o),
(215,0,cs),
(220,0,o),
(220,12,o),
(215,12,cs),
(166,12,o),
(157,23,o),
(167,81,cs),
(232,444,ls),
(251,557,o),
(273,588,o),
(332,588,cs),
(380,588,o),
(468,561,o),
(536,517,c),
(404,346,ls),
(399,340,o),
(399,336,o),
(405,331,cs),
(499,260,o),
(535,189,o),
(530,124,cs),
(526,78,o),
(504,19,o),
(456,19,cs),
(408,19,o),
(340,82,o),
(313,160,cs),
(311,166,o),
(302,166,o),
(302,159,cs),
(288,41,ls),
(287,32,o),
(287,26,o),
(292,22,cs),
(319,1,o),
(358,-12,o),
(405,-12,cs)
);
}
);
};
layerId = "33B8A77D-D01E-4D29-842A-51FD2D0D984C";
name = "Jun 29 17, 23:23";
shapes = (
{
closed = 1;
nodes = (
(523,-12,o),
(607,71,o),
(623,166,cs),
(637,249,o),
(592,325,o),
(477,408,c),
(647,625,ls),
(649,628,o),
(641,634,o),
(637,629,cs),
(613,598,o),
(595,600,o),
(584,604,cs),
(533,620,o),
(481,636,o),
(422,636,cs),
(264,636,o),
(145,517,o),
(120,382,cs),
(67,81,ls),
(56,23,o),
(43,12,o),
(-15,12,cs),
(-20,12,o),
(-20,0,o),
(-15,0,cs),
(19,0,o),
(57,1,o),
(103,1,cs),
(138,1,o),
(181,0,o),
(215,0,cs),
(220,0,o),
(220,12,o),
(215,12,cs),
(166,12,o),
(157,23,o),
(167,81,cs),
(232,444,ls),
(251,557,o),
(273,588,o),
(332,588,cs),
(380,588,o),
(468,561,o),
(536,517,c),
(404,346,ls),
(399,340,o),
(399,336,o),
(405,331,cs),
(499,260,o),
(535,189,o),
(530,124,cs),
(526,78,o),
(504,19,o),
(456,19,cs),
(408,19,o),
(340,82,o),
(313,160,cs),
(311,166,o),
(302,166,o),
(302,159,cs),
(288,41,ls),
(287,32,o),
(287,26,o),
(292,22,cs),
(319,1,o),
(358,-12,o),
(405,-12,cs)
);
}
);
width = 655;
},
{
anchors = (
{
name = bottom;
pos = (263,0);
},
{
name = top;
pos = (373,625);
}
);
associatedMasterId = "A1717557-2B81-457C-987E-D55DA76CA63F";
background = {
shapes = (
{
closed = 1;
nodes = (
(335,14,o),
(294,95,o),
(287,167,cs),
(287,175,o),
(279,180,o),
(278,174,cs),
(256,32,ls),
(253,19,o),
(257,15,o),
(263,14,cs),
(288,-5,o),
(313,-12,o),
(345,-12,cs),
(490,-12,o),
(556,110,o),
(569,188,cs),
(587,286,o),
(539,354,o),
(464,402,c),
(613,625,ls),
(616,628,o),
(605,639,o),
(603,637,cs),
(595,624,o),
(587,616,o),
(581,618,cs),
(538,627,o),
(481,636,o),
(436,636,cs),
(241,636,o),
(119,493,o),
(96,362,cs),
(47,84,ls),
(37,26,o),
(22,12,o),
(-30,12,cs),
(-34,12,o),
(-35,0,o),
(-31,0,cs),
(1,0,o),
(37,1,o),
(82,1,cs),
(113,1,o),
(156,0,o),
(188,0,cs),
(191,0,o),
(192,12,o),
(188,12,cs),
(140,12,o),
(136,20,o),
(146,78,cs),
(201,389,ls),
(226,535,o),
(257,588,o),
(339,588,cs),
(400,588,o),
(457,562,o),
(515,518,c),
(385,327,ls),
(381,321,o),
(380,313,o),
(387,311,cs),
(453,277,o),
(496,226,o),
(479,131,cs),
(465,51,o),
(426,14,o),
(389,14,cs)
);
}
);
};
layerId = "7FF912AC-927E-40AD-83B7-25AE094567EC";
name = "Jun 29 17, 23:23";
shapes = (
{
closed = 1;
nodes = (
(335,14,o),
(294,95,o),
(287,167,cs),
(287,175,o),
(279,180,o),
(278,174,cs),
(256,32,ls),
(253,19,o),
(257,15,o),
(263,14,cs),
(288,-5,o),
(313,-12,o),
(345,-12,cs),
(490,-12,o),
(556,110,o),
(569,188,cs),
(587,286,o),
(539,354,o),
(464,402,c),
(613,625,ls),
(616,628,o),
(605,639,o),
(603,637,cs),
(595,624,o),
(587,616,o),
(581,618,cs),
(538,627,o),
(481,636,o),
(436,636,cs),
(241,636,o),
(119,493,o),
(96,362,cs),
(47,84,ls),
(37,26,o),
(22,12,o),
(-30,12,cs),
(-34,12,o),
(-35,0,o),
(-31,0,cs),
(1,0,o),
(37,1,o),
(82,1,cs),
(113,1,o),
(156,0,o),
(188,0,cs),
(191,0,o),
(192,12,o),
(188,12,cs),
(140,12,o),
(136,20,o),
(146,78,cs),
(201,389,ls),
(226,535,o),
(257,588,o),
(339,588,cs),
(400,588,o),
(457,562,o),
(515,518,c),
(385,327,ls),
(381,321,o),
(380,313,o),
(387,311,cs),
(453,277,o),
(496,226,o),
(479,131,cs),
(465,51,o),
(426,14,o),
(389,14,cs)
);
}
);
width = 595;
},
{
anchors = (
{
name = bottom;
pos = (255,0);
},
{
name = top;
pos = (366,625);
}
);
associatedMasterId = "2373B5BC-5F65-41C1-A640-5B37284EFBFD";
background = {
shapes = (
{
closed = 1;
nodes = (
(329,8,o),
(267,74,o),
(267,135,cs),
(268,142,o),
(257,143,o),
(258,137,cs),
(255,42,ls),
(254,33,o),
(254,27,o),
(260,24,cs),
(293,-4,o),
(324,-12,o),
(354,-12,cs),
(471,-12,o),
(541,93,o),
(556,177,cs),
(569,252,o),
(544,327,o),
(447,378,c),
(611,624,ls),
(614,628,o),
(606,635,o),
(602,632,cs),
(593,617,o),
(588,614,o),
(575,616,cs),
(536,625,o),
(468,636,o),
(414,636,cs),
(250,636,o),
(138,505,o),
(116,383,cs),
(63,82,ls),
(53,24,o),
(35,12,o),
(-30,12,cs),
(-34,12,o),
(-35,0,o),
(-31,0,cs),
(-3,0,o),
(31,1,o),
(71,1,cs),
(102,1,o),
(145,0,o),
(177,0,cs),
(180,0,o),
(182,12,o),
(178,12,cs),
(107,12,o),
(99,22,o),
(109,80,cs),
(166,403,ls),
(193,555,o),
(258,605,o),
(360,605,cs),
(416,605,o),
(472,594,o),
(545,562,c),
(404,352,ls),
(401,347,o),
(399,340,o),
(406,337,c),
(501,287,o),
(525,211,o),
(512,141,cs),
(498,61,o),
(445,8,o),
(391,8,cs)
);
}
);
};
layerId = "B5E2F0D8-E9BA-48F5-8D3A-A924E76BE8FA";
name = "13 Dec 20, 00:55";
shapes = (
{
closed = 1;
nodes = (
(339,8,o),
(266,75,o),
(267,136,cs),
(267,141,o),
(258,141,o),
(258,137,cs),
(255,42,ls),
(255,33,o),
(255,27,o),
(260,24,cs),
(300,-4,o),
(337,-12,o),
(374,-12,cs),
(479,-12,o),
(542,81,o),
(556,157,cs),
(569,239,o),
(544,322,o),
(447,378,c),
(611,624,ls),
(614,628,o),
(604,634,o),
(602,631,cs),
(593,617,o),
(588,614,o),
(575,616,cs),
(536,625,o),
(468,636,o),
(414,636,cs),
(250,636,o),
(138,505,o),
(116,383,cs),
(63,82,ls),
(53,24,o),
(35,12,o),
(-30,12,cs),
(-34,12,o),
(-34,0,o),
(-30,0,cs),
(-2,0,o),
(31,1,o),
(71,1,cs),
(102,1,o),
(146,0,o),
(178,0,cs),
(182,0,o),
(182,12,o),
(178,12,cs),
(107,12,o),
(100,22,o),
(110,80,cs),
(167,403,ls),
(194,555,o),
(258,605,o),
(360,605,cs),
(417,605,o),
(476,595,o),
(551,569,c),
(404,352,ls),
(401,347,o),
(399,341,o),
(406,337,cs),
(501,281,o),
(525,199,o),
(512,121,cs),
(501,53,o),
(456,8,o),
(411,8,cs)
);
}
);
width = 602;
},
{
anchors = (
{
name = bottom;
pos = (263,0);
},
{
name = top;
pos = (373,625);
}
);
associatedMasterId = "A1717557-2B81-457C-987E-D55DA76CA63F";
background = {
shapes = (
{
closed = 1;
nodes = (
(335,14,o),
(294,95,o),
(287,167,cs),
(287,175,o),
(279,180,o),
(278,174,cs),
(256,32,ls),
(253,19,o),
(257,15,o),
(263,14,cs),
(288,-5,o),
(313,-12,o),
(345,-12,cs),
(490,-12,o),
(556,110,o),
(569,188,cs),
(587,286,o),
(539,354,o),
(464,402,c),
(613,625,ls),
(616,628,o),
(605,639,o),
(603,637,cs),
(595,624,o),
(587,616,o),
(581,618,cs),
(538,627,o),
(481,636,o),
(436,636,cs),
(241,636,o),
(119,493,o),
(96,362,cs),
(47,84,ls),
(37,26,o),
(22,12,o),
(-30,12,cs),
(-34,12,o),
(-35,0,o),
(-31,0,cs),
(1,0,o),
(37,1,o),
(82,1,cs),
(113,1,o),
(156,0,o),
(188,0,cs),
(191,0,o),
(192,12,o),
(188,12,cs),
(140,12,o),
(136,20,o),
(146,78,cs),
(201,389,ls),
(226,535,o),
(257,588,o),
(339,588,cs),
(400,588,o),
(457,562,o),
(515,518,c),
(385,327,ls),
(381,321,o),
(380,313,o),
(387,311,cs),
(453,277,o),
(496,226,o),
(479,131,cs),
(465,51,o),
(426,14,o),
(389,14,cs)
);
}
);
};
layerId = "2402BB12-C323-4F65-AD9E-AD625FC8DDF6";
name = "13 Dec 20, 00:57";
shapes = (
{
closed = 1;
nodes = (
(347,14,o),
(295,95,o),
(287,171,cs),
(287,176,o),
(278,177,o),
(277,172,cs),
(256,32,ls),
(254,19,o),
(258,17,o),
(263,14,cs),
(294,-5,o),
(327,-12,o),
(372,-12,cs),
(496,-12,o),
(554,91,o),
(569,168,cs),
(589,273,o),
(535,353,o),
(464,402,c),
(614,627,ls),
(617,631,o),
(605,639,o),
(602,635,cs),
(593,622,o),
(587,617,o),
(581,618,cs),
(538,627,o),
(481,636,o),
(436,636,cs),
(241,636,o),
(119,493,o),
(96,362,cs),
(47,84,ls),
(37,26,o),
(22,12,o),
(-30,12,cs),
(-34,12,o),
(-34,0,o),
(-30,0,cs),
(2,0,o),
(37,1,o),
(82,1,cs),
(113,1,o),
(156,0,o),
(188,0,cs),
(192,0,o),
(192,12,o),
(188,12,cs),
(140,12,o),
(136,20,o),
(146,78,cs),
(201,389,ls),
(227,535,o),
(257,588,o),
(339,588,cs),
(400,588,o),
(457,562,o),
(515,518,c),
(385,327,ls),
(381,321,o),
(380,315,o),
(387,311,cs),
(453,273,o),
(495,209,o),
(479,111,cs),
(468,45,o),
(439,14,o),
(404,14,cs)
);
}
);
width = 595;
},
{
anchors = (
{
name = bottom;
pos = (258,0);
},
{
name = top;
pos = (368,625);
}
);
associatedMasterId = "2373B5BC-5F65-41C1-A640-5B37284EFBFD";
background = {
shapes = (
{
closed = 1;
nodes = (
(472,-12,o),
(540,100,o),
(556,189,cs),
(567,255,o),
(554,324,o),
(466,368,c),
(613,634,ls),
(615,636,o),
(612,639,o),
(608,639,cs),
(605,639,o),
(599,625,o),
(583,625,cs),
(575,625,o),
(511,634,o),
(434,634,cs),
(248,634,o),
(136,484,o),
(116,372,cs),
(65,81,ls),
(55,23,o),
(38,12,o),
(-27,12,cs),
(-31,12,o),
(-33,0,o),
(-29,0,cs),
(-1,0,o),
(33,1,o),
(72,1,cs),
(104,1,o),
(147,0,o),
(178,0,cs),
(182,0,o),
(184,12,o),
(181,12,cs),
(110,12,o),
(102,23,o),
(113,81,cs),
(168,394,ls),
(192,530,o),
(255,603,o),
(379,603,cs),
(440,603,o),
(514,583,o),
(554,566,c),
(427,338,ls),
(424,333,o),
(421,328,o),
(428,323,c),
(510,280,o),
(523,212,o),
(511,148,cs),
(497,64,o),
(444,8,o),
(388,8,cs),
(332,8,o),
(272,65,o),
(273,128,cs),
(273,135,o),
(263,132,o),
(263,126,cs),
(260,31,ls),
(259,24,o),
(259,16,o),
(264,12,cs),
(284,-4,o),
(310,-12,o),
(345,-12,cs)
);
}
);
};
layerId = "E848DAC9-996D-448D-A53E-197752E7A18B";
name = "Jan 9 21, 00:04";
shapes = (
{
closed = 1;
nodes = (
(481,-12,o),
(536,88,o),
(551,171,cs),
(564,242,o),
(549,319,o),
(466,368,c),
(613,634,ls),
(614,636,o),
(612,639,o),
(608,639,cs),
(605,639,o),
(599,625,o),
(583,625,cs),
(575,625,o),
(511,634,o),
(434,634,cs),
(248,634,o),
(136,484,o),
(116,372,cs),
(65,81,ls),
(55,23,o),
(37,12,o),
(-27,12,cs),
(-31,12,o),
(-33,0,o),
(-29,0,cs),
(-1,0,o),
(33,1,o),
(72,1,cs),
(104,1,o),
(147,0,o),
(178,0,cs),
(182,0,o),
(184,12,o),
(181,12,cs),
(110,12,o),
(103,23,o),
(113,81,cs),
(168,394,ls),
(192,530,o),
(255,603,o),
(379,603,cs),
(440,603,o),
(514,583,o),
(554,566,c),
(427,338,ls),
(424,333,o),
(421,328,o),
(428,323,c),
(508,275,o),
(520,191,o),
(506,127,cs),
(492,61,o),
(453,8,o),
(397,8,cs),
(342,8,o),
(273,60,o),
(273,128,cs),
(273,137,o),
(263,132,o),
(263,126,cs),
(260,31,ls),
(260,22,o),
(260,15,o),
(264,12,cs),
(287,-6,o),
(326,-12,o),
(356,-12,cs)
);
}
);
width = 587;
},
{
anchors = (
{
name = bottom;
pos = (283,0);
},
{
name = top;
pos = (393,625);
}
);
associatedMasterId = "A1717557-2B81-457C-987E-D55DA76CA63F";
background = {
anchors = (
{
name = bottom;
pos = (283,0);
},
{
name = top;
pos = (393,625);
}
);
shapes = (
{
closed = 1;
nodes = (
(505,-12,o),
(576,115,o),
(591,199,cs),
(607,289,o),
(562,349,o),
(502,403,c),
(652,633,ls),
(654,637,o),
(643,641,o),
(642,638,cs),
(633,626,o),
(630,625,o),
(621,625,cs),
(612,625,o),
(550,636,o),
(471,636,cs),
(270,636,o),
(139,490,o),
(115,359,cs),
(66,81,ls),
(56,23,o),
(43,12,o),
(-10,12,cs),
(-13,12,o),
(-15,0,o),
(-12,0,cs),
(21,0,o),
(57,1,o),
(101,1,cs),
(132,1,o),
(175,0,o),
(207,0,cs),
(211,0,o),
(213,12,o),
(209,12,cs),
(161,12,o),
(156,23,o),
(166,81,cs),
(225,414,ls),
(241,507,o),
(256,588,o),
(369,588,cs),
(422,588,o),
(491,570,o),
(550,519,c),
(418,317,ls),
(413,310,o),
(414,307,o),
(420,303,cs),
(476,257,o),
(533,211,o),
(518,126,cs),
(507,62,o),
(471,23,o),
(417,23,cs),
(363,23,o),
(322,61,o),
(317,166,cs),
(317,169,o),
(310,168,o),
(309,164,cs),
(275,29,ls),
(272,16,o),
(273,17,o),
(282,11,cs),
(310,-7,o),
(338,-12,o),
(366,-12,cs)
);
}
);
};
layerId = "4BA8A1ED-5D35-4D21-9D12-FA1206EA79FF";
name = "24 Feb 21, 00:34";
shapes = (
{
closed = 1;
nodes = (
(522,-12,o),
(583,104,o),
(597,188,cs),
(611,271,o),
(576,324,o),
(502,403,c),
(652,633,ls),
(654,637,o),
(645,643,o),
(642,638,cs),
(634,626,o),
(633,625,o),
(621,625,cs),
(612,625,o),
(550,636,o),
(471,636,cs),
(274,636,o),
(138,490,o),
(115,359,cs),
(66,81,ls),
(56,23,o),
(37,12,o),
(-10,12,cs),
(-13,12,o),
(-15,0,o),
(-12,0,cs),
(21,0,o),
(57,1,o),
(101,1,cs),
(132,1,o),
(175,0,o),
(207,0,cs),
(211,0,o),
(213,12,o),
(209,12,cs),
(161,12,o),
(156,23,o),
(166,81,cs),
(225,414,ls),
(242,512,o),
(259,588,o),
(369,588,cs),
(422,588,o),
(491,570,o),
(550,519,c),
(418,317,ls),
(414,310,o),
(417,306,o),
(420,303,cs),
(500,222,o),
(534,180,o),
(523,110,cs),
(514,54,o),
(482,23,o),
(431,23,cs),
(374,23,o),
(322,61,o),
(317,166,cs),
(317,169,o),
(310,168,o),
(309,164,cs),
(275,29,ls),
(271,15,o),
(277,14,o),
(282,11,cs),
(315,-10,o),
(355,-12,o),
(374,-12,cs)
);
}
);
width = 626;
}
);
unicode = 7838;
},
{
glyphname = T;
kernLeft = T;
kernRight = T;
layers = (
{
anchors = (
{
name = bottom;
pos = (246,0);
},
{
name = center;
pos = (275,312);
},
{
name = top;
pos = (353,625);
}
);
layerId = "2373B5BC-5F65-41C1-A640-5B37284EFBFD";
shapes = (
{
closed = 1;
nodes = (
(175,0,o),
(211,2,o),
(248,2,cs),
(289,2,o),
(322,0,o),
(349,0,cs),
(352,0,o),
(352,12,o),
(349,12,cs),
(283,12,o),
(274,23,o),
(284,81,cs),
(365,542,ls),
(374,595,o),
(385,609,o),
(441,609,cs),
(468,609,ls),
(558,609,o),
(575,577,o),
(557,473,cs),
(556,468,o),
(567,467,o),
(568,471,cs),
(573,502,o),
(596,611,o),
(607,648,cs),
(608,653,o),
(598,654,o),
(596,650,cs),
(587,629,o),
(567,625,o),
(530,625,cs),
(485,625,o),
(434,622,o),
(354,622,cs),
(291,622,o),
(220,623,o),
(171,625,cs),
(156,625,o),
(129,626,o),
(132,646,cs),
(133,650,o),
(122,651,o),
(120,647,cs),
(112,604,o),
(88,504,o),
(77,471,cs),
(76,468,o),
(88,465,o),
(89,469,cs),
(119,575,o),
(151,609,o),
(235,609,cs),
(262,609,ls),
(319,609,o),
(327,598,o),
(318,544,cs),
(236,81,ls),
(226,23,o),
(213,12,o),
(149,12,cs),
(145,12,o),
(145,0,o),
(149,0,cs)
);
}
);
width = 553;
},
{
anchors = (
{
name = bottom;
pos = (246,0);
},
{
name = center;
pos = (275,312);
},
{
name = top;
pos = (353,625);
}
);
layerId = "A1717557-2B81-457C-987E-D55DA76CA63F";
shapes = (
{
closed = 1;
nodes = (
(150,0,o),
(198,2,o),
(248,2,cs),
(303,2,o),
(347,0,o),
(384,0,cs),
(387,0,o),
(387,12,o),
(384,12,cs),
(309,12,o),
(299,23,o),
(310,81,cs),
(391,542,ls),
(399,589,o),
(404,602,o),
(440,602,cs),
(451,602,ls),
(522,602,o),
(567,532,o),
(552,449,cs),
(551,444,o),
(563,443,o),
(564,448,cs),
(568,482,o),
(595,606,o),
(607,648,cs),
(608,653,o),
(598,654,o),
(596,650,cs),
(587,629,o),
(567,625,o),
(530,625,cs),
(485,625,o),
(434,622,o),
(354,622,cs),
(291,622,o),
(220,623,o),
(171,625,cs),
(156,625,o),
(129,626,o),
(132,646,cs),
(133,650,o),
(122,651,o),
(120,647,cs),
(111,598,o),
(84,485,o),
(73,448,cs),
(71,444,o),
(83,442,o),
(84,446,cs),
(109,531,o),
(185,602,o),
(249,602,cs),
(261,602,ls),
(294,602,o),
(301,591,o),
(292,544,cs),
(211,81,ls),
(200,23,o),
(185,12,o),
(113,12,cs),
(110,12,o),
(110,0,o),
(113,0,cs)
);
}
);
width = 553;
}
);
unicode = 84;
},
{
glyphname = Tbar;
kernLeft = T;
kernRight = T;
layers = (
{
layerId = "2373B5BC-5F65-41C1-A640-5B37284EFBFD";
shapes = (
{
closed = 1;
nodes = (
(433,313,ls),
(439,313,o),
(439,332,o),
(433,332,cs),
(175,332,ls),
(170,332,o),
(170,313,o),
(175,313,cs)
);
},
{
ref = T;
}
);
width = 553;
},
{
layerId = "A1717557-2B81-457C-987E-D55DA76CA63F";
shapes = (
{
closed = 1;
nodes = (
(441,309,ls),
(447,309,o),
(447,337,o),
(441,337,cs),
(160,337,ls),
(154,337,o),
(154,309,o),
(160,309,cs)
);
},
{
ref = T;
}
);
width = 553;
}
);
metricLeft = T;
metricRight = T;
unicode = 358;
},
{
glyphname = U;
kernLeft = U;
kernRight = U.ss02;
layers = (
{
anchors = (
{
name = bottom;
pos = (275,0);
},
{
name = ogonek;
pos = (361,13);
},
{
name = top;
pos = (402,625);
},
{
name = topright;
pos = (670,625);
}
);
layerId = "2373B5BC-5F65-41C1-A640-5B37284EFBFD";
shapes = (
{
closed = 1;
nodes = (
(512,234,ls),
(489,99,o),
(407,16,o),
(296,16,cs),
(186,16,o),
(126,97,o),
(154,258,cs),
(205,540,ls),
(215,598,o),
(229,613,o),
(298,613,cs),
(303,613,o),
(303,625,o),
(298,625,cs),
(273,625,o),
(236,622,o),
(194,622,cs),
(156,622,o),
(120,625,o),
(91,625,cs),
(87,625,o),
(87,613,o),
(91,613,cs),
(158,613,o),
(168,602,o),
(158,545,cs),
(102,226,ls),
(76,80,o),
(142,-13,o),
(275,-13,cs),
(404,-13,o),
(504,75,o),
(532,233,cs),
(582,519,ls),
(594,582,o),
(621,613,o),
(671,613,cs),
(676,613,o),
(676,625,o),
(671,625,cs),
(649,625,o),
(620,622,o),
(591,622,cs),
(558,622,o),
(531,625,o),
(504,625,cs),
(499,625,o),
(499,613,o),
(504,613,cs),
(556,613,o),
(574,585,o),
(564,522,cs)
);
}
);
width = 618;
},
{
anchors = (
{
name = bottom;
pos = (276,0);
},
{
name = ogonek;
pos = (371,12);
},
{
name = top;
pos = (413,625);
},
{
name = topright;
pos = (673,625);
}
);
layerId = "A1717557-2B81-457C-987E-D55DA76CA63F";
shapes = (
{
closed = 1;
nodes = (
(505,198,ls),
(487,89,o),
(415,23,o),
(313,23,cs),
(216,23,o),
(164,83,o),
(189,229,cs),
(244,538,ls),
(254,595,o),
(267,613,o),
(323,613,cs),
(325,613,o),
(326,625,o),
(323,625,cs),
(294,625,o),
(254,622,o),
(207,622,cs),
(165,622,o),
(126,625,o),
(94,625,cs),
(92,625,o),
(90,613,o),
(95,613,cs),
(147,613,o),
(156,605,o),
(146,547,cs),
(84,201,ls),
(61,68,o),
(142,-14,o),
(277,-14,cs),
(408,-14,o),
(512,64,o),
(535,192,cs),
(588,494,ls),
(600,565,o),
(636,613,o),
(684,613,cs),
(687,613,o),
(689,625,o),
(684,625,cs),
(660,625,o),
(627,622,o),
(594,622,cs),
(557,622,o),
(526,625,o),
(496,625,cs),
(494,625,o),
(492,613,o),
(496,613,cs),
(547,613,o),
(571,572,o),
(559,501,cs)
);
}
);
width = 620;
}
);
unicode = 85;
},
{
glyphname = Ubar;
kernLeft = U;
kernRight = U.ss02;
layers = (
{
layerId = "2373B5BC-5F65-41C1-A640-5B37284EFBFD";
shapes = (
{
closed = 1;
nodes = (
(595,302,ls),
(600,302,o),
(600,320,o),
(595,320,cs),
(63,320,ls),
(57,320,o),
(57,302,o),
(63,302,cs)
);
},
{
ref = U;
}
);
width = 618;
},
{
layerId = "A1717557-2B81-457C-987E-D55DA76CA63F";
shapes = (
{
closed = 1;
nodes = (
(601,297,ls),
(607,297,o),
(607,325,o),
(601,325,cs),
(59,325,ls),
(53,325,o),
(53,297,o),
(59,297,cs)
);
},
{
ref = U;
}
);
width = 620;
}
);
unicode = 580;
},
{
color = 9;
glyphname = Uhorn;
kernLeft = U;
kernRight = U.ss02;
layers = (
{
anchors = (
{
name = bottom;
pos = (258,0);
},
{
name = top;
pos = (402,625);
}
);
layerId = "2373B5BC-5F65-41C1-A640-5B37284EFBFD";
shapes = (
{
closed = 1;
nodes = (
(595,593,o),
(626,608,o),
(644,614,cs),
(687,633,o),
(729,663,o),
(736,704,cs),
(740,730,o),
(733,753,o),
(710,753,cs),
(695,753,o),
(675,742,o),
(671,720,cs),
(667,697,o),
(683,698,o),
(678,673,cs),
(671,635,o),
(646,622,o),
(589,622,cs),
(557,622,o),
(530,625,o),
(503,625,cs),
(501,625,o),
(498,613,o),
(503,613,cs),
(554,613,o),
(573,585,o),
(563,522,cs),
(511,234,ls),
(488,99,o),
(406,16,o),
(294,16,cs),
(185,16,o),
(125,97,o),
(153,258,cs),
(204,540,ls),
(214,598,o),
(228,613,o),
(297,613,cs),
(299,613,o),
(302,625,o),
(297,625,cs),
(271,625,o),
(235,622,o),
(193,622,cs),
(154,622,o),
(119,625,o),
(90,625,cs),
(88,625,o),
(85,613,o),
(90,613,cs),
(157,613,o),
(167,602,o),
(157,545,cs),
(101,226,ls),
(75,80,o),
(140,-13,o),
(274,-13,cs),
(402,-13,o),
(503,75,o),
(531,233,cs),
(581,519,ls)
);
}
);
width = 616;
},
{
anchors = (
{
name = bottom;
pos = (258,0);
},
{
name = top;
pos = (411,625);
}
);
layerId = "A1717557-2B81-457C-987E-D55DA76CA63F";
shapes = (
{
closed = 1;
nodes = (
(604,578,o),
(630,595,o),
(662,609,cs),
(701,626,o),
(759,648,o),
(770,705,cs),
(775,737,o),
(764,766,o),
(732,766,cs),
(711,766,o),
(688,753,o),
(682,724,cs),
(677,697,o),
(694,685,o),
(692,665,cs),
(690,634,o),
(648,622,o),
(594,622,cs),
(557,622,o),
(526,625,o),
(496,625,cs),
(494,625,o),
(492,613,o),
(496,613,cs),
(547,613,o),
(571,572,o),
(559,501,cs),
(505,198,ls),
(487,89,o),
(416,23,o),
(311,23,cs),
(218,23,o),
(164,83,o),
(189,229,cs),
(244,538,ls),
(254,595,o),
(267,613,o),
(323,613,cs),
(325,613,o),
(326,625,o),
(323,625,cs),
(294,625,o),
(254,622,o),
(207,622,cs),
(165,622,o),
(126,625,o),
(94,625,cs),
(92,625,o),
(90,613,o),
(95,613,cs),
(147,613,o),
(156,605,o),
(146,547,cs),
(84,201,ls),
(61,68,o),
(142,-14,o),
(277,-14,cs),
(408,-14,o),
(512,64,o),
(535,192,cs),
(588,494,ls)
);
}
);
width = 621;
}
);
metricLeft = U.ss02;
unicode = 431;
},
{
glyphname = V;
kernLeft = V;
kernRight = V;
layers = (
{
anchors = (
{
name = bottom;
pos = (262,0);
},
{
name = top;
pos = (372,625);
}
);
layerId = "2373B5BC-5F65-41C1-A640-5B37284EFBFD";
shapes = (
{
closed = 1;
nodes = (
(261,-4,o),
(276,-5,o),
(280,1,cs),
(561,544,ls),
(591,601,o),
(621,613,o),
(655,613,cs),
(660,613,o),
(660,625,o),
(655,625,cs),
(626,625,o),
(611,622,o),
(579,622,cs),
(540,622,o),
(520,625,o),
(495,625,cs),
(491,625,o),
(491,613,o),
(495,613,cs),
(558,613,o),
(567,595,o),
(544,550,cs),
(271,25,l),
(302,56,l),
(194,552,ls),
(184,600,o),
(208,613,o),
(251,613,cs),
(256,613,o),
(256,625,o),
(251,625,cs),
(226,625,o),
(196,622,o),
(156,622,cs),
(133,622,o),
(106,625,o),
(84,625,cs),
(81,625,o),
(81,613,o),
(84,613,cs),
(119,613,o),
(136,594,o),
(146,542,cs),
(260,1,ls)
);
}
);
width = 591;
},
{
anchors = (
{
name = bottom;
pos = (265,0);
},
{
name = top;
pos = (375,625);
}
);
layerId = "A1717557-2B81-457C-987E-D55DA76CA63F";
shapes = (
{
closed = 1;
nodes = (
(262,-4,o),
(284,-6,o),
(288,1,cs),
(551,506,ls),
(600,601,o),
(636,613,o),
(675,613,cs),
(680,613,o),
(680,625,o),
(675,625,cs),
(641,625,o),
(623,622,o),
(587,622,cs),
(532,622,o),
(504,625,o),
(468,625,cs),
(464,625,o),
(464,613,o),
(468,613,cs),
(525,613,o),
(553,575,o),
(519,509,cs),
(268,15,l),
(338,113,l),
(233,552,ls),
(221,600,o),
(247,613,o),
(288,613,cs),
(292,613,o),
(292,625,o),
(288,625,cs),
(256,625,o),
(220,622,o),
(164,622,cs),
(135,622,o),
(98,625,o),
(69,625,cs),
(65,625,o),
(65,613,o),
(69,613,cs),
(103,613,o),
(117,594,o),
(130,542,cs),
(261,1,ls)
);
}
);
width = 599;
}
);
unicode = 86;
},
{
glyphname = W;
kernLeft = V;
kernRight = V;
layers = (
{
anchors = (
{
name = bottom;
pos = (377,0);
},
{
name = top;
pos = (491,625);
}
);
layerId = "2373B5BC-5F65-41C1-A640-5B37284EFBFD";
metricLeft = "=V";
metricRight = "=V";
shapes = (
{
closed = 1;
nodes = (
(490,-4,o),
(505,-4,o),
(508,1,cs),
(791,544,ls),
(820,601,o),
(849,613,o),
(884,613,cs),
(889,613,o),
(889,625,o),
(884,625,cs),
(855,625,o),
(840,622,o),
(808,622,cs),
(770,622,o),
(750,625,o),
(723,625,cs),
(718,625,o),
(718,613,o),
(723,613,cs),
(787,613,o),
(799,596,o),
(774,550,cs),
(497,11,l),
(530,56,l),
(423,552,ls),
(412,607,o),
(414,613,o),
(450,613,cs),
(456,613,o),
(456,625,o),
(450,625,cs),
(434,625,o),
(413,622,o),
(385,622,cs),
(361,622,o),
(335,625,o),
(312,625,cs),
(308,625,o),
(308,613,o),
(312,613,cs),
(349,613,o),
(363,594,o),
(374,542,cs),
(489,1,ls)
);
},
{
closed = 1;
nodes = (
(261,-4,o),
(276,-4,o),
(280,1,cs),
(447,323,l),
(437,339,l),
(269,11,l),
(302,56,l),
(194,552,ls),
(184,600,o),
(208,613,o),
(251,613,cs),
(256,613,o),
(256,625,o),
(251,625,cs),
(226,625,o),
(196,622,o),
(156,622,cs),
(133,622,o),
(106,625,o),
(84,625,cs),
(80,625,o),
(80,613,o),
(84,613,cs),
(119,613,o),
(136,594,o),
(146,542,cs),
(260,1,ls)
);
},
{
closed = 1;
nodes = (
(567,544,ls),
(596,601,o),
(627,613,o),
(661,613,cs),
(665,613,o),
(665,625,o),
(661,625,cs),
(632,625,o),
(616,622,o),
(585,622,cs),
(560,622,o),
(547,625,o),
(530,625,cs),
(525,625,o),
(525,613,o),
(530,613,cs),
(571,613,o),
(575,596,o),
(551,550,cs),
(443,339,l),
(453,323,l)
);
}
);
width = 821;
},
{
anchors = (
{
name = bottom;
pos = (382,0);
},
{
name = top;
pos = (488,625);
}
);
layerId = "A1717557-2B81-457C-987E-D55DA76CA63F";
metricLeft = "=V";
metricRight = "=V";
shapes = (
{
closed = 1;
nodes = (
(496,-4,o),
(518,-6,o),
(522,1,cs),
(785,506,ls),
(834,601,o),
(870,613,o),
(909,613,cs),
(913,613,o),
(913,625,o),
(909,625,cs),
(875,625,o),
(857,622,o),
(821,622,cs),
(775,622,o),
(752,625,o),
(722,625,cs),
(718,625,o),
(718,613,o),
(722,613,cs),
(771,613,o),
(782,566,o),
(753,509,cs),
(502,15,l),
(568,113,l),
(463,552,ls),
(450,607,o),
(454,613,o),
(475,613,cs),
(480,613,o),
(480,625,o),
(475,625,cs),
(455,625,o),
(433,622,o),
(398,622,cs),
(372,622,o),
(340,625,o),
(315,625,cs),
(311,625,o),
(311,613,o),
(315,613,cs),
(342,613,o),
(351,594,o),
(364,542,cs),
(495,1,ls)
);
},
{
closed = 1;
nodes = (
(262,-4,o),
(284,-6,o),
(288,1,cs),
(463,339,l),
(447,366,l),
(268,15,l),
(335,113,l),
(229,552,ls),
(218,599,o),
(241,613,o),
(264,613,cs),
(269,613,o),
(269,625,o),
(264,625,cs),
(239,625,o),
(209,622,o),
(164,622,cs),
(135,622,o),
(98,625,o),
(69,625,cs),
(65,625,o),
(65,613,o),
(69,613,cs),
(103,613,o),
(117,594,o),
(130,542,cs),
(261,1,ls)
);
},
{
closed = 1;
nodes = (
(568,506,ls),
(618,600,o),
(643,613,o),
(677,613,cs),
(682,613,o),
(682,625,o),
(677,625,cs),
(649,625,o),
(635,622,o),
(605,622,cs),
(571,622,o),
(554,625,o),
(532,625,cs),
(529,625,o),
(529,613,o),
(532,613,cs),
(572,613,o),
(573,580,o),
(537,509,cs),
(464,366,l),
(481,339,l)
);
}
);
width = 833;
}
);
metricLeft = "-V";
metricRight = V;
unicode = 87;
},
{
glyphname = X;
kernLeft = X;
kernRight = X;
layers = (
{
anchors = (
{
name = bottom;
pos = (256,0);
},
{
name = top;
pos = (366,625);
}
);
layerId = "2373B5BC-5F65-41C1-A640-5B37284EFBFD";
shapes = (
{
closed = 1;
nodes = (
(365,0,o),
(400,2,o),
(444,2,cs),
(475,2,o),
(503,0,o),
(526,0,cs),
(531,0,o),
(531,12,o),
(526,12,cs),
(477,12,o),
(451,30,o),
(432,83,cs),
(242,573,ls),
(230,602,o),
(242,613,o),
(289,613,cs),
(294,613,o),
(294,625,o),
(289,625,cs),
(260,625,o),
(221,622,o),
(173,622,cs),
(153,622,o),
(131,625,o),
(111,625,cs),
(106,625,o),
(106,613,o),
(111,613,cs),
(152,613,o),
(175,594,o),
(195,542,cs),
(385,51,ls),
(396,22,o),
(384,12,o),
(337,12,cs),
(332,12,o),
(331,0,o),
(337,0,cs)
);
},
{
closed = 1;
nodes = (
(18,0,o),
(30,2,o),
(58,2,cs),
(102,2,o),
(124,0,o),
(153,0,cs),
(158,0,o),
(158,12,o),
(153,12,cs),
(99,12,o),
(96,40,o),
(137,92,cs),
(299,299,l),
(289,309,l),
(117,92,ls),
(75,40,o),
(30,12,o),
(-8,12,cs),
(-13,12,o),
(-13,0,o),
(-8,0,cs)
);
},
{
closed = 1;
nodes = (
(485,523,ls),
(531,579,o),
(575,613,o),
(615,613,cs),
(621,613,o),
(621,625,o),
(615,625,cs),
(591,625,o),
(577,622,o),
(550,622,cs),
(505,622,o),
(484,625,o),
(455,625,cs),
(450,625,o),
(450,613,o),
(455,613,cs),
(508,613,o),
(511,582,o),
(465,524,cs),
(311,325,l),
(320,316,l)
);
}
);
width = 579;
},
{
anchors = (
{
name = bottom;
pos = (256,0);
},
{
name = top;
pos = (366,625);
}
);
layerId = "A1717557-2B81-457C-987E-D55DA76CA63F";
shapes = (
{
closed = 1;
nodes = (
(342,0,o),
(400,2,o),
(444,2,cs),
(480,2,o),
(511,0,o),
(538,0,cs),
(543,0,o),
(543,12,o),
(538,12,cs),
(496,12,o),
(475,32,o),
(455,83,cs),
(268,573,ls),
(257,600,o),
(280,613,o),
(301,613,cs),
(305,613,o),
(305,625,o),
(301,625,cs),
(271,625,o),
(221,622,o),
(173,622,cs),
(150,622,o),
(123,625,o),
(99,625,cs),
(95,625,o),
(95,613,o),
(99,613,cs),
(133,613,o),
(153,592,o),
(172,542,cs),
(359,51,ls),
(370,23,o),
(336,12,o),
(313,12,cs),
(309,12,o),
(308,0,o),
(313,0,cs)
);
},
{
closed = 1;
nodes = (
(-7,0,o),
(19,2,o),
(46,2,cs),
(90,2,o),
(146,0,o),
(175,0,cs),
(180,0,o),
(180,12,o),
(175,12,cs),
(123,12,o),
(92,34,o),
(146,103,cs),
(292,291,l),
(274,310,l),
(126,123,ls),
(64,44,o),
(8,12,o),
(-32,12,cs),
(-37,12,o),
(-37,0,o),
(-32,0,cs)
);
},
{
closed = 1;
nodes = (
(469,502,ls),
(530,580,o),
(587,613,o),
(627,613,cs),
(633,613,o),
(633,625,o),
(627,625,cs),
(602,625,o),
(577,622,o),
(550,622,cs),
(505,622,o),
(449,625,o),
(420,625,cs),
(415,625,o),
(415,613,o),
(420,613,cs),
(473,613,o),
(503,591,o),
(449,522,cs),
(303,333,l),
(322,315,l)
);
}
);
width = 580;
}
);
unicode = 88;
},
{
glyphname = Y;
kernLeft = Y;
kernRight = Y;
layers = (
{
anchors = (
{
name = bottom;
pos = (242,0);
},
{
name = top;
pos = (343,625);
},
{
name = topleft;
pos = (99,625);
}
);
layerId = "2373B5BC-5F65-41C1-A640-5B37284EFBFD";
shapes = (
{
closed = 1;
nodes = (
(469,523,ls),
(512,581,o),
(557,613,o),
(599,613,cs),
(604,613,o),
(604,625,o),
(599,625,cs),
(574,625,o),
(560,622,o),
(532,622,cs),
(489,622,o),
(468,625,o),
(437,625,cs),
(433,625,o),
(433,613,o),
(437,613,cs),
(488,613,o),
(491,582,o),
(449,524,cs),
(273,278,l),
(282,270,l)
);
},
{
closed = 1;
nodes = (
(161,0,o),
(195,2,o),
(235,2,cs),
(274,2,o),
(306,0,o),
(333,0,cs),
(338,0,o),
(338,12,o),
(333,12,cs),
(268,12,o),
(260,23,o),
(270,81,cs),
(312,319,l),
(263,310,l),
(223,81,ls),
(214,23,o),
(199,12,o),
(135,12,cs),
(130,12,o),
(130,0,o),
(135,0,cs)
);
},
{
closed = 1;
nodes = (
(312,317,l),
(206,573,ls),
(194,602,o),
(204,613,o),
(250,613,cs),
(255,613,o),
(257,625,o),
(253,625,cs),
(223,625,o),
(182,622,o),
(138,622,cs),
(118,622,o),
(95,625,o),
(76,625,cs),
(71,625,o),
(71,613,o),
(76,613,cs),
(117,613,o),
(137,593,o),
(159,542,cs),
(274,271,l)
);
}
);
width = 527;
},
{
anchors = (
{
name = bottom;
pos = (246,0);
},
{
name = top;
pos = (349,625);
},
{
name = topleft;
pos = (99,625);
}
);
layerId = "A1717557-2B81-457C-987E-D55DA76CA63F";
shapes = (
{
closed = 1;
nodes = (
(469,504,ls),
(519,579,o),
(563,613,o),
(605,613,cs),
(609,613,o),
(609,625,o),
(605,625,cs),
(580,625,o),
(566,622,o),
(538,622,cs),
(495,622,o),
(450,625,o),
(420,625,cs),
(415,625,o),
(415,613,o),
(420,613,cs),
(468,613,o),
(481,573,o),
(450,526,cs),
(294,282,l),
(311,265,l)
);
},
{
closed = 1;
nodes = (
(150,0,o),
(192,2,o),
(241,2,cs),
(289,2,o),
(330,0,o),
(363,0,cs),
(367,0,o),
(367,12,o),
(363,12,cs),
(299,12,o),
(291,23,o),
(302,81,cs),
(344,319,l),
(243,310,l),
(204,81,ls),
(194,23,o),
(180,12,o),
(117,12,cs),
(112,12,o),
(112,0,o),
(117,0,cs)
);
},
{
closed = 1;
nodes = (
(344,317,l),
(237,573,ls),
(225,604,o),
(237,613,o),
(282,613,cs),
(287,613,o),
(287,625,o),
(282,625,cs),
(257,625,o),
(205,622,o),
(167,622,cs),
(136,622,o),
(99,625,o),
(70,625,cs),
(65,625,o),
(65,613,o),
(70,613,cs),
(97,613,o),
(118,591,o),
(139,542,cs),
(254,271,l)
);
}
);
width = 535;
}
);
unicode = 89;
},
{
glyphname = Z;
kernRight = Z;
layers = (
{
anchors = (
{
name = bottom;
pos = (239,0);
},
{
name = top;
pos = (349,625);
}
);
layerId = "2373B5BC-5F65-41C1-A640-5B37284EFBFD";
shapes = (
{
closed = 1;
nodes = (
(461,-2,o),
(465,4,o),
(465,8,cs),
(499,129,ls),
(501,133,o),
(489,136,o),
(488,131,cs),
(461,49,o),
(422,19,o),
(338,19,cs),
(287,19,o),
(205,19,o),
(99,19,cs),
(92,19,o),
(91,20,o),
(97,27,cs),
(559,612,ls),
(563,616,o),
(560,625,o),
(554,625,cs),
(396,625,o),
(298,625,o),
(226,625,cs),
(180,625,o),
(174,628,o),
(181,651,cs),
(184,655,o),
(171,658,o),
(170,655,cs),
(108,504,ls),
(105,499,o),
(116,496,o),
(118,501,cs),
(167,606,o),
(167,608,o),
(487,608,cs),
(495,608,o),
(495,607,o),
(489,600,cs),
(22,13,ls),
(19,8,o),
(20,0,o),
(26,0,cs),
(159,0,o),
(323,0,o),
(456,-2,cs)
);
}
);
width = 545;
},
{
anchors = (
{
name = bottom;
pos = (280,0);
},
{
name = top;
pos = (357,625);
}
);
layerId = "A1717557-2B81-457C-987E-D55DA76CA63F";
shapes = (
{
closed = 1;
nodes = (
(478,-2,o),
(483,4,o),
(483,8,cs),
(522,152,ls),
(523,157,o),
(513,159,o),
(510,154,cs),
(442,51,o),
(366,19,o),
(233,19,cs),
(211,19,o),
(175,19,o),
(131,19,cs),
(124,19,o),
(123,20,o),
(129,27,cs),
(591,612,ls),
(594,616,o),
(592,625,o),
(586,625,cs),
(415,625,o),
(310,625,o),
(232,625,cs),
(186,625,o),
(180,628,o),
(187,651,cs),
(189,655,o),
(177,658,o),
(175,655,cs),
(102,469,ls),
(99,464,o),
(109,461,o),
(112,465,cs),
(193,584,o),
(254,608,o),
(467,608,cs),
(475,608,o),
(475,607,o),
(469,600,cs),
(2,13,ls),
(-1,8,o),
(0,0,o),
(6,0,cs),
(147,0,o),
(332,0,o),
(474,-2,cs)
);
}
);
width = 557;
}
);
unicode = 90;
},
{
glyphname = Q.cv01;
kernLeft = O;
kernRight = O;
layers = (
{
anchors = (
{
name = bottom;
pos = (291,0);
},
{
name = top;
pos = (401,625);
}
);
layerId = "2373B5BC-5F65-41C1-A640-5B37284EFBFD";
shapes = (
{
closed = 1;
nodes = (
(441,-12,o),
(592,122,o),
(626,313,cs),
(657,487,o),
(579,636,o),
(409,636,cs),
(249,636,o),
(104,502,o),
(71,313,cs),
(40,135,o),
(122,-12,o),
(285,-12,cs)
);
},
{
closed = 1;
nodes = (
(982,-241,o),
(1029,-220,o),
(1071,-184,c),
(1076,-180,o),
(1069,-172,o),
(1064,-175,c),
(1040,-192,o),
(1019,-201,o),
(967,-201,cs),
(724,-201,o),
(501,-71,o),
(324,-71,cs),
(295,-71,o),
(271,-76,o),
(250,-85,c),
(228,-104,l),
(467,51,l),
(460,56,l),
(157,-131,ls),
(152,-133,o),
(157,-144,o),
(163,-140,cs),
(202,-116,o),
(249,-109,o),
(283,-109,cs),
(448,-109,o),
(720,-241,o),
(916,-241,cs)
);
},
{
closed = 1;
nodes = (
(164,14,o),
(88,177,o),
(125,366,cs),
(154,516,o),
(242,612,o),
(368,612,cs),
(529,612,o),
(613,460,o),
(571,260,cs),
(537,99,o),
(446,14,o),
(327,14,cs)
);
}
);
width = 650;
},
{
anchors = (
{
name = bottom;
pos = (294,0);
},
{
name = top;
pos = (404,625);
}
);
layerId = "A1717557-2B81-457C-987E-D55DA76CA63F";
shapes = (
{
closed = 1;
nodes = (
(440,-12,o),
(601,111,o),
(637,313,cs),
(670,494,o),
(582,636,o),
(411,636,cs),
(240,636,o),
(92,499,o),
(60,313,cs),
(28,133,o),
(112,-12,o),
(281,-12,cs)
);
},
{
closed = 1;
nodes = (
(977,-264,o),
(1030,-235,o),
(1078,-184,c),
(1083,-180,o),
(1076,-172,o),
(1071,-175,c),
(1047,-192,o),
(1026,-201,o),
(974,-201,cs),
(731,-201,o),
(508,-71,o),
(331,-71,cs),
(302,-71,o),
(278,-76,o),
(257,-85,c),
(235,-104,l),
(473,51,l),
(463,63,l),
(160,-125,ls),
(156,-127,o),
(164,-144,o),
(170,-140,cs),
(192,-133,o),
(218,-132,o),
(236,-132,cs),
(409,-132,o),
(695,-264,o),
(899,-264,cs)
);
},
{
closed = 1;
nodes = (
(196,14,o),
(143,187,o),
(173,366,cs),
(199,518,o),
(277,612,o),
(372,612,cs),
(498,612,o),
(554,443,o),
(523,260,cs),
(497,109,o),
(419,14,o),
(324,14,cs)
);
}
);
width = 655;
}
);
metricLeft = O;
},
{
glyphname = Q.cv02;
kernLeft = O;
kernRight = O;
layers = (
{
anchors = (
{
name = bottom;
pos = (291,0);
},
{
name = top;
pos = (401,625);
}
);
layerId = "2373B5BC-5F65-41C1-A640-5B37284EFBFD";
shapes = (
{
closed = 1;
nodes = (
(1037,-187,o),
(1033,-178,o),
(1028,-179,cs),
(998,-186,o),
(965,-189,o),
(931,-189,cs),
(770,-189,o),
(574,-115,o),
(404,20,c),
(330,7,l),
(533,-145,o),
(705,-219,o),
(863,-219,cs),
(922,-219,o),
(978,-209,o),
(1033,-189,cs)
);
},
{
ref = O;
}
);
width = 650;
},
{
anchors = (
{
name = bottom;
pos = (294,0);
},
{
name = top;
pos = (404,625);
}
);
layerId = "A1717557-2B81-457C-987E-D55DA76CA63F";
shapes = (
{
closed = 1;
nodes = (
(1044,-187,o),
(1040,-178,o),
(1035,-179,cs),
(1005,-186,o),
(972,-191,o),
(937,-191,cs),
(780,-191,o),
(592,-113,o),
(425,28,c),
(303,-6,l),
(512,-157,o),
(699,-220,o),
(862,-220,cs),
(923,-220,o),
(981,-209,o),
(1040,-189,cs)
);
},
{
ref = O;
}
);
width = 655;
}
);
},
{
glyphname = Q.cv03;
kernLeft = O;
kernRight = O;
layers = (
{
anchors = (
{
name = bottom;
pos = (292,0);
},
{
name = top;
pos = (402,625);
}
);
layerId = "2373B5BC-5F65-41C1-A640-5B37284EFBFD";
shapes = (
{
closed = 1;
nodes = (
(330,-174,o),
(572,35,o),
(618,281,cs),
(650,458,o),
(566,636,o),
(384,636,cs),
(243,636,o),
(103,524,o),
(75,356,cs),
(47,184,o),
(143,39,o),
(287,39,cs),
(318,39,o),
(357,46,o),
(389,61,cs),
(394,63,o),
(389,73,o),
(385,70,cs),
(367,62,o),
(337,57,o),
(317,57,cs),
(186,57,o),
(95,208,o),
(123,389,cs),
(146,540,o),
(241,612,o),
(342,612,cs),
(510,612,o),
(600,435,o),
(568,256,cs),
(529,29,o),
(315,-159,o),
(153,-159,cs),
(108,-159,o),
(89,-145,o),
(89,-125,cs),
(89,-94,o),
(140,-85,o),
(193,-85,cs),
(227,-85,o),
(261,-89,o),
(296,-95,c),
(318,-54,l),
(295,-50,o),
(271,-48,o),
(246,-48,cs),
(149,-48,o),
(68,-67,o),
(68,-126,cs),
(68,-154,o),
(90,-174,o),
(149,-174,cs)
);
},
{
closed = 1;
nodes = (
(995,-241,o),
(1042,-220,o),
(1084,-184,c),
(1089,-180,o),
(1082,-172,o),
(1077,-175,c),
(1053,-192,o),
(1032,-201,o),
(980,-201,cs),
(750,-201,o),
(510,-81,o),
(318,-54,c),
(296,-95,l),
(499,-129,o),
(744,-241,o),
(929,-241,cs)
);
}
);
width = 653;
},
{
anchors = (
{
name = bottom;
pos = (303,0);
},
{
name = top;
pos = (413,625);
}
);
layerId = "A1717557-2B81-457C-987E-D55DA76CA63F";
shapes = (
{
closed = 1;
nodes = (
(352,-179,o),
(608,37,o),
(650,281,cs),
(683,467,o),
(591,636,o),
(399,636,cs),
(250,636,o),
(104,536,o),
(68,356,cs),
(30,168,o),
(130,39,o),
(299,39,cs),
(331,39,o),
(370,46,o),
(402,61,cs),
(407,63,o),
(400,78,o),
(395,76,cs),
(378,68,o),
(347,63,o),
(327,63,cs),
(201,63,o),
(137,218,o),
(167,389,cs),
(195,551,o),
(273,609,o),
(356,609,cs),
(502,609,o),
(575,428,o),
(550,256,cs),
(516,30,o),
(317,-159,o),
(164,-159,cs),
(120,-159,o),
(102,-145,o),
(102,-127,cs),
(102,-103,o),
(138,-97,o),
(171,-97,cs),
(205,-97,o),
(239,-101,o),
(274,-106,c),
(354,-54,l),
(331,-50,o),
(308,-48,o),
(244,-48,cs),
(170,-48,o),
(76,-68,o),
(76,-127,cs),
(76,-158,o),
(99,-179,o),
(161,-179,cs)
);
},
{
closed = 1;
nodes = (
(994,-253,o),
(1054,-223,o),
(1109,-172,c),
(1113,-168,o),
(1106,-160,o),
(1102,-164,c),
(1075,-181,o),
(1057,-189,o),
(999,-189,cs),
(784,-189,o),
(538,-78,o),
(354,-54,c),
(274,-106,l),
(475,-140,o),
(724,-253,o),
(903,-253,cs)
);
}
);
width = 674;
}
);
metricLeft = O;
},
{
glyphname = Q.cv04;
kernLeft = O;
kernRight = O;
layers = (
{
anchors = (
{
name = bottom;
pos = (291,0);
},
{
name = top;
pos = (401,625);
}
);
layerId = "2373B5BC-5F65-41C1-A640-5B37284EFBFD";
shapes = (
{
closed = 1;
nodes = (
(979,-264,o),
(1026,-243,o),
(1068,-207,cs),
(1073,-204,o),
(1065,-195,o),
(1061,-199,cs),
(1036,-215,o),
(1015,-225,o),
(964,-225,cs),
(720,-225,o),
(496,-71,o),
(320,-71,cs),
(240,-71,o),
(165,-104,o),
(119,-142,cs),
(116,-144,o),
(122,-154,o),
(125,-152,cs),
(166,-118,o),
(239,-109,o),
(280,-109,cs),
(444,-109,o),
(717,-264,o),
(912,-264,cs)
);
},
{
ref = O;
}
);
width = 650;
},
{
anchors = (
{
name = bottom;
pos = (294,0);
},
{
name = top;
pos = (404,625);
}
);
layerId = "A1717557-2B81-457C-987E-D55DA76CA63F";
shapes = (
{
closed = 1;
nodes = (
(935,-276,o),
(1005,-249,o),
(1065,-202,cs),
(1071,-198,o),
(1062,-187,o),
(1056,-192,cs),
(1021,-216,o),
(996,-225,o),
(947,-225,cs),
(735,-225,o),
(490,-71,o),
(320,-71,cs),
(240,-71,o),
(165,-104,o),
(119,-142,cs),
(116,-144,o),
(122,-154,o),
(125,-152,cs),
(153,-132,o),
(180,-123,o),
(211,-123,cs),
(378,-123,o),
(642,-276,o),
(848,-276,cs)
);
},
{
ref = O;
}
);
width = 655;
}
);
},
{
glyphname = Q.long;
kernLeft = O;
kernRight = O;
layers = (
{
anchors = (
{
name = bottom;
pos = (291,0);
},
{
name = top;
pos = (401,625);
}
);
layerId = "2373B5BC-5F65-41C1-A640-5B37284EFBFD";
shapes = (
{
closed = 1;
nodes = (
(441,-12,o),
(592,122,o),
(626,313,cs),
(657,487,o),
(579,636,o),
(409,636,cs),
(249,636,o),
(104,502,o),
(71,313,cs),
(40,135,o),
(122,-12,o),
(285,-12,cs)
);
},
{
closed = 1;
nodes = (
(982,-241,o),
(1029,-220,o),
(1071,-184,c),
(1076,-180,o),
(1069,-172,o),
(1064,-175,c),
(1040,-192,o),
(1019,-201,o),
(967,-201,cs),
(724,-201,o),
(501,-71,o),
(324,-71,cs),
(295,-71,o),
(271,-76,o),
(250,-85,c),
(228,-104,l),
(467,51,l),
(460,56,l),
(157,-131,ls),
(152,-133,o),
(157,-144,o),
(163,-140,cs),
(202,-116,o),
(249,-109,o),
(283,-109,cs),
(448,-109,o),
(720,-241,o),
(916,-241,cs)
);
},
{
closed = 1;
nodes = (
(164,14,o),
(88,177,o),
(125,366,cs),
(154,516,o),
(242,612,o),
(368,612,cs),
(529,612,o),
(613,460,o),
(571,260,cs),
(537,99,o),
(446,14,o),
(327,14,cs)
);
}
);
width = 650;
},
{
anchors = (
{
name = bottom;
pos = (294,0);
},
{
name = top;
pos = (404,625);
}
);
layerId = "A1717557-2B81-457C-987E-D55DA76CA63F";
shapes = (
{
closed = 1;
nodes = (
(440,-12,o),
(601,111,o),
(637,313,cs),
(670,494,o),
(582,636,o),
(411,636,cs),
(240,636,o),
(92,499,o),
(60,313,cs),
(28,133,o),
(112,-12,o),
(281,-12,cs)
);
},
{
closed = 1;
nodes = (
(977,-264,o),
(1030,-235,o),
(1078,-184,c),
(1083,-180,o),
(1076,-172,o),
(1071,-175,c),
(1047,-192,o),
(1026,-201,o),
(974,-201,cs),
(731,-201,o),
(508,-71,o),
(331,-71,cs),
(302,-71,o),
(278,-76,o),
(257,-85,c),
(235,-104,l),
(473,51,l),
(463,63,l),
(160,-125,ls),
(156,-127,o),
(164,-144,o),
(170,-140,cs),
(192,-133,o),
(218,-132,o),
(236,-132,cs),
(409,-132,o),
(695,-264,o),
(899,-264,cs)
);
},
{
closed = 1;
nodes = (
(196,14,o),
(143,187,o),
(173,366,cs),
(199,518,o),
(277,612,o),
(372,612,cs),
(498,612,o),
(554,443,o),
(523,260,cs),
(497,109,o),
(419,14,o),
(324,14,cs)
);
}
);
width = 655;
}
);
metricLeft = O;
},
{
glyphname = R.short;
kernRight = R.short;
layers = (
{
anchors = (
{
name = bottom;
pos = (280,0);
},
{
name = top;
pos = (306,625);
}
);
layerId = "2373B5BC-5F65-41C1-A640-5B37284EFBFD";
metricLeft = "=B";
shapes = (
{
closed = 1;
nodes = (
(42,0,o),
(80,2,o),
(119,2,cs),
(160,2,o),
(194,0,o),
(222,0,cs),
(227,0,o),
(227,12,o),
(222,12,cs),
(153,12,o),
(146,23,o),
(157,81,cs),
(199,320,l),
(211,319,o),
(226,318,o),
(237,318,cs),
(340,318,o),
(441,404,o),
(458,503,cs),
(473,580,o),
(430,628,o),
(335,628,cs),
(306,628,o),
(258,622,o),
(228,622,cs),
(189,622,o),
(153,625,o),
(125,625,cs),
(120,625,o),
(120,613,o),
(125,613,cs),
(194,613,o),
(201,601,o),
(191,544,cs),
(110,81,ls),
(99,23,o),
(82,12,o),
(14,12,cs),
(9,12,o),
(9,0,o),
(14,0,cs)
);
},
{
closed = 1;
nodes = (
(414,0,o),
(458,0,o),
(509,0,cs),
(513,0,o),
(513,12,o),
(509,12,cs),
(437,12,o),
(408,70,o),
(340,350,c),
(296,337,l),
(333,131,o),
(384,0,o),
(399,0,cs)
);
},
{
closed = 1;
nodes = (
(241,340,o),
(220,342,o),
(204,344,c),
(239,542,ls),
(251,613,o),
(267,615,o),
(311,615,cs),
(378,615,o),
(421,577,o),
(402,469,cs),
(386,378,o),
(344,340,o),
(256,340,cs)
);
}
);
width = 554;
},
{
anchors = (
{
name = bottom;
pos = (284,0);
},
{
name = top;
pos = (323,625);
}
);
layerId = "A1717557-2B81-457C-987E-D55DA76CA63F";
metricLeft = "=B";
shapes = (
{
closed = 1;
nodes = (
(47,0,o),
(84,2,o),
(124,2,cs),
(165,2,o),
(199,0,o),
(227,0,cs),
(232,0,o),
(232,12,o),
(227,12,cs),
(185,12,o),
(177,23,o),
(187,81,cs),
(229,320,l),
(240,319,o),
(255,318,o),
(265,318,cs),
(374,318,o),
(480,404,o),
(498,503,cs),
(513,581,o),
(462,628,o),
(339,628,cs),
(311,628,o),
(263,622,o),
(233,622,cs),
(194,622,o),
(158,625,o),
(130,625,cs),
(125,625,o),
(125,613,o),
(130,613,cs),
(172,613,o),
(180,601,o),
(170,544,cs),
(89,81,ls),
(78,23,o),
(68,12,o),
(19,12,cs),
(14,12,o),
(14,0,o),
(19,0,cs)
);
},
{
closed = 1;
nodes = (
(388,0,o),
(447,0,o),
(513,0,cs),
(518,0,o),
(518,12,o),
(513,12,cs),
(457,12,o),
(429,71,o),
(375,360,c),
(294,333,l),
(319,127,o),
(358,0,o),
(368,0,cs)
);
},
{
closed = 1;
nodes = (
(270,346,o),
(249,347,o),
(234,350,c),
(269,542,ls),
(280,601,o),
(288,608,o),
(327,608,cs),
(371,608,o),
(405,572,o),
(391,469,cs),
(379,382,o),
(349,346,o),
(284,346,cs)
);
}
);
width = 547;
}
);
metricLeft = H;
},
{
glyphname = U.ss01;
kernLeft = U;
layers = (
{
anchors = (
{
name = bottom;
pos = (312,0);
},
{
name = ogonek;
pos = (523,12);
},
{
name = top;
pos = (415,625);
},
{
name = topright;
pos = (745,625);
}
);
layerId = "2373B5BC-5F65-41C1-A640-5B37284EFBFD";
shapes = (
{
closed = 1;
nodes = (
(364,-12,o),
(437,28,o),
(537,125,c),
(530,133,l),
(436,43,o),
(373,13,o),
(304,13,cs),
(195,13,o),
(140,83,o),
(165,221,cs),
(221,542,ls),
(232,599,o),
(244,613,o),
(309,613,cs),
(312,613,o),
(312,625,o),
(309,625,cs),
(283,625,o),
(246,622,o),
(208,622,cs),
(171,622,o),
(137,625,o),
(111,625,cs),
(108,625,o),
(108,613,o),
(111,613,cs),
(175,613,o),
(185,601,o),
(174,544,cs),
(111,186,ls),
(90,64,o),
(161,-12,o),
(281,-12,cs)
);
},
{
closed = 1;
nodes = (
(516,0,o),
(529,1,o),
(545,1,cs),
(573,1,o),
(598,0,o),
(623,0,cs),
(628,0,o),
(628,12,o),
(623,12,cs),
(547,12,o),
(537,23,o),
(547,81,cs),
(629,544,ls),
(640,601,o),
(654,613,o),
(717,613,cs),
(720,613,o),
(720,625,o),
(717,625,cs),
(691,625,o),
(654,622,o),
(618,622,cs),
(580,622,o),
(545,625,o),
(519,625,cs),
(516,625,o),
(516,613,o),
(519,613,cs),
(585,613,o),
(592,599,o),
(581,542,cs),
(490,19,ls),
(488,2,o),
(489,0,o),
(502,0,cs)
);
}
);
width = 692;
},
{
anchors = (
{
name = bottom;
pos = (324,0);
},
{
name = ogonek;
pos = (505,12);
},
{
name = top;
pos = (421,625);
},
{
name = topright;
pos = (768,625);
}
);
layerId = "A1717557-2B81-457C-987E-D55DA76CA63F";
shapes = (
{
closed = 1;
nodes = (
(372,-12,o),
(446,26,o),
(545,123,c),
(532,135,l),
(443,53,o),
(386,25,o),
(323,25,cs),
(221,25,o),
(173,97,o),
(195,221,cs),
(253,542,ls),
(263,599,o),
(273,613,o),
(326,613,cs),
(330,613,o),
(330,625,o),
(326,625,cs),
(297,625,o),
(256,622,o),
(214,622,cs),
(172,622,o),
(135,625,o),
(105,625,cs),
(102,625,o),
(102,613,o),
(105,613,cs),
(156,613,o),
(165,601,o),
(154,544,cs),
(91,186,ls),
(70,64,o),
(152,-12,o),
(281,-12,cs)
);
},
{
closed = 1;
nodes = (
(504,0,o),
(525,1,o),
(551,1,cs),
(584,1,o),
(612,0,o),
(641,0,cs),
(646,0,o),
(646,12,o),
(641,12,cs),
(579,12,o),
(568,23,o),
(579,81,cs),
(661,544,ls),
(671,601,o),
(682,613,o),
(735,613,cs),
(738,613,o),
(738,625,o),
(735,625,cs),
(705,625,o),
(664,622,o),
(623,622,cs),
(581,622,o),
(543,625,o),
(513,625,cs),
(510,625,o),
(510,613,o),
(513,613,cs),
(564,613,o),
(572,599,o),
(561,542,cs),
(470,19,ls),
(468,2,o),
(469,0,o),
(482,0,cs)
);
}
);
width = 716;
}
);
},
{
color = 9;
glyphname = Uhorn.ss01;
kernLeft = U;
layers = (
{
anchors = (
{
name = bottom;
pos = (337,0);
},
{
name = top;
pos = (422,625);
}
);
layerId = "2373B5BC-5F65-41C1-A640-5B37284EFBFD";
shapes = (
{
closed = 1;
nodes = (
(364,-12,o),
(437,28,o),
(537,125,c),
(530,133,l),
(436,43,o),
(373,13,o),
(304,13,cs),
(195,13,o),
(140,83,o),
(165,221,cs),
(221,542,ls),
(232,599,o),
(244,613,o),
(309,613,cs),
(312,613,o),
(312,625,o),
(309,625,cs),
(283,625,o),
(246,622,o),
(208,622,cs),
(171,622,o),
(137,625,o),
(111,625,cs),
(108,625,o),
(108,613,o),
(111,613,cs),
(175,613,o),
(185,601,o),
(174,544,cs),
(111,186,ls),
(90,64,o),
(161,-12,o),
(281,-12,cs)
);
},
{
closed = 1;
nodes = (
(516,0,o),
(529,1,o),
(545,1,cs),
(573,1,o),
(598,0,o),
(623,0,cs),
(628,0,o),
(628,12,o),
(623,12,cs),
(547,12,o),
(537,23,o),
(547,81,cs),
(629,544,ls),
(637,588,o),
(641,604,o),
(674,613,cs),
(699,622,o),
(781,639,o),
(793,708,cs),
(796,730,o),
(787,753,o),
(765,753,cs),
(749,753,o),
(730,746,o),
(727,724,cs),
(725,703,o),
(739,691,o),
(736,674,cs),
(730,642,o),
(685,622,o),
(619,622,cs),
(578,622,o),
(542,625,o),
(513,625,cs),
(509,625,o),
(510,613,o),
(513,613,cs),
(582,613,o),
(592,599,o),
(581,542,cs),
(490,19,ls),
(488,2,o),
(489,0,o),
(502,0,cs)
);
}
);
width = 692;
},
{
anchors = (
{
name = bottom;
pos = (336,0);
},
{
name = top;
pos = (434,625);
}
);
layerId = "A1717557-2B81-457C-987E-D55DA76CA63F";
shapes = (
{
closed = 1;
nodes = (
(372,-12,o),
(446,26,o),
(545,123,c),
(532,135,l),
(443,53,o),
(386,25,o),
(323,25,cs),
(221,25,o),
(173,97,o),
(195,221,cs),
(253,542,ls),
(263,599,o),
(273,613,o),
(326,613,cs),
(330,613,o),
(330,625,o),
(326,625,cs),
(297,625,o),
(256,622,o),
(214,622,cs),
(172,622,o),
(135,625,o),
(105,625,cs),
(102,625,o),
(102,613,o),
(105,613,cs),
(156,613,o),
(165,601,o),
(154,544,cs),
(91,186,ls),
(70,64,o),
(152,-12,o),
(281,-12,cs)
);
},
{
closed = 1;
nodes = (
(504,0,o),
(525,1,o),
(551,1,cs),
(584,1,o),
(612,0,o),
(641,0,cs),
(646,0,o),
(646,12,o),
(641,12,cs),
(579,12,o),
(568,23,o),
(579,81,cs),
(661,544,ls),
(669,588,o),
(676,599,o),
(706,609,cs),
(759,628,o),
(821,647,o),
(832,706,cs),
(836,736,o),
(823,766,o),
(794,766,cs),
(771,766,o),
(749,756,o),
(743,722,cs),
(737,690,o),
(757,680,o),
(753,660,cs),
(749,632,o),
(709,622,o),
(625,622,cs),
(584,622,o),
(543,625,o),
(511,625,cs),
(508,625,o),
(506,613,o),
(510,613,cs),
(565,613,o),
(572,599,o),
(561,542,cs),
(470,19,ls),
(467,2,o),
(469,0,o),
(482,0,cs)
);
}
);
width = 716;
}
);
},
{
glyphname = Y.ss01;
kernLeft = Y;
kernRight = Y;
layers = (
{
anchors = (
{
name = bottom;
pos = (250,0);
},
{
name = top;
pos = (347,625);
},
{
name = topleft;
pos = (99,625);
}
);
layerId = "2373B5BC-5F65-41C1-A640-5B37284EFBFD";
shapes = (
{
closed = 1;
nodes = (
(464,636,o),
(347,450,o),
(287,201,c),
(295,195,l),
(322,451,o),
(285,636,o),
(167,636,cs),
(135,636,o),
(96,622,o),
(50,593,c),
(46,589,o),
(55,580,o),
(58,584,c),
(77,594,o),
(90,601,o),
(124,601,cs),
(221,601,o),
(292,478,o),
(230,81,cs),
(221,23,o),
(202,12,o),
(130,12,cs),
(125,12,o),
(125,0,o),
(130,0,cs),
(160,0,o),
(199,2,o),
(241,2,cs),
(287,2,o),
(323,0,o),
(353,0,cs),
(358,0,o),
(358,12,o),
(353,12,cs),
(276,12,o),
(269,23,o),
(278,81,cs),
(309,269,o),
(411,588,o),
(550,588,cs),
(568,588,o),
(574,582,o),
(585,582,cs),
(595,582,o),
(606,589,o),
(608,602,cs),
(612,621,o),
(591,636,o),
(563,636,cs)
);
}
);
width = 545;
},
{
anchors = (
{
name = bottom;
pos = (262,0);
},
{
name = top;
pos = (378,625);
},
{
name = topleft;
pos = (99,625);
}
);
layerId = "A1717557-2B81-457C-987E-D55DA76CA63F";
shapes = (
{
closed = 1;
nodes = (
(480,636,o),
(379,474,o),
(324,254,c),
(338,251,l),
(358,478,o),
(312,636,o),
(172,636,cs),
(125,636,o),
(88,619,o),
(36,581,cs),
(32,578,o),
(41,568,o),
(44,572,c),
(63,586,o),
(83,592,o),
(108,592,cs),
(240,592,o),
(270,425,o),
(216,81,cs),
(207,23,o),
(192,12,o),
(130,12,cs),
(125,12,o),
(125,0,o),
(130,0,cs),
(164,0,o),
(206,2,o),
(253,2,cs),
(308,2,o),
(351,0,o),
(388,0,cs),
(393,0,o),
(393,12,o),
(388,12,cs),
(312,12,o),
(309,28,o),
(317,87,cs),
(343,275,o),
(433,556,o),
(513,556,cs),
(538,556,o),
(545,524,o),
(586,524,cs),
(616,524,o),
(637,540,o),
(643,574,cs),
(650,615,o),
(609,636,o),
(575,636,cs)
);
}
);
width = 568;
}
);
},
{
glyphname = A.ss02;
kernLeft = A;
kernRight = A;
layers = (
{
anchors = (
{
name = bottom;
pos = (271,0);
},
{
name = ogonek;
pos = (415,12);
},
{
name = top;
pos = (388,625);
}
);
layerId = "2373B5BC-5F65-41C1-A640-5B37284EFBFD";
shapes = (
{
closed = 1;
nodes = (
(0,0,o),
(19,4,o),
(58,4,cs),
(92,4,o),
(131,0,o),
(157,0,cs),
(163,0,o),
(163,12,o),
(158,12,cs),
(98,12,o),
(70,26,o),
(129,133,cs),
(378,587,l),
(361,570,l),
(434,84,ls),
(442,28,o),
(432,12,o),
(367,12,cs),
(363,12,o),
(363,0,o),
(367,0,cs),
(399,0,o),
(425,4,o),
(462,4,cs),
(499,4,o),
(530,0,o),
(561,0,cs),
(566,0,o),
(566,12,o),
(561,12,cs),
(499,12,o),
(491,29,o),
(483,84,cs),
(400,633,ls),
(399,637,o),
(385,640,o),
(382,635,cs),
(94,120,ls),
(44,33,o),
(0,12,o),
(-34,12,cs),
(-39,12,o),
(-39,0,o),
(-34,0,cs)
);
},
{
closed = 1;
nodes = (
(430,287,l),
(428,305,l),
(214,305,l),
(199,287,l)
);
}
);
width = 599;
},
{
anchors = (
{
name = bottom;
pos = (271,0);
},
{
name = ogonek;
pos = (415,12);
},
{
name = top;
pos = (386,625);
}
);
layerId = "A1717557-2B81-457C-987E-D55DA76CA63F";
shapes = (
{
closed = 1;
nodes = (
(0,0,o),
(19,4,o),
(58,4,cs),
(101,4,o),
(149,0,o),
(180,0,cs),
(186,0,o),
(186,12,o),
(181,12,cs),
(99,12,o),
(84,46,o),
(130,129,cs),
(379,582,l),
(323,505,l),
(408,84,ls),
(420,28,o),
(406,12,o),
(356,12,cs),
(351,12,o),
(351,0,o),
(356,0,cs),
(391,0,o),
(420,4,o),
(462,4,cs),
(504,4,o),
(538,0,o),
(573,0,cs),
(578,0,o),
(578,12,o),
(573,12,cs),
(522,12,o),
(519,29,o),
(509,84,cs),
(400,633,ls),
(399,637,o),
(385,639,o),
(382,634,cs),
(103,136,ls),
(56,51,o),
(0,12,o),
(-34,12,cs),
(-39,12,o),
(-39,0,o),
(-34,0,cs)
);
},
{
closed = 1;
nodes = (
(407,229,l),
(405,257,l),
(186,257,l),
(171,229,l)
);
}
);
width = 605;
}
);
},
{
glyphname = Aogonek.ss02;
kernLeft = A;
kernRight = A;
layers = (
{
anchors = (
{
name = bottom;
pos = (271,0);
},
{
name = ogonek;
pos = (415,12);
},
{
name = top;
pos = (389,625);
}
);
layerId = "2373B5BC-5F65-41C1-A640-5B37284EFBFD";
shapes = (
{
closed = 1;
nodes = (
(418,-275,o),
(442,-265,o),
(473,-242,cs),
(476,-239,o),
(471,-232,o),
(468,-234,cs),
(456,-241,o),
(443,-248,o),
(416,-248,cs),
(345,-248,o),
(317,-194,o),
(329,-131,cs),
(343,-54,o),
(408,1,o),
(499,1,cs),
(516,1,o),
(527,0,o),
(561,0,cs),
(566,0,o),
(566,12,o),
(561,12,cs),
(505,12,o),
(491,26,o),
(481,96,cs),
(400,633,ls),
(399,637,o),
(385,640,o),
(382,635,cs),
(99,120,ls),
(50,30,o),
(0,12,o),
(-34,12,cs),
(-39,12,o),
(-39,0,o),
(-34,0,cs),
(0,0,o),
(19,4,o),
(58,4,cs),
(92,4,o),
(131,0,o),
(157,0,cs),
(163,0,o),
(163,12,o),
(158,12,cs),
(98,12,o),
(76,25,o),
(135,133,cs),
(378,587,l),
(361,570,l),
(430,84,ls),
(442,1,o),
(311,-37,o),
(290,-165,cs),
(278,-234,o),
(310,-275,o),
(384,-275,cs)
);
},
{
closed = 1;
nodes = (
(430,287,l),
(428,305,l),
(214,305,l),
(199,287,l)
);
}
);
width = 599;
},
{
anchors = (
{
name = bottom;
pos = (271,0);
},
{
name = ogonek;
pos = (415,12);
},
{
name = top;
pos = (387,625);
}
);
layerId = "A1717557-2B81-457C-987E-D55DA76CA63F";
shapes = (
{
closed = 1;
nodes = (
(414,-275,o),
(446,-258,o),
(484,-219,cs),
(488,-215,o),
(483,-208,o),
(480,-211,cs),
(468,-221,o),
(458,-229,o),
(434,-229,cs),
(380,-229,o),
(357,-191,o),
(364,-131,cs),
(372,-58,o),
(423,1,o),
(478,1,cs),
(497,1,o),
(539,0,o),
(573,0,cs),
(578,0,o),
(578,12,o),
(573,12,cs),
(535,12,o),
(520,26,o),
(509,84,cs),
(400,633,ls),
(399,637,o),
(385,639,o),
(382,634,cs),
(103,136,ls),
(56,51,o),
(0,12,o),
(-34,12,cs),
(-39,12,o),
(-39,0,o),
(-34,0,cs),
(0,0,o),
(19,4,o),
(58,4,cs),
(101,4,o),
(149,0,o),
(180,0,cs),
(186,0,o),
(186,12,o),
(181,12,cs),
(99,12,o),
(84,46,o),
(130,129,cs),
(379,582,l),
(323,505,l),
(408,84,ls),
(433,-36,o),
(291,-69,o),
(278,-177,cs),
(270,-247,o),
(324,-275,o),
(375,-275,cs)
);
},
{
closed = 1;
nodes = (
(407,229,l),
(405,257,l),
(186,257,l),
(171,229,l)
);
}
);
width = 605;
}
);
metricRight = A;
},
{
glyphname = R.ss02;
kernRight = R;
layers = (
{
anchors = (
{
name = bottom;
pos = (299,0);
},
{
name = top;
pos = (312,625);
}
);
layerId = "2373B5BC-5F65-41C1-A640-5B37284EFBFD";
shapes = (
{
closed = 1;
nodes = (
(42,0,o),
(81,2,o),
(119,2,cs),
(160,2,o),
(194,0,o),
(223,0,cs),
(227,0,o),
(227,12,o),
(222,12,cs),
(153,12,o),
(146,23,o),
(157,81,cs),
(239,542,ls),
(251,613,o),
(267,615,o),
(311,615,cs),
(386,615,o),
(437,577,o),
(412,457,cs),
(392,365,o),
(349,329,o),
(254,329,cs),
(237,329,o),
(213,330,o),
(195,333,c),
(193,309,l),
(202,308,o),
(223,306,o),
(235,306,cs),
(345,306,o),
(447,386,o),
(468,491,cs),
(485,580,o),
(440,628,o),
(335,628,cs),
(308,628,o),
(258,622,o),
(228,622,cs),
(189,622,o),
(153,625,o),
(125,625,cs),
(120,625,o),
(120,613,o),
(125,613,cs),
(194,613,o),
(202,601,o),
(192,544,cs),
(110,81,ls),
(99,23,o),
(82,12,o),
(14,12,cs),
(9,12,o),
(9,0,o),
(14,0,cs)
);
},
{
closed = 1;
nodes = (
(501,0,o),
(532,0,o),
(582,0,cs),
(587,0,o),
(587,12,o),
(582,12,cs),
(506,12,o),
(446,94,o),
(331,337,c),
(291,322,l),
(380,123,o),
(453,0,o),
(485,0,cs)
);
}
);
width = 608;
},
{
anchors = (
{
name = bottom;
pos = (342,0);
},
{
name = top;
pos = (343,625);
}
);
layerId = "A1717557-2B81-457C-987E-D55DA76CA63F";
shapes = (
{
closed = 1;
nodes = (
(50,0,o),
(92,2,o),
(136,2,cs),
(181,2,o),
(219,0,o),
(251,0,cs),
(255,0,o),
(255,12,o),
(250,12,cs),
(196,12,o),
(189,25,o),
(199,81,c),
(281,542,l),
(292,605,o),
(298,607,o),
(342,607,cs),
(393,607,o),
(434,571,o),
(416,469,cs),
(401,370,o),
(357,331,o),
(270,331,cs),
(260,331,o),
(241,333,o),
(233,337,c),
(227,306,l),
(229,305,o),
(244,304,o),
(250,304,cs),
(378,304,o),
(502,375,o),
(522,491,cs),
(538,580,o),
(485,628,o),
(351,628,cs),
(324,628,o),
(275,622,o),
(244,622,cs),
(201,622,o),
(161,625,o),
(130,625,cs),
(125,625,o),
(125,613,o),
(130,613,cs),
(185,613,o),
(193,601,o),
(182,544,cs),
(101,81,ls),
(90,25,o),
(77,12,o),
(19,12,cs),
(14,12,o),
(14,0,o),
(19,0,cs)
);
},
{
closed = 1;
nodes = (
(484,0,o),
(530,0,o),
(611,0,cs),
(615,0,o),
(615,12,o),
(611,12,cs),
(542,12,o),
(483,97,o),
(386,349,c),
(305,322,l),
(375,89,o),
(434,0,o),
(460,0,cs)
);
}
);
width = 635;
}
);
metricLeft = "=B";
},
{
glyphname = U.ss03;
kernLeft = U;
layers = (
{
anchors = (
{
name = bottom;
pos = (312,0);
},
{
name = ogonek;
pos = (523,12);
},
{
name = top;
pos = (415,625);
},
{
name = topright;
pos = (745,625);
}
);
layerId = "2373B5BC-5F65-41C1-A640-5B37284EFBFD";
shapes = (
{
closed = 1;
nodes = (
(364,-12,o),
(437,28,o),
(537,125,c),
(530,133,l),
(436,43,o),
(373,13,o),
(304,13,cs),
(195,13,o),
(140,83,o),
(165,221,cs),
(221,542,ls),
(232,599,o),
(244,613,o),
(309,613,cs),
(312,613,o),
(312,625,o),
(309,625,cs),
(283,625,o),
(246,622,o),
(208,622,cs),
(171,622,o),
(137,625,o),
(111,625,cs),
(108,625,o),
(108,613,o),
(111,613,cs),
(175,613,o),
(185,601,o),
(174,544,cs),
(111,186,ls),
(90,64,o),
(161,-12,o),
(281,-12,cs)
);
},
{
closed = 1;
nodes = (
(516,0,o),
(529,1,o),
(545,1,cs),
(573,1,o),
(598,0,o),
(623,0,cs),
(628,0,o),
(628,12,o),
(623,12,cs),
(547,12,o),
(537,23,o),
(547,81,cs),
(629,544,ls),
(640,601,o),
(654,613,o),
(717,613,cs),
(720,613,o),
(720,625,o),
(717,625,cs),
(691,625,o),
(654,622,o),
(618,622,cs),
(580,622,o),
(545,625,o),
(519,625,cs),
(516,625,o),
(516,613,o),
(519,613,cs),
(585,613,o),
(592,599,o),
(581,542,cs),
(490,19,ls),
(488,2,o),
(489,0,o),
(502,0,cs)
);
}
);
width = 692;
},
{
anchors = (
{
name = bottom;
pos = (324,0);
},
{
name = ogonek;
pos = (505,12);
},
{
name = top;
pos = (421,625);
},
{
name = topright;
pos = (768,625);
}
);
layerId = "A1717557-2B81-457C-987E-D55DA76CA63F";
shapes = (
{
closed = 1;
nodes = (
(372,-12,o),
(446,26,o),
(545,123,c),
(532,135,l),
(443,53,o),
(386,25,o),
(323,25,cs),
(221,25,o),
(173,97,o),
(195,221,cs),
(253,542,ls),
(263,599,o),
(273,613,o),
(326,613,cs),
(330,613,o),
(330,625,o),
(326,625,cs),
(297,625,o),
(256,622,o),
(214,622,cs),
(172,622,o),
(135,625,o),
(105,625,cs),
(102,625,o),
(102,613,o),
(105,613,cs),
(156,613,o),
(165,601,o),
(154,544,cs),
(91,186,ls),
(70,64,o),
(152,-12,o),
(281,-12,cs)
);
},
{
closed = 1;
nodes = (
(504,0,o),
(525,1,o),
(551,1,cs),
(584,1,o),
(612,0,o),
(641,0,cs),
(646,0,o),
(646,12,o),
(641,12,cs),
(579,12,o),
(568,23,o),
(579,81,cs),
(661,544,ls),
(671,601,o),
(682,613,o),
(735,613,cs),
(738,613,o),
(738,625,o),
(735,625,cs),
(705,625,o),
(664,622,o),
(623,622,cs),
(581,622,o),
(543,625,o),
(513,625,cs),
(510,625,o),
(510,613,o),
(513,613,cs),
(564,613,o),
(572,599,o),
(561,542,cs),
(470,19,ls),
(468,2,o),
(469,0,o),
(482,0,cs)
);
}
);
width = 716;
}
);
},
{
color = 9;
glyphname = Uhorn.ss03;
kernLeft = U;
layers = (
{
anchors = (
{
name = bottom;
pos = (337,0);
},
{
name = top;
pos = (422,625);
}
);
layerId = "2373B5BC-5F65-41C1-A640-5B37284EFBFD";
shapes = (
{
closed = 1;
nodes = (
(364,-12,o),
(437,28,o),
(537,125,c),
(530,133,l),
(436,43,o),
(373,13,o),
(304,13,cs),
(195,13,o),
(140,83,o),
(165,221,cs),
(221,542,ls),
(232,599,o),
(244,613,o),
(309,613,cs),
(312,613,o),
(312,625,o),
(309,625,cs),
(283,625,o),
(246,622,o),
(208,622,cs),
(171,622,o),
(137,625,o),
(111,625,cs),
(108,625,o),
(108,613,o),
(111,613,cs),
(175,613,o),
(185,601,o),
(174,544,cs),
(111,186,ls),
(90,64,o),
(161,-12,o),
(281,-12,cs)
);
},
{
closed = 1;
nodes = (
(516,0,o),
(529,1,o),
(545,1,cs),
(573,1,o),
(598,0,o),
(623,0,cs),
(628,0,o),
(628,12,o),
(623,12,cs),
(547,12,o),
(537,23,o),
(547,81,cs),
(629,544,ls),
(637,588,o),
(641,604,o),
(674,613,cs),
(699,622,o),
(781,639,o),
(793,708,cs),
(796,730,o),
(787,753,o),
(765,753,cs),
(749,753,o),
(730,746,o),
(727,724,cs),
(725,703,o),
(739,691,o),
(736,674,cs),
(730,642,o),
(685,622,o),
(619,622,cs),
(578,622,o),
(542,625,o),
(513,625,cs),
(509,625,o),
(510,613,o),
(513,613,cs),
(582,613,o),
(592,599,o),
(581,542,cs),
(490,19,ls),
(488,2,o),
(489,0,o),
(502,0,cs)
);
}
);
width = 692;
},
{
anchors = (
{
name = bottom;
pos = (336,0);
},
{
name = top;
pos = (434,625);
}
);
layerId = "A1717557-2B81-457C-987E-D55DA76CA63F";
shapes = (
{
closed = 1;
nodes = (
(372,-12,o),
(446,26,o),
(545,123,c),
(532,135,l),
(443,53,o),
(386,25,o),
(323,25,cs),
(221,25,o),
(173,97,o),
(195,221,cs),
(253,542,ls),
(263,599,o),
(273,613,o),
(326,613,cs),
(330,613,o),
(330,625,o),
(326,625,cs),
(297,625,o),
(256,622,o),
(214,622,cs),
(172,622,o),
(135,625,o),
(105,625,cs),
(102,625,o),
(102,613,o),
(105,613,cs),
(156,613,o),
(165,601,o),
(154,544,cs),
(91,186,ls),
(70,64,o),
(152,-12,o),
(281,-12,cs)
);
},
{
closed = 1;
nodes = (
(504,0,o),
(525,1,o),
(551,1,cs),
(584,1,o),
(612,0,o),
(641,0,cs),
(646,0,o),
(646,12,o),
(641,12,cs),
(579,12,o),
(568,23,o),
(579,81,cs),
(661,544,ls),
(669,588,o),
(676,599,o),
(706,609,cs),
(759,628,o),
(821,647,o),
(832,706,cs),
(836,736,o),
(823,766,o),
(794,766,cs),
(771,766,o),
(749,756,o),
(743,722,cs),
(737,690,o),
(757,680,o),
(753,660,cs),
(749,632,o),
(709,622,o),
(625,622,cs),
(584,622,o),
(543,625,o),
(511,625,cs),
(508,625,o),
(506,613,o),
(510,613,cs),
(565,613,o),
(572,599,o),
(561,542,cs),
(470,19,ls),
(467,2,o),
(469,0,o),
(482,0,cs)
);
}
);
width = 716;
}
);
},
{
glyphname = W.ss03;
kernLeft = V;
kernRight = V;
layers = (
{
anchors = (
{
name = bottom;
pos = (399,0);
},
{
name = top;
pos = (512,625);
}
);
layerId = "2373B5BC-5F65-41C1-A640-5B37284EFBFD";
shapes = (
{
closed = 1;
nodes = (
(563,0,ls),
(564,-5,o),
(580,-5,o),
(582,0,cs),
(822,543,ls),
(847,600,o),
(884,613,o),
(922,613,cs),
(925,613,o),
(925,625,o),
(922,625,cs),
(891,625,o),
(875,622,o),
(841,622,cs),
(801,622,o),
(780,625,o),
(751,625,cs),
(747,625,o),
(747,613,o),
(751,613,cs),
(818,613,o),
(825,598,o),
(805,551,cs),
(567,13,l),
(606,56,l),
(523,625,ls),
(522,629,o),
(505,629,o),
(503,625,cs),
(234,13,l),
(271,61,l),
(200,551,ls),
(193,599,o),
(214,613,o),
(261,613,cs),
(264,613,o),
(264,625,o),
(261,625,cs),
(234,625,o),
(204,622,o),
(161,622,cs),
(138,622,o),
(109,625,o),
(84,625,cs),
(81,625,o),
(81,613,o),
(84,613,cs),
(122,613,o),
(143,596,o),
(151,543,cs),
(229,0,ls),
(230,-5,o),
(247,-5,o),
(248,0,cs),
(518,613,l),
(481,570,l)
);
}
);
width = 856;
},
{
anchors = (
{
name = bottom;
pos = (377,0);
},
{
name = top;
pos = (499,625);
}
);
layerId = "A1717557-2B81-457C-987E-D55DA76CA63F";
shapes = (
{
closed = 1;
nodes = (
(531,0,ls),
(532,-5,o),
(547,-5,o),
(550,0,cs),
(761,492,ls),
(794,568,o),
(850,613,o),
(895,613,cs),
(898,613,o),
(898,625,o),
(895,625,cs),
(864,625,o),
(848,622,o),
(814,622,cs),
(768,622,o),
(744,625,o),
(712,625,cs),
(709,625,o),
(709,613,o),
(712,613,cs),
(758,613,o),
(763,565,o),
(731,490,cs),
(546,55,l),
(606,157,l),
(508,625,ls),
(506,629,o),
(491,629,o),
(489,625,cs),
(221,55,l),
(288,161,l),
(241,522,ls),
(230,601,o),
(228,613,o),
(278,613,cs),
(282,613,o),
(282,625,o),
(278,625,cs),
(255,625,o),
(226,622,o),
(145,622,cs),
(101,622,o),
(101,625,o),
(80,625,cs),
(76,625,o),
(76,613,o),
(80,613,cs),
(113,613,o),
(126,604,o),
(135,544,cs),
(206,0,ls),
(207,-5,o),
(222,-5,o),
(225,0,cs),
(492,571,l),
(433,477,l)
);
}
);
width = 814;
}
);
metricLeft = V;
metricRight = V;
},
{
glyphname = Q.long.ss01;
kernLeft = O;
kernRight = O;
layers = (
{
anchors = (
{
name = bottom;
pos = (292,0);
},
{
name = top;
pos = (402,625);
}
);
layerId = "2373B5BC-5F65-41C1-A640-5B37284EFBFD";
shapes = (
{
closed = 1;
nodes = (
(330,-174,o),
(572,35,o),
(618,281,cs),
(650,458,o),
(566,636,o),
(384,636,cs),
(243,636,o),
(103,524,o),
(75,356,cs),
(47,184,o),
(143,39,o),
(287,39,cs),
(318,39,o),
(357,46,o),
(389,61,cs),
(394,63,o),
(389,73,o),
(385,70,cs),
(367,62,o),
(337,57,o),
(317,57,cs),
(186,57,o),
(95,208,o),
(123,389,cs),
(146,540,o),
(241,612,o),
(342,612,cs),
(510,612,o),
(600,435,o),
(568,256,cs),
(529,29,o),
(315,-159,o),
(153,-159,cs),
(108,-159,o),
(89,-145,o),
(89,-125,cs),
(89,-94,o),
(140,-85,o),
(193,-85,cs),
(227,-85,o),
(261,-89,o),
(296,-95,c),
(318,-54,l),
(295,-50,o),
(271,-48,o),
(246,-48,cs),
(149,-48,o),
(68,-67,o),
(68,-126,cs),
(68,-154,o),
(90,-174,o),
(149,-174,cs)
);
},
{
closed = 1;
nodes = (
(995,-241,o),
(1042,-220,o),
(1084,-184,c),
(1089,-180,o),
(1082,-172,o),
(1077,-175,c),
(1053,-192,o),
(1032,-201,o),
(980,-201,cs),
(750,-201,o),
(510,-81,o),
(318,-54,c),
(296,-95,l),
(499,-129,o),
(744,-241,o),
(929,-241,cs)
);
}
);
width = 653;
},
{
anchors = (
{
name = bottom;
pos = (303,0);
},
{
name = top;
pos = (413,625);
}
);
layerId = "A1717557-2B81-457C-987E-D55DA76CA63F";
shapes = (
{
closed = 1;
nodes = (
(352,-179,o),
(608,37,o),
(650,281,cs),
(683,467,o),
(591,636,o),
(399,636,cs),
(250,636,o),
(104,536,o),
(68,356,cs),
(30,168,o),
(130,39,o),
(299,39,cs),
(331,39,o),
(370,46,o),
(402,61,cs),
(407,63,o),
(400,78,o),
(395,76,cs),
(378,68,o),
(347,63,o),
(327,63,cs),
(201,63,o),
(137,218,o),
(167,389,cs),
(195,551,o),
(273,609,o),
(356,609,cs),
(502,609,o),
(575,428,o),
(550,256,cs),
(516,30,o),
(317,-159,o),
(164,-159,cs),
(120,-159,o),
(102,-145,o),
(102,-127,cs),
(102,-103,o),
(138,-97,o),
(171,-97,cs),
(205,-97,o),
(239,-101,o),
(274,-106,c),
(354,-54,l),
(331,-50,o),
(308,-48,o),
(244,-48,cs),
(170,-48,o),
(76,-68,o),
(76,-127,cs),
(76,-158,o),
(99,-179,o),
(161,-179,cs)
);
},
{
closed = 1;
nodes = (
(994,-253,o),
(1054,-223,o),
(1109,-172,c),
(1113,-168,o),
(1106,-160,o),
(1102,-164,c),
(1075,-181,o),
(1057,-189,o),
(999,-189,cs),
(784,-189,o),
(538,-78,o),
(354,-54,c),
(274,-106,l),
(475,-140,o),
(724,-253,o),
(903,-253,cs)
);
}
);
width = 674;
}
);
metricLeft = O;
},
{
glyphname = Q.long.ss02;
kernLeft = O;
kernRight = O;
layers = (
{
anchors = (
{
name = bottom;
pos = (291,0);
},
{
name = top;
pos = (401,625);
}
);
layerId = "2373B5BC-5F65-41C1-A640-5B37284EFBFD";
shapes = (
{
closed = 1;
nodes = (
(1037,-187,o),
(1033,-178,o),
(1028,-179,cs),
(998,-186,o),
(965,-189,o),
(931,-189,cs),
(770,-189,o),
(574,-115,o),
(404,20,c),
(330,7,l),
(533,-145,o),
(705,-219,o),
(863,-219,cs),
(922,-219,o),
(978,-209,o),
(1033,-189,cs)
);
},
{
ref = O;
}
);
width = 650;
},
{
anchors = (
{
name = bottom;
pos = (294,0);
},
{
name = top;
pos = (404,625);
}
);
layerId = "A1717557-2B81-457C-987E-D55DA76CA63F";
shapes = (
{
closed = 1;
nodes = (
(1044,-187,o),
(1040,-178,o),
(1035,-179,cs),
(1005,-186,o),
(972,-191,o),
(937,-191,cs),
(780,-191,o),
(592,-113,o),
(425,28,c),
(303,-6,l),
(512,-157,o),
(699,-220,o),
(862,-220,cs),
(923,-220,o),
(981,-209,o),
(1040,-189,cs)
);
},
{
ref = O;
}
);
width = 655;
}
);
},
{
glyphname = R.short.ss02;
kernRight = R.short;
layers = (
{
anchors = (
{
name = bottom;
pos = (275,0);
},
{
name = top;
pos = (313,625);
}
);
layerId = "2373B5BC-5F65-41C1-A640-5B37284EFBFD";
metricLeft = "=B";
shapes = (
{
closed = 1;
nodes = (
(433,0,o),
(477,0,o),
(527,0,cs),
(532,0,o),
(532,12,o),
(527,12,cs),
(456,12,o),
(407,68,o),
(338,338,c),
(294,325,l),
(331,129,o),
(402,0,o),
(418,0,cs)
);
},
{
closed = 1;
nodes = (
(37,0,o),
(76,2,o),
(115,2,cs),
(156,2,o),
(189,0,o),
(219,0,cs),
(222,0,o),
(222,12,o),
(218,12,cs),
(149,12,o),
(142,23,o),
(152,81,cs),
(234,542,ls),
(247,613,o),
(262,615,o),
(306,615,cs),
(381,615,o),
(433,577,o),
(407,457,cs),
(387,365,o),
(344,329,o),
(249,329,cs),
(233,329,o),
(208,330,o),
(191,333,c),
(188,309,l),
(198,308,o),
(219,306,o),
(230,306,cs),
(340,306,o),
(442,386,o),
(463,491,cs),
(481,580,o),
(435,628,o),
(330,628,cs),
(303,628,o),
(254,622,o),
(223,622,cs),
(185,622,o),
(149,625,o),
(120,625,cs),
(116,625,o),
(116,613,o),
(120,613,cs),
(189,613,o),
(198,601,o),
(187,544,cs),
(105,81,ls),
(95,23,o),
(77,12,o),
(9,12,cs),
(5,12,o),
(5,0,o),
(9,0,cs)
);
}
);
width = 550;
},
{
anchors = (
{
name = bottom;
pos = (282,0);
},
{
name = top;
pos = (344,625);
}
);
layerId = "A1717557-2B81-457C-987E-D55DA76CA63F";
metricLeft = "=B";
shapes = (
{
closed = 1;
nodes = (
(433,0,o),
(491,0,o),
(558,0,cs),
(563,0,o),
(563,12,o),
(558,12,cs),
(502,12,o),
(450,71,o),
(391,345,c),
(309,318,l),
(340,127,o),
(402,0,o),
(413,0,cs)
);
},
{
closed = 1;
nodes = (
(48,0,o),
(90,2,o),
(133,2,cs),
(179,2,o),
(216,0,o),
(249,0,cs),
(253,0,o),
(253,12,o),
(248,12,cs),
(194,12,o),
(187,25,o),
(196,81,c),
(278,542,l),
(290,605,o),
(296,607,o),
(339,607,cs),
(391,607,o),
(432,571,o),
(414,469,cs),
(399,370,o),
(354,331,o),
(268,331,cs),
(257,331,o),
(239,333,o),
(230,337,c),
(225,306,l),
(227,305,o),
(242,304,o),
(248,304,cs),
(375,304,o),
(499,375,o),
(519,491,cs),
(536,580,o),
(483,628,o),
(349,628,cs),
(322,628,o),
(273,622,o),
(242,622,cs),
(199,622,o),
(159,625,o),
(127,625,cs),
(123,625,o),
(123,613,o),
(127,613,cs),
(182,613,o),
(191,601,o),
(180,544,cs),
(98,81,ls),
(88,25,o),
(75,12,o),
(16,12,cs),
(12,12,o),
(12,0,o),
(16,0,cs)
);
}
);
width = 557;
}
);
metricLeft = H;
},
{
glyphname = Q.long.ss08;
kernLeft = O;
kernRight = O;
layers = (
{
anchors = (
{
name = bottom;
pos = (291,0);
},
{
name = top;
pos = (401,625);
}
);
layerId = "2373B5BC-5F65-41C1-A640-5B37284EFBFD";
shapes = (
{
closed = 1;
nodes = (
(979,-264,o),
(1026,-243,o),
(1068,-207,cs),
(1073,-204,o),
(1065,-195,o),
(1061,-199,cs),
(1036,-215,o),
(1015,-225,o),
(964,-225,cs),
(720,-225,o),
(496,-71,o),
(320,-71,cs),
(240,-71,o),
(165,-104,o),
(119,-142,cs),
(116,-144,o),
(122,-154,o),
(125,-152,cs),
(166,-118,o),
(239,-109,o),
(280,-109,cs),
(444,-109,o),
(717,-264,o),
(912,-264,cs)
);
},
{
ref = O;
}
);
width = 650;
},
{
anchors = (
{
name = bottom;
pos = (294,0);
},
{
name = top;
pos = (404,625);
}
);
layerId = "A1717557-2B81-457C-987E-D55DA76CA63F";
shapes = (
{
closed = 1;
nodes = (
(935,-276,o),
(1005,-249,o),
(1065,-202,cs),
(1071,-198,o),
(1062,-187,o),
(1056,-192,cs),
(1021,-216,o),
(996,-225,o),
(947,-225,cs),
(735,-225,o),
(490,-71,o),
(320,-71,cs),
(240,-71,o),
(165,-104,o),
(119,-142,cs),
(116,-144,o),
(122,-154,o),
(125,-152,cs),
(153,-132,o),
(180,-123,o),
(211,-123,cs),
(378,-123,o),
(642,-276,o),
(848,-276,cs)
);
},
{
ref = O;
}
);
width = 655;
}
);
},
{
glyphname = T_T.liga;
kernLeft = T;
kernRight = T;
layers = (
{
anchors = (
{
name = bottom;
pos = (703,0);
},
{
name = bottom_1;
pos = (221,0);
},
{
name = bottom_2;
pos = (732,0);
},
{
name = caret_1;
pos = (511,0);
},
{
name = center;
pos = (802,312);
},
{
name = center_1;
},
{
name = center_2;
},
{
name = top;
pos = (908,625);
},
{
name = top_1;
pos = (289,386);
},
{
name = top_2;
pos = (800,386);
}
);
layerId = "2373B5BC-5F65-41C1-A640-5B37284EFBFD";
metricLeft = "=T";
metricRight = "=T";
shapes = (
{
closed = 1;
nodes = (
(177,0,o),
(212,2,o),
(249,2,cs),
(290,2,o),
(323,0,o),
(350,0,cs),
(353,0,o),
(353,12,o),
(350,12,cs),
(284,12,o),
(275,23,o),
(285,81,cs),
(368,542,ls),
(378,595,o),
(389,609,o),
(449,609,cs),
(467,609,ls),
(586,609,o),
(586,608,o),
(559,471,cs),
(559,468,o),
(570,467,o),
(570,470,cs),
(596,607,o),
(598,609,o),
(704,609,cs),
(724,609,ls),
(784,609,o),
(792,598,o),
(782,544,cs),
(701,81,ls),
(691,23,o),
(677,12,o),
(613,12,cs),
(609,12,o),
(609,0,o),
(613,0,cs),
(640,0,o),
(675,2,o),
(712,2,cs),
(753,2,o),
(786,0,o),
(813,0,cs),
(816,0,o),
(816,12,o),
(813,12,cs),
(747,12,o),
(738,23,o),
(749,81,cs),
(832,542,ls),
(841,595,o),
(853,609,o),
(912,609,cs),
(931,609,ls),
(1026,609,o),
(1043,577,o),
(1025,473,cs),
(1023,468,o),
(1035,467,o),
(1036,471,cs),
(1041,502,o),
(1064,611,o),
(1075,648,cs),
(1076,653,o),
(1065,654,o),
(1064,650,cs),
(1055,629,o),
(1035,625,o),
(998,625,cs),
(951,625,o),
(906,622,o),
(820,622,cs),
(757,622,o),
(697,623,o),
(649,625,cs),
(599,625,o),
(598,625,o),
(605,651,cs),
(606,656,o),
(595,657,o),
(594,653,cs),
(587,626,o),
(587,625,o),
(519,625,cs),
(477,625,o),
(435,622,o),
(357,622,cs),
(288,622,o),
(225,623,o),
(172,625,cs),
(157,625,o),
(130,626,o),
(133,646,cs),
(135,650,o),
(123,651,o),
(122,647,cs),
(113,604,o),
(89,504,o),
(78,471,cs),
(71,468,o),
(89,465,o),
(90,469,cs),
(120,575,o),
(152,609,o),
(230,609,c),
(258,609,ls),
(320,609,o),
(329,598,o),
(319,544,cs),
(237,81,ls),
(228,23,o),
(214,12,o),
(150,12,cs),
(146,12,o),
(146,0,o),
(150,0,cs)
);
}
);
width = 1021;
},
{
anchors = (
{
name = bottom;
pos = (703,0);
},
{
name = bottom_1;
pos = (226,0);
},
{
name = bottom_2;
pos = (744,0);
},
{
name = caret_1;
pos = (518,0);
},
{
name = center;
pos = (802,312);
},
{
name = center_1;
},
{
name = center_2;
},
{
name = top;
pos = (908,625);
},
{
name = top_1;
pos = (294,386);
},
{
name = top_2;
pos = (812,386);
}
);
layerId = "A1717557-2B81-457C-987E-D55DA76CA63F";
metricLeft = "=T";
metricRight = "=T";
shapes = (
{
closed = 1;
nodes = (
(150,0,o),
(198,2,o),
(248,2,cs),
(303,2,o),
(347,0,o),
(384,0,cs),
(387,0,o),
(387,12,o),
(384,12,cs),
(309,12,o),
(299,23,o),
(310,81,cs),
(391,542,ls),
(400,589,o),
(404,602,o),
(440,602,cs),
(451,602,ls),
(549,602,o),
(566,577,o),
(552,449,cs),
(552,446,o),
(566,444,o),
(567,448,cs),
(595,575,o),
(623,602,o),
(732,602,cs),
(744,602,ls),
(777,602,o),
(785,591,o),
(775,544,cs),
(694,81,ls),
(683,23,o),
(668,12,o),
(596,12,cs),
(593,12,o),
(593,0,o),
(596,0,cs),
(633,0,o),
(681,2,o),
(731,2,cs),
(786,2,o),
(830,0,o),
(867,0,cs),
(870,0,o),
(870,12,o),
(867,12,cs),
(792,12,o),
(782,23,o),
(793,81,cs),
(874,542,ls),
(883,589,o),
(887,602,o),
(923,602,cs),
(935,602,ls),
(1005,602,o),
(1050,532,o),
(1035,449,c),
(1034,444,o),
(1046,443,o),
(1047,448,c),
(1051,482,o),
(1078,606,o),
(1090,648,cs),
(1091,653,o),
(1081,654,o),
(1080,650,c),
(1070,629,o),
(1050,625,o),
(1013,625,cs),
(968,625,o),
(917,622,o),
(837,622,cs),
(774,622,o),
(704,623,o),
(654,625,cs),
(639,625,o),
(601,629,o),
(605,649,cs),
(606,653,o),
(592,654,o),
(591,650,cs),
(584,629,o),
(567,626,o),
(530,625,cs),
(485,623,o),
(434,622,o),
(354,622,cs),
(291,622,o),
(220,623,o),
(171,625,cs),
(156,625,o),
(129,626,o),
(132,646,c),
(133,650,o),
(122,651,o),
(120,647,c),
(111,598,o),
(84,485,o),
(73,448,cs),
(71,444,o),
(83,442,o),
(84,446,c),
(109,531,o),
(185,602,o),
(249,602,cs),
(261,602,ls),
(294,602,o),
(302,591,o),
(292,544,cs),
(211,81,ls),
(200,23,o),
(185,12,o),
(113,12,cs),
(110,12,o),
(110,0,o),
(113,0,cs)
);
}
);
width = 1036;
}
);
metricLeft = T;
metricRight = T;
},
{
glyphname = T_h.liga;
kernLeft = T;
kernRight = n;
layers = (
{
anchors = (
{
name = bottom_1;
pos = (198,0);
},
{
name = bottom_2;
pos = (660,0);
},
{
name = caret_1;
pos = (462,0);
},
{
name = center_1;
},
{
name = center_2;
},
{
name = top_1;
pos = (265,386);
},
{
name = top_2;
pos = (727,386);
}
);
layerId = "2373B5BC-5F65-41C1-A640-5B37284EFBFD";
shapes = (
{
closed = 1;
nodes = (
(559,-8,o),
(568,-2,o),
(570,6,c),
(701,725,ls),
(702,729,o),
(690,731,o),
(689,727,cs),
(668,662,o),
(622,630,o),
(544,627,cs),
(481,623,o),
(421,622,o),
(354,622,cs),
(291,622,o),
(220,623,o),
(171,625,cs),
(156,625,o),
(129,626,o),
(132,646,c),
(133,650,o),
(122,651,o),
(120,647,c),
(112,604,o),
(88,504,o),
(77,471,cs),
(76,468,o),
(88,465,o),
(89,469,c),
(119,575,o),
(151,609,o),
(235,609,cs),
(262,609,ls),
(319,609,o),
(327,598,o),
(318,544,cs),
(236,81,ls),
(227,23,o),
(213,12,o),
(149,12,cs),
(145,12,o),
(145,0,o),
(149,0,cs),
(175,0,o),
(211,2,o),
(248,2,cs),
(289,2,o),
(322,0,o),
(349,0,cs),
(352,0,o),
(352,12,o),
(349,12,cs),
(283,12,o),
(275,23,o),
(284,81,cs),
(365,542,ls),
(374,595,o),
(385,609,o),
(441,609,cs),
(629,609,ls),
(635,609,o),
(637,606,o),
(636,601,cs),
(538,74,ls),
(532,39,o),
(523,2,o),
(523,-2,cs),
(523,-6,o),
(526,-8,o),
(544,-8,cs)
);
},
{
closed = 1;
nodes = (
(830,-9,o),
(864,19,o),
(909,69,cs),
(913,74,o),
(905,82,o),
(901,77,cs),
(871,47,o),
(847,28,o),
(830,28,cs),
(814,28,o),
(807,48,o),
(814,89,cs),
(847,267,ls),
(863,361,o),
(847,399,o),
(789,399,cs),
(691,399,o),
(600,239,o),
(559,7,c),
(570,6,l),
(612,234,o),
(696,365,o),
(761,365,cs),
(805,365,o),
(815,327,o),
(801,248,cs),
(772,89,ls),
(759,16,o),
(765,-9,o),
(796,-9,cs)
);
}
);
width = 924;
},
{
anchors = (
{
name = bottom_1;
pos = (202,0);
},
{
name = bottom_2;
pos = (674,0);
},
{
name = caret_1;
pos = (473,0);
},
{
name = center_1;
},
{
name = center_2;
},
{
name = top_1;
pos = (270,386);
},
{
name = top_2;
pos = (742,386);
}
);
layerId = "A1717557-2B81-457C-987E-D55DA76CA63F";
shapes = (
{
closed = 1;
nodes = (
(584,-8,o),
(602,0,o),
(605,12,cs),
(731,725,ls),
(732,729,o),
(719,731,o),
(717,727,cs),
(667,646,o),
(596,626,o),
(518,625,cs),
(485,623,o),
(434,622,o),
(354,622,cs),
(291,622,o),
(220,623,o),
(171,625,cs),
(156,625,o),
(129,626,o),
(132,646,c),
(133,650,o),
(122,651,o),
(120,647,c),
(111,598,o),
(84,485,o),
(73,448,cs),
(71,444,o),
(83,442,o),
(84,446,c),
(109,531,o),
(185,602,o),
(249,602,cs),
(261,602,ls),
(294,602,o),
(302,591,o),
(292,544,cs),
(211,81,ls),
(200,23,o),
(185,12,o),
(113,12,cs),
(110,12,o),
(110,0,o),
(113,0,cs),
(150,0,o),
(198,2,o),
(248,2,cs),
(303,2,o),
(347,0,o),
(384,0,cs),
(387,0,o),
(387,12,o),
(384,12,cs),
(309,12,o),
(299,23,o),
(310,81,cs),
(391,542,ls),
(400,589,o),
(404,602,o),
(440,602,cs),
(616,602,ls),
(625,602,o),
(627,599,o),
(625,589,cs),
(531,74,ls),
(525,39,o),
(516,5,o),
(516,0,cs),
(516,-4,o),
(523,-8,o),
(549,-8,cs)
);
},
{
closed = 1;
nodes = (
(848,-9,o),
(881,19,o),
(923,69,cs),
(927,74,o),
(919,82,o),
(915,77,cs),
(894,57,o),
(876,42,o),
(862,42,cs),
(850,42,o),
(842,51,o),
(849,89,cs),
(882,267,ls),
(898,357,o),
(874,399,o),
(818,399,cs),
(715,399,o),
(626,250,o),
(587,13,c),
(605,12,l),
(641,226,o),
(710,342,o),
(767,342,cs),
(795,342,o),
(806,312,o),
(794,248,cs),
(765,89,ls),
(753,25,o),
(764,-9,o),
(808,-9,cs)
);
}
);
width = 944;
}
);
metricLeft = T;
metricRight = h;
},
{
glyphname = a;
kernLeft = a;
kernRight = a;
layers = (
{
anchors = (
{
name = bottom;
pos = (220,0);
},
{
name = ogonek;
pos = (371,12);
},
{
name = top;
pos = (273,386);
}
);
layerId = "2373B5BC-5F65-41C1-A640-5B37284EFBFD";
shapes = (
{
closed = 1;
nodes = (
(161,-13,o),
(257,97,o),
(320,246,c),
(304,229,l),
(280,89,ls),
(267,16,o),
(273,-9,o),
(304,-9,cs),
(338,-9,o),
(372,19,o),
(416,69,cs),
(420,73,o),
(412,81,o),
(408,77,cs),
(379,47,o),
(354,28,o),
(338,28,cs),
(322,28,o),
(315,48,o),
(322,89,cs),
(380,406,l),
(381,409,o),
(370,411,o),
(368,407,c),
(364,381,o),
(337,360,o),
(322,357,c),
(360,332,l),
(356,380,o),
(318,399,o),
(282,399,cs),
(177,399,o),
(43,237,o),
(22,91,cs),
(12,16,o),
(37,-13,o),
(80,-13,cs)
);
},
{
closed = 1;
nodes = (
(70,30,o),
(60,64,o),
(69,127,cs),
(89,262,o),
(178,365,o),
(251,367,cs),
(303,368,o),
(323,329,o),
(313,283,cs),
(288,165,o),
(186,30,o),
(109,30,cs)
);
}
);
width = 432;
},
{
anchors = (
{
name = bottom;
pos = (229,0);
},
{
name = ogonek;
pos = (378,12);
},
{
name = top;
pos = (280,386);
}
);
layerId = "A1717557-2B81-457C-987E-D55DA76CA63F";
shapes = (
{
closed = 1;
nodes = (
(164,-13,o),
(262,82,o),
(310,246,c),
(289,229,ls),
(264,89,ls),
(253,21,o),
(268,-9,o),
(311,-9,cs),
(345,-9,o),
(382,19,o),
(423,69,cs),
(427,73,o),
(419,81,o),
(415,77,cs),
(394,56,o),
(374,42,o),
(361,42,cs),
(349,42,o),
(344,57,o),
(350,89,cs),
(408,404,ls),
(409,407,o),
(399,411,o),
(396,407,cs),
(379,380,o),
(351,360,o),
(329,357,c),
(389,324,l),
(385,377,o),
(333,399,o),
(294,399,cs),
(181,399,o),
(36,226,o),
(18,91,cs),
(7,18,o),
(37,-13,o),
(83,-13,cs)
);
},
{
closed = 1;
nodes = (
(117,60,o),
(97,88,o),
(111,172,cs),
(129,275,o),
(188,350,o),
(244,350,cs),
(284,350,o),
(305,313,o),
(294,253,cs),
(280,178,o),
(211,60,o),
(147,60,cs)
);
}
);
width = 444;
}
);
metricRight = n;
unicode = 97;
},
{
glyphname = aogonek;
kernLeft = a;
kernRight = a;
layers = (
{
anchors = (
{
name = bottom;
pos = (129,0);
},
{
name = ogonek;
pos = (371,12);
},
{
name = top;
pos = (273,386);
}
);
layerId = "2373B5BC-5F65-41C1-A640-5B37284EFBFD";
shapes = (
{
closed = 1;
nodes = (
(302,-275,o),
(333,-262,o),
(370,-230,cs),
(373,-227,o),
(366,-219,o),
(363,-221,cs),
(346,-234,o),
(330,-248,o),
(301,-248,cs),
(246,-248,o),
(227,-202,o),
(239,-150,cs),
(256,-71,o),
(338,-12,o),
(416,69,cs),
(420,73,o),
(412,81,o),
(408,77,cs),
(379,47,o),
(354,28,o),
(339,28,cs),
(322,28,o),
(315,48,o),
(322,89,cs),
(380,406,l),
(381,409,o),
(370,411,o),
(368,407,c),
(366,393,o),
(357,380,o),
(346,371,c),
(331,391,o),
(306,399,o),
(282,399,cs),
(177,399,o),
(43,237,o),
(22,91,cs),
(12,16,o),
(37,-13,o),
(80,-13,cs),
(152,-13,o),
(236,75,o),
(298,199,c),
(280,89,ls),
(267,16,o),
(273,-9,o),
(304,-9,cs),
(316,-9,o),
(324,-6,o),
(333,-1,c),
(350,21,l),
(274,-47,o),
(209,-115,o),
(196,-179,cs),
(186,-230,o),
(213,-275,o),
(270,-275,cs)
);
},
{
closed = 1;
nodes = (
(70,30,o),
(60,64,o),
(69,127,cs),
(89,262,o),
(178,365,o),
(251,367,cs),
(303,368,o),
(323,329,o),
(313,283,cs),
(288,165,o),
(186,30,o),
(109,30,cs)
);
}
);
width = 432;
},
{
anchors = (
{
name = bottom;
pos = (136,0);
},
{
name = ogonek;
pos = (378,12);
},
{
name = top;
pos = (280,386);
}
);
layerId = "A1717557-2B81-457C-987E-D55DA76CA63F";
shapes = (
{
closed = 1;
nodes = (
(311,-275,o),
(340,-255,o),
(377,-207,cs),
(380,-204,o),
(373,-195,o),
(370,-198,cs),
(358,-209,o),
(344,-222,o),
(322,-222,cs),
(283,-222,o),
(269,-185,o),
(275,-144,cs),
(285,-75,o),
(310,-39,o),
(423,69,cs),
(427,73,o),
(419,81,o),
(415,77,cs),
(394,56,o),
(374,42,o),
(361,42,cs),
(349,42,o),
(344,57,o),
(350,89,cs),
(408,404,ls),
(409,407,o),
(399,411,o),
(396,407,cs),
(388,394,o),
(377,382,o),
(365,374,c),
(351,386,o),
(324,399,o),
(294,399,cs),
(181,399,o),
(36,226,o),
(18,91,cs),
(7,18,o),
(37,-13,o),
(83,-13,cs),
(147,-13,o),
(222,46,o),
(275,152,c),
(264,89,ls),
(253,21,o),
(268,-9,o),
(311,-9,cs),
(323,-9,o),
(331,-6,o),
(340,-1,c),
(357,21,l),
(275,-34,o),
(198,-111,o),
(186,-173,cs),
(177,-225,o),
(209,-275,o),
(271,-275,cs)
);
},
{
closed = 1;
nodes = (
(117,60,o),
(97,88,o),
(111,172,cs),
(129,275,o),
(179,350,o),
(242,350,cs),
(285,350,o),
(305,313,o),
(294,253,cs),
(280,178,o),
(211,60,o),
(147,60,cs)
);
}
);
width = 447;
}
);
metricLeft = a;
unicode = 261;
},
{
glyphname = ae;
kernLeft = a;
kernRight = c;
layers = (
{
anchors = (
{
name = bottom;
pos = (230,0);
},
{
name = top;
pos = (339,386);
}
);
layerId = "2373B5BC-5F65-41C1-A640-5B37284EFBFD";
shapes = (
{
closed = 1;
nodes = (
(150,-13,o),
(232,97,o),
(285,246,cs),
(296,276,o),
(312,303,o),
(325,332,c),
(322,380,o),
(290,399,o),
(258,399,cs),
(163,399,o),
(42,237,o),
(22,91,cs),
(12,16,o),
(37,-13,o),
(80,-13,cs)
);
},
{
closed = 1;
nodes = (
(70,30,o),
(61,64,o),
(69,127,cs),
(87,262,o),
(164,365,o),
(228,367,cs),
(270,368,o),
(287,329,o),
(278,283,cs),
(257,165,o),
(173,30,o),
(109,30,cs)
);
},
{
closed = 1;
nodes = (
(394,-12,o),
(430,4,o),
(475,44,c),
(478,48,o),
(470,55,o),
(467,53,c),
(440,28,o),
(415,18,o),
(380,18,cs),
(320,18,o),
(294,84,o),
(311,215,cs),
(324,312,o),
(372,380,o),
(428,380,cs),
(468,380,o),
(475,344,o),
(470,323,cs),
(460,270,o),
(363,240,o),
(296,220,c),
(295,208,l),
(462,255,o),
(516,292,o),
(523,337,cs),
(527,365,o),
(516,399,o),
(461,399,cs),
(407,399,o),
(346,367,o),
(301,305,c),
(265,211,l),
(237,74,o),
(270,-12,o),
(351,-12,cs)
);
}
);
width = 529;
},
{
anchors = (
{
name = bottom;
pos = (261,0);
},
{
name = top;
pos = (370,386);
}
);
layerId = "A1717557-2B81-457C-987E-D55DA76CA63F";
shapes = (
{
closed = 1;
nodes = (
(172,-13,o),
(260,97,o),
(316,246,c),
(336,281,o),
(359,315,o),
(379,350,c),
(373,385,o),
(335,399,o),
(297,399,cs),
(161,399,o),
(35,219,o),
(18,91,cs),
(8,26,o),
(39,-13,o),
(88,-13,cs)
);
},
{
closed = 1;
nodes = (
(131,65,o),
(102,81,o),
(117,171,cs),
(136,282,o),
(196,367,o),
(247,367,cs),
(288,367,o),
(310,317,o),
(297,254,cs),
(281,175,o),
(195,65,o),
(152,65,cs)
);
},
{
closed = 1;
nodes = (
(442,-12,o),
(488,7,o),
(540,56,cs),
(544,60,o),
(536,68,o),
(532,64,cs),
(508,44,o),
(482,35,o),
(458,35,cs),
(400,35,o),
(361,96,o),
(377,215,cs),
(388,308,o),
(426,373,o),
(470,373,cs),
(498,373,o),
(504,345,o),
(501,323,cs),
(491,258,o),
(400,221,o),
(338,196,c),
(337,185,l),
(540,248,o),
(592,294,o),
(599,338,cs),
(605,373,o),
(586,399,o),
(520,399,cs),
(447,399,o),
(380,367,o),
(331,305,c),
(296,211,l),
(265,77,o),
(297,-12,o),
(396,-12,cs)
);
}
);
width = 589;
}
);
metricLeft = a;
metricRight = e;
unicode = 230;
},
{
glyphname = b;
kernLeft = l;
kernRight = o;
layers = (
{
anchors = (
{
name = bottom;
pos = (181,0);
},
{
name = top;
pos = (249,386);
}
);
layerId = "2373B5BC-5F65-41C1-A640-5B37284EFBFD";
shapes = (
{
closed = 1;
nodes = (
(235,-13,o),
(373,78,o),
(408,251,cs),
(426,337,o),
(393,399,o),
(331,399,cs),
(226,399,o),
(118,269,o),
(94,116,c),
(99,96,l),
(129,253,o),
(208,359,o),
(294,359,cs),
(356,359,o),
(367,296,o),
(352,220,cs),
(327,88,o),
(253,12,o),
(187,12,cs),
(127,12,o),
(91,47,o),
(99,96,cs),
(213,717,l),
(214,720,o),
(207,727,o),
(202,725,cs),
(80,665,ls),
(74,663,o),
(78,651,o),
(84,654,cs),
(146,684,o),
(164,670,o),
(156,627,cs),
(51,75,ls),
(41,20,o),
(81,-13,o),
(145,-13,cs)
);
}
);
width = 430;
},
{
anchors = (
{
name = bottom;
pos = (192,0);
},
{
name = top;
pos = (260,386);
}
);
layerId = "A1717557-2B81-457C-987E-D55DA76CA63F";
shapes = (
{
closed = 1;
nodes = (
(249,-13,o),
(401,78,o),
(432,251,cs),
(446,338,o),
(415,399,o),
(352,399,cs),
(246,399,o),
(144,269,o),
(120,116,c),
(131,96,l),
(156,236,o),
(222,332,o),
(295,332,cs),
(336,332,o),
(346,282,o),
(333,220,cs),
(313,90,o),
(250,15,o),
(191,15,cs),
(151,15,o),
(123,49,o),
(131,96,cs),
(241,717,ls),
(242,720,o),
(235,727,o),
(229,725,cs),
(74,649,ls),
(68,647,o),
(73,635,o),
(78,637,cs),
(133,663,o),
(147,653,o),
(136,589,cs),
(44,87,ls),
(33,26,o),
(75,-13,o),
(154,-13,cs)
);
}
);
width = 451;
}
);
metricRight = "=|d";
unicode = 98;
},
{
glyphname = c;
kernLeft = o;
kernRight = c;
layers = (
{
anchors = (
{
name = bottom;
pos = (151,0);
},
{
name = top;
pos = (225,386);
}
);
layerId = "2373B5BC-5F65-41C1-A640-5B37284EFBFD";
shapes = (
{
closed = 1;
nodes = (
(205,-13,o),
(256,9,o),
(312,58,cs),
(316,62,o),
(308,70,o),
(304,67,cs),
(275,43,o),
(242,18,o),
(193,18,cs),
(96,18,o),
(68,122,o),
(89,232,cs),
(104,311,o),
(143,379,o),
(215,379,cs),
(251,379,o),
(267,356,o),
(271,342,cs),
(278,323,o),
(289,313,o),
(304,313,cs),
(322,313,o),
(331,327,o),
(332,342,cs),
(336,374,o),
(296,399,o),
(248,399,cs),
(163,399,o),
(63,329,o),
(36,202,cs),
(15,105,o),
(43,-13,o),
(156,-13,cs)
);
}
);
width = 345;
},
{
anchors = (
{
name = bottom;
pos = (156,0);
},
{
name = top;
pos = (229,386);
}
);
layerId = "A1717557-2B81-457C-987E-D55DA76CA63F";
shapes = (
{
closed = 1;
nodes = (
(209,-13,o),
(267,9,o),
(317,58,cs),
(320,62,o),
(312,69,o),
(309,67,cs),
(288,51,o),
(249,36,o),
(221,36,cs),
(131,36,o),
(104,126,o),
(123,237,cs),
(136,317,o),
(168,371,o),
(209,371,cs),
(234,371,o),
(241,352,o),
(246,332,cs),
(250,310,o),
(260,287,o),
(296,287,cs),
(327,287,o),
(345,305,o),
(347,332,cs),
(351,380,o),
(298,399,o),
(253,399,cs),
(161,399,o),
(50,322,o),
(29,202,cs),
(11,99,o),
(40,-13,o),
(160,-13,cs)
);
}
);
width = 347;
}
);
metricLeft = o;
unicode = 99;
},
{
glyphname = d;
kernLeft = a;
layers = (
{
anchors = (
{
name = bottom;
pos = (212,0);
},
{
name = center;
pos = (187,193);
},
{
name = top;
pos = (256,386);
},
{
name = topright;
pos = (419,386);
}
);
layerId = "2373B5BC-5F65-41C1-A640-5B37284EFBFD";
shapes = (
{
closed = 1;
nodes = (
(191,-13,o),
(271,96,o),
(333,246,c),
(373,332,l),
(368,380,o),
(331,399,o),
(295,399,cs),
(178,399,o),
(54,274,o),
(28,126,cs),
(11,23,o),
(55,-13,o),
(104,-13,cs)
);
},
{
closed = 1;
nodes = (
(87,30,o),
(60,73,o),
(75,163,cs),
(98,295,o),
(175,365,o),
(264,367,cs),
(312,368,o),
(336,337,o),
(326,283,cs),
(311,199,o),
(223,30,o),
(132,30,cs)
);
},
{
closed = 1;
nodes = (
(349,-9,o),
(382,19,o),
(427,69,cs),
(432,74,o),
(423,82,o),
(419,77,cs),
(389,47,o),
(365,28,o),
(350,28,cs),
(332,28,o),
(324,48,o),
(332,89,cs),
(449,717,ls),
(450,720,o),
(443,727,o),
(439,725,cs),
(316,665,ls),
(310,663,o),
(315,651,o),
(320,654,cs),
(382,684,o),
(400,670,o),
(392,627,cs),
(290,89,ls),
(276,16,o),
(283,-9,o),
(315,-9,cs)
);
}
);
width = 443;
},
{
anchors = (
{
name = bottom;
pos = (215,0);
},
{
name = center;
pos = (194,193);
},
{
name = top;
pos = (260,386);
},
{
name = topright;
pos = (426,386);
}
);
layerId = "A1717557-2B81-457C-987E-D55DA76CA63F";
shapes = (
{
closed = 1;
nodes = (
(193,-13,o),
(271,96,o),
(330,246,c),
(380,332,l),
(377,378,o),
(338,399,o),
(294,399,cs),
(185,399,o),
(50,270,o),
(23,126,cs),
(5,23,o),
(55,-13,o),
(108,-13,cs)
);
},
{
closed = 1;
nodes = (
(117,57,o),
(97,94,o),
(111,180,cs),
(129,288,o),
(176,350,o),
(239,350,cs),
(282,350,o),
(320,320,o),
(310,260,cs),
(298,191,o),
(233,57,o),
(158,57,cs)
);
},
{
closed = 1;
nodes = (
(361,-9,o),
(394,19,o),
(436,69,cs),
(441,74,o),
(433,82,o),
(428,77,cs),
(407,57,o),
(389,42,o),
(375,42,cs),
(364,42,o),
(356,51,o),
(363,89,cs),
(475,717,ls),
(476,720,o),
(469,727,o),
(463,725,cs),
(308,649,ls),
(302,647,o),
(306,635,o),
(312,637,cs),
(367,663,o),
(381,653,o),
(370,589,cs),
(278,89,ls),
(267,25,o),
(277,-9,o),
(322,-9,cs)
);
}
);
width = 450;
}
);
metricLeft = a;
unicode = 100;
},
{
glyphname = eth;
kernLeft = oaccent;
kernRight = oaccent;
layers = (
{
anchors = (
{
name = top;
pos = (232,386);
}
);
layerId = "2373B5BC-5F65-41C1-A640-5B37284EFBFD";
shapes = (
{
closed = 1;
nodes = (
(250,-13,o),
(346,63,o),
(373,216,cs),
(408,415,o),
(325,640,o),
(186,725,cs),
(178,730,o),
(140,717,o),
(149,712,cs),
(280,632,o),
(361,401,o),
(323,204,c),
(349,333,l),
(330,375,o),
(287,399,o),
(242,399,cs),
(167,399,o),
(57,332,o),
(32,186,cs),
(13,80,o),
(56,-13,o),
(154,-13,cs)
);
},
{
closed = 1;
nodes = (
(101,5,o),
(64,102,o),
(84,215,cs),
(103,322,o),
(166,381,o),
(228,381,cs),
(323,381,o),
(343,316,o),
(323,204,cs),
(298,62,o),
(244,5,o),
(181,5,cs)
);
},
{
closed = 1;
nodes = (
(414,626,ls),
(420,628,o),
(411,646,o),
(406,643,cs),
(132,513,ls),
(126,511,o),
(136,494,o),
(140,496,cs)
);
}
);
width = 401;
},
{
anchors = (
{
name = top;
pos = (232,386);
}
);
layerId = "A1717557-2B81-457C-987E-D55DA76CA63F";
shapes = (
{
closed = 1;
nodes = (
(255,-13,o),
(357,63,o),
(385,216,cs),
(422,415,o),
(333,640,o),
(186,725,cs),
(182,730,o),
(168,717,o),
(172,712,cs),
(258,632,o),
(313,401,o),
(288,204,c),
(349,333,l),
(330,375,o),
(287,399,o),
(242,399,cs),
(163,399,o),
(47,332,o),
(20,186,cs),
(-1,80,o),
(47,-13,o),
(154,-13,cs)
);
},
{
closed = 1;
nodes = (
(130,11,o),
(106,105,o),
(119,215,cs),
(133,319,o),
(181,378,o),
(228,378,cs),
(288,378,o),
(301,313,o),
(288,204,cs),
(269,67,o),
(229,11,o),
(181,11,cs)
);
},
{
closed = 1;
nodes = (
(415,625,ls),
(421,627,o),
(408,648,o),
(404,646,cs),
(130,516,ls),
(124,513,o),
(137,492,o),
(142,495,cs)
);
}
);
width = 401;
}
);
metricLeft = "=o";
metricRight = "=o";
unicode = 240;
},
{
glyphname = dcroat;
kernLeft = a;
layers = (
{
layerId = "2373B5BC-5F65-41C1-A640-5B37284EFBFD";
shapes = (
{
closed = 1;
nodes = (
(480,501,ls),
(485,501,o),
(485,519,o),
(480,519,cs),
(193,519,ls),
(187,519,o),
(187,501,o),
(193,501,cs)
);
},
{
ref = d;
}
);
width = 436;
},
{
layerId = "A1717557-2B81-457C-987E-D55DA76CA63F";
shapes = (
{
closed = 1;
nodes = (
(480,498,ls),
(485,498,o),
(485,522,o),
(480,522,cs),
(193,522,ls),
(187,522,o),
(187,498,o),
(193,498,cs)
);
},
{
ref = d;
}
);
width = 436;
}
);
unicode = 273;
},
{
glyphname = e;
kernLeft = o;
kernRight = c;
layers = (
{
anchors = (
{
name = bottom;
pos = (188,-12);
},
{
name = ogonek;
pos = (260,12);
},
{
name = top;
pos = (226,386);
}
);
layerId = "2373B5BC-5F65-41C1-A640-5B37284EFBFD";
shapes = (
{
closed = 1;
nodes = (
(200,-12,o),
(246,4,o),
(297,44,c),
(301,48,o),
(294,55,o),
(290,53,c),
(256,28,o),
(220,20,o),
(187,20,cs),
(101,20,o),
(63,104,o),
(85,218,cs),
(99,301,o),
(142,372,o),
(215,372,cs),
(243,372,o),
(275,361,o),
(264,324,cs),
(250,273,o),
(173,240,o),
(69,226,c),
(67,213,l),
(193,228,o),
(308,283,o),
(322,345,cs),
(329,378,o),
(305,399,o),
(258,399,cs),
(147,399,o),
(50,284,o),
(33,185,cs),
(13,80,o),
(50,-12,o),
(154,-12,cs)
);
}
);
width = 339;
},
{
anchors = (
{
name = bottom;
pos = (193,0);
},
{
name = ogonek;
pos = (265,12);
},
{
name = top;
pos = (234,386);
}
);
layerId = "A1717557-2B81-457C-987E-D55DA76CA63F";
shapes = (
{
closed = 1;
nodes = (
(209,-12,o),
(265,6,o),
(316,55,cs),
(319,58,o),
(312,65,o),
(309,63,cs),
(280,40,o),
(244,32,o),
(219,32,cs),
(136,32,o),
(108,116,o),
(124,218,cs),
(138,304,o),
(172,372,o),
(218,372,cs),
(242,372,o),
(254,353,o),
(249,324,cs),
(240,260,o),
(170,229,o),
(75,214,c),
(73,201,l),
(207,215,o),
(343,275,o),
(350,345,cs),
(353,379,o),
(324,399,o),
(270,399,cs),
(144,399,o),
(47,290,o),
(27,185,cs),
(8,87,o),
(44,-12,o),
(160,-12,cs)
);
}
);
width = 357;
}
);
metricLeft = o;
unicode = 101;
},
{
glyphname = eogonek;
kernLeft = oaccent;
kernRight = caccent;
layers = (
{
anchors = (
{
name = top;
pos = (202,386);
}
);
layerId = "2373B5BC-5F65-41C1-A640-5B37284EFBFD";
shapes = (
{
closed = 1;
nodes = (
(188,-275,o),
(220,-262,o),
(256,-230,cs),
(260,-227,o),
(253,-219,o),
(249,-221,cs),
(233,-234,o),
(216,-248,o),
(187,-248,cs),
(133,-248,o),
(115,-207,o),
(125,-154,cs),
(137,-98,o),
(174,-53,o),
(295,44,c),
(288,53,l),
(139,-53,o),
(94,-119,o),
(83,-179,cs),
(73,-237,o),
(102,-275,o),
(157,-275,cs)
);
},
{
ref = e;
}
);
width = 346;
},
{
anchors = (
{
name = top;
pos = (202,386);
}
);
layerId = "A1717557-2B81-457C-987E-D55DA76CA63F";
shapes = (
{
closed = 1;
nodes = (
(207,-275,o),
(249,-237,o),
(268,-205,cs),
(270,-201,o),
(263,-195,o),
(260,-199,cs),
(249,-209,o),
(230,-221,o),
(208,-221,cs),
(167,-221,o),
(159,-182,o),
(166,-143,cs),
(175,-90,o),
(214,-33,o),
(316,55,c),
(309,63,l),
(147,-65,o),
(90,-120,o),
(77,-179,cs),
(63,-243,o),
(111,-275,o),
(157,-275,cs)
);
},
{
ref = e;
}
);
width = 357;
}
);
metricRight = e;
unicode = 281;
},
{
glyphname = schwa;
kernRight = o;
layers = (
{
anchors = (
{
name = top;
pos = (179,386);
}
);
layerId = "2373B5BC-5F65-41C1-A640-5B37284EFBFD";
metricRight = "=o";
shapes = (
{
closed = 1;
nodes = (
(189,-13,o),
(289,57,o),
(319,191,cs),
(344,301,o),
(305,399,o),
(185,399,cs),
(130,399,o),
(82,378,o),
(44,342,cs),
(40,337,o),
(49,330,o),
(53,333,cs),
(82,359,o),
(117,375,o),
(156,375,cs),
(249,375,o),
(292,276,o),
(265,160,cs),
(243,57,o),
(201,12,o),
(139,12,cs),
(92,12,o),
(76,36,o),
(84,62,cs),
(98,108,o),
(166,127,o),
(283,152,c),
(281,163,l),
(120,129,o),
(42,99,o),
(29,47,cs),
(21,12,o),
(43,-13,o),
(97,-13,cs)
);
}
);
width = 353;
},
{
anchors = (
{
name = top;
pos = (185,386);
}
);
layerId = "A1717557-2B81-457C-987E-D55DA76CA63F";
metricRight = "=o";
shapes = (
{
closed = 1;
nodes = (
(208,-13,o),
(313,60,o),
(337,191,cs),
(356,295,o),
(320,399,o),
(195,399,cs),
(133,399,o),
(78,374,o),
(39,336,cs),
(34,331,o),
(43,324,o),
(47,327,cs),
(76,350,o),
(113,364,o),
(147,364,cs),
(228,364,o),
(260,280,o),
(242,160,cs),
(228,64,o),
(192,12,o),
(147,12,cs),
(118,12,o),
(109,34,o),
(113,62,cs),
(123,113,o),
(186,138,o),
(289,164,c),
(287,174,l),
(116,140,o),
(22,105,o),
(12,47,cs),
(6,12,o),
(33,-13,o),
(97,-13,cs)
);
}
);
width = 364;
}
);
metricRight = o;
unicode = 601;
},
{
glyphname = f;
kernLeft = f;
kernRight = f;
layers = (
{
anchors = (
{
name = bottom;
pos = (96,0);
},
{
name = top;
pos = (164,386);
}
);
layerId = "2373B5BC-5F65-41C1-A640-5B37284EFBFD";
shapes = (
{
closed = 1;
nodes = (
(39,-275,o),
(73,-212,o),
(101,-21,cs),
(167,439,ls),
(193,620,o),
(233,712,o),
(287,712,cs),
(330,712,o),
(320,649,o),
(354,649,cs),
(368,649,o),
(381,656,o),
(385,675,cs),
(388,701,o),
(363,726,o),
(318,726,cs),
(204,726,o),
(160,660,o),
(120,418,cs),
(115,384,o),
(97,373,o),
(48,373,cs),
(44,373,o),
(42,361,o),
(47,361,cs),
(105,361,o),
(111,356,o),
(104,306,cs),
(53,-47,ls),
(27,-227,o),
(15,-257,o),
(-9,-257,cs),
(-41,-257,o),
(-26,-207,o),
(-64,-207,cs),
(-84,-207,o),
(-97,-220,o),
(-98,-235,cs),
(-101,-255,o),
(-85,-275,o),
(-41,-275,cs)
);
},
{
closed = 1;
nodes = (
(250,340,o),
(268,363,o),
(270,374,cs),
(271,379,o),
(269,382,o),
(263,382,cs),
(250,382,o),
(174,375,o),
(132,375,c),
(130,353,l),
(172,353,o),
(208,347,o),
(236,343,cs)
);
}
);
width = 260;
},
{
anchors = (
{
name = bottom;
pos = (101,0);
},
{
name = top;
pos = (168,386);
}
);
layerId = "A1717557-2B81-457C-987E-D55DA76CA63F";
shapes = (
{
closed = 1;
nodes = (
(56,-275,o),
(99,-213,o),
(127,-21,cs),
(195,439,ls),
(221,614,o),
(248,705,o),
(292,705,cs),
(331,705,o),
(291,627,o),
(364,627,cs),
(388,627,o),
(409,642,o),
(413,669,cs),
(418,701,o),
(384,726,o),
(324,726,cs),
(198,726,o),
(145,661,o),
(106,418,cs),
(101,384,o),
(84,375,o),
(41,375,cs),
(37,375,o),
(36,359,o),
(41,359,cs),
(91,359,o),
(97,356,o),
(90,306,cs),
(39,-47,ls),
(13,-222,o),
(7,-255,o),
(-13,-255,cs),
(-48,-255,o),
(-14,-178,o),
(-78,-178,cs),
(-99,-178,o),
(-120,-191,o),
(-124,-218,cs),
(-129,-249,o),
(-95,-275,o),
(-35,-275,cs)
);
},
{
closed = 1;
nodes = (
(269,339,o),
(285,363,o),
(288,374,cs),
(289,379,o),
(287,386,o),
(281,386,cs),
(263,386,o),
(184,378,o),
(138,378,c),
(136,351,l),
(184,351,o),
(254,339,o),
(256,339,cs)
);
}
);
width = 268;
}
);
unicode = 102;
},
{
glyphname = g;
kernLeft = g;
kernRight = g;
layers = (
{
anchors = (
{
name = bottom;
pos = (168,108);
},
{
name = center;
pos = (209,244);
},
{
name = top;
pos = (213,381);
},
{
name = topright;
pos = (345,381);
}
);
layerId = "2373B5BC-5F65-41C1-A640-5B37284EFBFD";
shapes = (
{
closed = 1;
nodes = (
(216,-281,o),
(308,-215,o),
(313,-146,cs),
(324,-32,o),
(97,-19,o),
(108,65,cs),
(110,85,o),
(126,106,o),
(142,115,c),
(131,123,l),
(98,94,o),
(74,70,o),
(68,41,cs),
(50,-55,o),
(278,-68,o),
(273,-175,cs),
(270,-221,o),
(227,-254,o),
(153,-254,cs),
(55,-254,o),
(-5,-202,o),
(6,-138,cs),
(15,-83,o),
(74,-56,o),
(124,-26,c),
(117,-18,l),
(41,-61,o),
(-27,-101,o),
(-41,-159,cs),
(-56,-221,o),
(-1,-281,o),
(106,-281,cs)
);
},
{
closed = 1;
nodes = (
(219,98,o),
(295,156,o),
(313,246,cs),
(331,325,o),
(297,392,o),
(220,392,cs),
(142,392,o),
(71,330,o),
(55,246,cs),
(37,166,o),
(73,98,o),
(150,98,cs)
);
},
{
closed = 1;
nodes = (
(112,116,o),
(87,205,o),
(101,276,cs),
(111,333,o),
(152,375,o),
(195,375,cs),
(260,375,o),
(280,281,o),
(268,214,cs),
(256,152,o),
(216,116,o),
(175,116,cs)
);
},
{
closed = 1;
nodes = (
(296,359,o),
(343,364,o),
(374,349,cs),
(382,344,o),
(394,393,o),
(382,393,cs),
(344,393,o),
(296,377,o),
(256,353,c),
(257,346,l)
);
}
);
width = 377;
},
{
anchors = (
{
name = bottom;
pos = (174,108);
},
{
name = center;
pos = (215,244);
},
{
name = top;
pos = (214,381);
},
{
name = topright;
pos = (351,381);
}
);
layerId = "A1717557-2B81-457C-987E-D55DA76CA63F";
shapes = (
{
closed = 1;
nodes = (
(219,-281,o),
(317,-230,o),
(331,-146,cs),
(354,-1,o),
(118,-7,o),
(129,80,cs),
(130,94,o),
(140,110,o),
(152,116,c),
(145,123,l),
(97,88,o),
(60,58,o),
(53,25,cs),
(34,-64,o),
(253,-65,o),
(251,-175,cs),
(251,-211,o),
(227,-250,o),
(161,-250,cs),
(91,-250,o),
(36,-204,o),
(44,-138,cs),
(51,-83,o),
(94,-49,o),
(130,-26,c),
(123,-18,l),
(35,-64,o),
(-35,-108,o),
(-46,-167,cs),
(-56,-230,o),
(2,-281,o),
(110,-281,cs)
);
},
{
closed = 1;
nodes = (
(232,98,o),
(312,154,o),
(331,246,cs),
(347,323,o),
(313,392,o),
(225,392,cs),
(140,392,o),
(65,331,o),
(49,246,cs),
(34,168,o),
(69,98,o),
(154,98,cs)
);
},
{
closed = 1;
nodes = (
(149,120,o),
(127,175,o),
(136,253,cs),
(143,320,o),
(171,371,o),
(201,371,cs),
(241,371,o),
(250,292,o),
(244,237,cs),
(237,166,o),
(209,120,o),
(180,120,cs)
);
},
{
closed = 1;
nodes = (
(302,363,o),
(354,353,o),
(386,330,cs),
(394,324,o),
(406,396,o),
(394,396,cs),
(356,396,o),
(302,379,o),
(262,353,c),
(263,346,l)
);
}
);
width = 388;
}
);
unicode = 103;
},
{
glyphname = h;
kernLeft = l;
kernRight = n;
layers = (
{
anchors = (
{
name = bottom;
pos = (212,0);
},
{
name = center;
pos = (229,193);
},
{
name = top;
pos = (256,386);
}
);
layerId = "2373B5BC-5F65-41C1-A640-5B37284EFBFD";
shapes = (
{
closed = 1;
nodes = (
(78,-8,o),
(88,-2,o),
(89,6,cs),
(219,717,ls),
(220,720,o),
(213,727,o),
(208,725,cs),
(85,665,ls),
(80,663,o),
(84,651,o),
(90,654,cs),
(152,684,o),
(170,670,o),
(161,627,cs),
(57,74,ls),
(51,39,o),
(42,2,o),
(42,-2,cs),
(42,-6,o),
(46,-8,o),
(63,-8,cs)
);
},
{
closed = 1;
nodes = (
(350,-9,o),
(384,19,o),
(428,69,cs),
(433,74,o),
(425,82,o),
(420,77,cs),
(391,47,o),
(366,28,o),
(350,28,cs),
(333,28,o),
(326,48,o),
(333,89,cs),
(366,267,ls),
(382,361,o),
(366,399,o),
(309,399,cs),
(211,399,o),
(119,239,o),
(78,7,c),
(89,6,l),
(131,234,o),
(215,365,o),
(281,365,cs),
(324,365,o),
(335,327,o),
(320,248,cs),
(291,89,ls),
(278,16,o),
(284,-9,o),
(316,-9,cs)
);
}
);
width = 443;
},
{
anchors = (
{
name = bottom;
pos = (218,0);
},
{
name = center;
pos = (233,193);
},
{
name = top;
pos = (262,386);
}
);
layerId = "A1717557-2B81-457C-987E-D55DA76CA63F";
shapes = (
{
closed = 1;
nodes = (
(95,-8,o),
(113,0,o),
(116,12,cs),
(241,717,ls),
(242,720,o),
(235,727,o),
(229,725,cs),
(74,649,ls),
(68,647,o),
(73,635,o),
(78,637,cs),
(133,663,o),
(147,653,o),
(136,589,cs),
(42,74,ls),
(36,39,o),
(27,5,o),
(27,0,cs),
(27,-4,o),
(34,-8,o),
(60,-8,cs)
);
},
{
closed = 1;
nodes = (
(359,-9,o),
(392,19,o),
(434,69,cs),
(439,74,o),
(430,82,o),
(426,77,cs),
(405,57,o),
(387,42,o),
(373,42,cs),
(361,42,o),
(353,51,o),
(360,89,cs),
(393,267,ls),
(409,357,o),
(385,399,o),
(329,399,cs),
(226,399,o),
(137,250,o),
(98,13,c),
(116,12,l),
(152,226,o),
(221,342,o),
(278,342,cs),
(306,342,o),
(317,312,o),
(305,248,cs),
(276,89,ls),
(264,25,o),
(275,-9,o),
(319,-9,cs)
);
}
);
width = 455;
}
);
metricRight = n;
unicode = 104;
},
{
glyphname = hbar;
kernLeft = l;
kernRight = n;
layers = (
{
layerId = "2373B5BC-5F65-41C1-A640-5B37284EFBFD";
shapes = (
{
closed = 1;
nodes = (
(359,501,ls),
(365,501,o),
(365,519,o),
(359,519,cs),
(73,519,ls),
(67,519,o),
(67,501,o),
(73,501,cs)
);
},
{
ref = h;
}
);
width = 443;
},
{
layerId = "A1717557-2B81-457C-987E-D55DA76CA63F";
shapes = (
{
closed = 1;
nodes = (
(359,498,ls),
(365,498,o),
(365,522,o),
(359,522,cs),
(73,522,ls),
(67,522,o),
(67,498,o),
(73,498,cs)
);
},
{
ref = h;
}
);
width = 443;
}
);
unicode = 295;
},
{
glyphname = idotless;
kernLeft = n;
layers = (
{
anchors = (
{
name = bottom;
pos = (112,0);
},
{
name = ogonek;
pos = (127,12);
},
{
name = top;
pos = (140,386);
}
);
layerId = "2373B5BC-5F65-41C1-A640-5B37284EFBFD";
shapes = (
{
closed = 1;
nodes = (
(143,-9,o),
(179,16,o),
(223,67,cs),
(228,71,o),
(220,80,o),
(215,75,cs),
(186,44,o),
(159,28,o),
(144,28,cs),
(126,28,o),
(119,48,o),
(127,89,cs),
(167,297,ls),
(181,370,o),
(174,395,o),
(142,395,cs),
(109,395,o),
(73,370,o),
(28,319,cs),
(23,315,o),
(32,306,o),
(36,311,cs),
(65,342,o),
(92,358,o),
(108,358,cs),
(125,358,o),
(133,338,o),
(125,297,cs),
(84,89,ls),
(69,12,o),
(80,-9,o),
(110,-9,cs)
);
}
);
width = 247;
},
{
anchors = (
{
name = bottom;
pos = (110,0);
},
{
name = ogonek;
pos = (116,12);
},
{
name = top;
pos = (140,386);
}
);
layerId = "A1717557-2B81-457C-987E-D55DA76CA63F";
shapes = (
{
closed = 1;
nodes = (
(146,-9,o),
(179,19,o),
(221,69,cs),
(226,74,o),
(218,82,o),
(213,77,cs),
(192,57,o),
(174,42,o),
(160,42,cs),
(149,42,o),
(140,51,o),
(147,89,cs),
(189,309,ls),
(200,364,o),
(188,395,o),
(145,395,cs),
(108,395,o),
(71,372,o),
(23,315,cs),
(19,310,o),
(27,301,o),
(32,306,cs),
(56,333,o),
(76,346,o),
(89,346,cs),
(104,346,o),
(111,330,o),
(104,297,cs),
(63,89,ls),
(50,25,o),
(62,-9,o),
(106,-9,cs)
);
}
);
width = 247;
}
);
metricLeft = "n+10";
metricRight = "n+10";
unicode = 305;
},
{
glyphname = ij;
kernRight = j;
layers = (
{
layerId = "2373B5BC-5F65-41C1-A640-5B37284EFBFD";
shapes = (
{
closed = 1;
nodes = (
(220,-281,o),
(292,-192,o),
(315,-70,cs),
(385,312,ls),
(391,347,o),
(400,384,o),
(400,388,cs),
(400,392,o),
(396,394,o),
(379,394,cs),
(364,394,o),
(354,388,o),
(353,380,cs),
(338,297,l),
(270,-94,ls),
(247,-230,o),
(199,-260,o),
(154,-260,cs),
(67,-260,o),
(82,-178,o),
(49,-178,cs),
(37,-178,o),
(25,-185,o),
(21,-205,cs),
(14,-247,o),
(54,-281,o),
(115,-281,cs)
);
},
{
closed = 1;
nodes = (
(232,-13,o),
(323,147,o),
(364,379,c),
(353,380,l),
(311,152,o),
(227,21,o),
(161,21,cs),
(118,21,o),
(105,58,o),
(122,138,cs),
(154,297,ls),
(170,370,o),
(161,395,o),
(130,395,cs),
(96,395,o),
(62,367,o),
(18,317,cs),
(13,312,o),
(21,304,o),
(26,309,cs),
(55,339,o),
(80,358,o),
(95,358,cs),
(112,358,o),
(120,338,o),
(112,297,cs),
(76,119,ls),
(56,25,o),
(76,-13,o),
(133,-13,cs)
);
},
{
pos = (20,0);
ref = dotaccent;
},
{
pos = (219,0);
ref = dotaccent;
}
);
width = 449;
},
{
layerId = "A1717557-2B81-457C-987E-D55DA76CA63F";
shapes = (
{
closed = 1;
nodes = (
(240,-281,o),
(323,-193,o),
(345,-70,cs),
(415,312,ls),
(423,347,o),
(430,384,o),
(430,388,cs),
(430,392,o),
(426,394,o),
(388,394,cs),
(359,394,o),
(343,388,o),
(342,380,cs),
(326,297,l),
(256,-94,ls),
(232,-229,o),
(199,-260,o),
(164,-260,cs),
(76,-260,o),
(126,-154,o),
(58,-154,cs),
(37,-154,o),
(14,-167,o),
(7,-205,cs),
(-2,-247,o),
(48,-281,o),
(124,-281,cs)
);
},
{
closed = 1;
nodes = (
(230,-13,o),
(319,136,o),
(358,373,c),
(342,380,l),
(305,166,o),
(235,44,o),
(178,44,cs),
(150,44,o),
(138,74,o),
(151,138,cs),
(182,297,ls),
(196,366,o),
(178,395,o),
(138,395,cs),
(99,395,o),
(67,367,o),
(25,317,cs),
(20,312,o),
(28,304,o),
(33,309,cs),
(54,329,o),
(71,344,o),
(85,344,cs),
(97,344,o),
(105,335,o),
(98,297,cs),
(63,119,ls),
(46,29,o),
(71,-13,o),
(127,-13,cs)
);
},
{
pos = (32,0);
ref = dotaccent;
},
{
pos = (230,0);
ref = dotaccent;
}
);
width = 458;
}
);
metricLeft = u;
unicode = 307;
},
{
glyphname = iogonek;
layers = (
{
layerId = "2373B5BC-5F65-41C1-A640-5B37284EFBFD";
shapes = (
{
closed = 1;
nodes = (
(105,-275,o),
(133,-262,o),
(165,-239,cs),
(168,-235,o),
(161,-227,o),
(158,-229,cs),
(145,-239,o),
(131,-248,o),
(108,-248,cs),
(53,-248,o),
(34,-202,o),
(46,-150,cs),
(63,-71,o),
(145,-12,o),
(223,69,cs),
(227,73,o),
(219,81,o),
(215,77,cs),
(186,47,o),
(161,28,o),
(146,28,cs),
(129,28,o),
(122,48,o),
(129,89,cs),
(166,297,ls),
(179,370,o),
(173,395,o),
(142,395,cs),
(108,395,o),
(71,370,o),
(27,319,cs),
(22,315,o),
(30,306,o),
(35,311,cs),
(64,342,o),
(91,358,o),
(106,358,cs),
(124,358,o),
(131,338,o),
(124,297,cs),
(85,89,ls),
(73,16,o),
(80,-9,o),
(111,-9,cs),
(123,-9,o),
(131,-6,o),
(140,-1,c),
(157,21,l),
(81,-47,o),
(16,-115,o),
(4,-179,cs),
(-7,-230,o),
(20,-275,o),
(77,-275,cs)
);
},
{
closed = 1;
nodes = (
(196,517,o),
(211,531,o),
(211,556,cs),
(211,579,o),
(196,593,o),
(172,593,cs),
(147,593,o),
(132,579,o),
(132,556,cs),
(132,531,o),
(147,517,o),
(172,517,cs)
);
}
);
width = 247;
},
{
layerId = "A1717557-2B81-457C-987E-D55DA76CA63F";
shapes = (
{
closed = 1;
nodes = (
(110,-275,o),
(139,-255,o),
(175,-207,cs),
(179,-204,o),
(172,-195,o),
(168,-198,cs),
(157,-209,o),
(143,-222,o),
(120,-222,cs),
(82,-222,o),
(68,-185,o),
(74,-144,cs),
(84,-75,o),
(109,-39,o),
(222,69,cs),
(227,74,o),
(219,82,o),
(214,77,cs),
(193,57,o),
(175,42,o),
(161,42,cs),
(150,42,o),
(142,51,o),
(149,89,cs),
(188,309,ls),
(198,364,o),
(187,395,o),
(144,395,cs),
(106,395,o),
(70,372,o),
(22,315,cs),
(18,310,o),
(26,301,o),
(30,306,cs),
(55,333,o),
(75,346,o),
(88,346,cs),
(103,346,o),
(109,330,o),
(103,297,cs),
(64,89,ls),
(53,25,o),
(63,-9,o),
(108,-9,cs),
(119,-9,o),
(130,-6,o),
(139,-1,c),
(156,21,l),
(74,-34,o),
(-4,-111,o),
(-15,-173,cs),
(-25,-225,o),
(8,-275,o),
(70,-275,cs)
);
},
{
closed = 1;
nodes = (
(208,499,o),
(228,520,o),
(228,557,cs),
(228,589,o),
(208,611,o),
(173,611,cs),
(138,611,o),
(116,589,o),
(116,557,cs),
(116,520,o),
(138,499,o),
(173,499,cs)
);
}
);
width = 247;
}
);
unicode = 303;
},
{
glyphname = iogonek_acutecomb;
layers = (
{
anchors = (
{
name = _top;
pos = (143,386);
},
{
name = top;
pos = (186,731);
}
);
layerId = "2373B5BC-5F65-41C1-A640-5B37284EFBFD";
shapes = (
{
closed = 1;
nodes = (
(106,-275,o),
(135,-262,o),
(166,-239,cs),
(170,-235,o),
(163,-227,o),
(159,-229,cs),
(146,-239,o),
(132,-248,o),
(109,-248,cs),
(54,-248,o),
(35,-202,o),
(47,-150,cs),
(64,-71,o),
(146,-12,o),
(225,69,cs),
(228,73,o),
(220,81,o),
(216,77,cs),
(187,47,o),
(163,28,o),
(147,28,cs),
(130,28,o),
(123,48,o),
(130,89,cs),
(167,297,ls),
(180,370,o),
(174,395,o),
(143,395,cs),
(109,395,o),
(73,370,o),
(28,319,cs),
(23,315,o),
(32,306,o),
(36,311,cs),
(65,342,o),
(92,358,o),
(108,358,cs),
(125,358,o),
(132,338,o),
(125,297,cs),
(87,89,ls),
(74,16,o),
(81,-9,o),
(112,-9,cs),
(124,-9,o),
(132,-6,o),
(142,-1,c),
(158,21,l),
(82,-47,o),
(18,-115,o),
(5,-179,cs),
(-6,-230,o),
(21,-275,o),
(78,-275,cs)
);
},
{
closed = 1;
nodes = (
(237,727,ls),
(241,737,o),
(188,724,o),
(186,716,cs),
(130,476,ls),
(129,473,o),
(139,470,o),
(140,474,cs)
);
}
);
width = 247;
},
{
anchors = (
{
name = _top;
pos = (143,386);
},
{
name = top;
pos = (198,731);
}
);
layerId = "A1717557-2B81-457C-987E-D55DA76CA63F";
shapes = (
{
closed = 1;
nodes = (
(111,-275,o),
(140,-255,o),
(177,-207,cs),
(180,-204,o),
(173,-195,o),
(170,-198,cs),
(158,-209,o),
(144,-222,o),
(122,-222,cs),
(83,-222,o),
(69,-185,o),
(75,-144,cs),
(85,-75,o),
(110,-39,o),
(223,69,cs),
(228,74,o),
(220,82,o),
(215,77,cs),
(194,57,o),
(177,42,o),
(163,42,cs),
(151,42,o),
(143,51,o),
(150,89,cs),
(189,309,ls),
(199,364,o),
(188,395,o),
(145,395,cs),
(108,395,o),
(71,372,o),
(23,315,cs),
(19,310,o),
(27,301,o),
(32,306,cs),
(56,333,o),
(76,346,o),
(89,346,cs),
(104,346,o),
(110,330,o),
(104,297,cs),
(65,89,ls),
(54,25,o),
(64,-9,o),
(109,-9,cs),
(120,-9,o),
(131,-6,o),
(140,-1,c),
(157,21,l),
(75,-34,o),
(-2,-111,o),
(-14,-173,cs),
(-23,-225,o),
(9,-275,o),
(71,-275,cs)
);
},
{
closed = 1;
nodes = (
(261,727,ls),
(265,737,o),
(166,724,o),
(163,716,cs),
(130,476,ls),
(129,473,o),
(139,470,o),
(140,474,cs)
);
}
);
width = 251;
}
);
metricLeft = i;
metricRight = i;
},
{
glyphname = istroke;
layers = (
{
layerId = "2373B5BC-5F65-41C1-A640-5B37284EFBFD";
shapes = (
{
closed = 1;
nodes = (
(221,187,ls),
(227,187,o),
(227,205,o),
(221,205,cs),
(35,205,ls),
(29,205,o),
(29,187,o),
(35,187,cs)
);
},
{
ref = i;
}
);
width = 247;
},
{
layerId = "A1717557-2B81-457C-987E-D55DA76CA63F";
shapes = (
{
closed = 1;
nodes = (
(219,184,ls),
(225,184,o),
(225,208,o),
(219,208,cs),
(33,208,ls),
(27,208,o),
(27,184,o),
(33,184,cs)
);
},
{
ref = i;
}
);
width = 247;
}
);
unicode = 616;
},
{
glyphname = jdotless;
kernRight = j;
layers = (
{
anchors = (
{
name = bottom;
pos = (85,0);
},
{
name = top;
pos = (150,386);
}
);
layerId = "2373B5BC-5F65-41C1-A640-5B37284EFBFD";
shapes = (
{
closed = 1;
nodes = (
(55,-275,o),
(84,-225,o),
(116,-42,cs),
(174,297,ls),
(187,370,o),
(181,395,o),
(150,395,cs),
(116,395,o),
(80,370,o),
(35,319,cs),
(30,315,o),
(39,306,o),
(43,311,cs),
(73,342,o),
(99,358,o),
(115,358,cs),
(132,358,o),
(139,338,o),
(132,297,cs),
(70,-64,ls),
(46,-205,o),
(30,-261,o),
(-2,-261,cs),
(-30,-261,o),
(-19,-207,o),
(-48,-207,cs),
(-62,-207,o),
(-75,-216,o),
(-78,-235,cs),
(-81,-255,o),
(-64,-275,o),
(-23,-275,cs)
);
}
);
width = 237;
},
{
anchors = (
{
name = bottom;
pos = (91,0);
},
{
name = top;
pos = (156,386);
}
);
layerId = "A1717557-2B81-457C-987E-D55DA76CA63F";
shapes = (
{
closed = 1;
nodes = (
(70,-275,o),
(112,-209,o),
(145,-21,cs),
(202,309,ls),
(212,364,o),
(201,395,o),
(158,395,cs),
(120,395,o),
(84,372,o),
(36,315,cs),
(32,310,o),
(40,301,o),
(44,306,cs),
(69,333,o),
(89,346,o),
(102,346,cs),
(117,346,o),
(123,330,o),
(117,297,cs),
(56,-47,ls),
(26,-219,o),
(21,-255,o),
(1,-255,cs),
(-34,-255,o),
(0,-178,o),
(-64,-178,cs),
(-85,-178,o),
(-106,-191,o),
(-110,-218,cs),
(-115,-249,o),
(-81,-275,o),
(-21,-275,cs)
);
}
);
width = 249;
}
);
unicode = 567;
},
{
glyphname = k;
kernLeft = l;
layers = (
{
anchors = (
{
name = bottom;
pos = (173,0);
},
{
name = top;
pos = (188,671);
}
);
layerId = "2373B5BC-5F65-41C1-A640-5B37284EFBFD";
shapes = (
{
closed = 1;
nodes = (
(78,-8,o),
(88,-2,o),
(89,6,cs),
(126,208,l),
(219,717,ls),
(220,720,o),
(213,727,o),
(208,725,cs),
(85,665,ls),
(80,663,o),
(84,651,o),
(90,654,cs),
(152,684,o),
(170,670,o),
(161,627,cs),
(57,74,ls),
(51,39,o),
(42,2,o),
(42,-2,cs),
(42,-6,o),
(46,-8,o),
(63,-8,cs)
);
},
{
closed = 1;
nodes = (
(332,-9,o),
(366,16,o),
(411,67,cs),
(415,71,o),
(407,80,o),
(402,75,cs),
(373,44,o),
(349,30,o),
(332,30,cs),
(312,30,o),
(295,40,o),
(267,90,cs),
(198,212,l),
(111,184,l),
(145,192,o),
(154,187,o),
(170,160,cs),
(228,58,ls),
(257,7,o),
(275,-9,o),
(305,-9,cs)
);
},
{
closed = 1;
nodes = (
(257,218,o),
(363,278,o),
(374,339,cs),
(379,358,o),
(373,399,o),
(323,399,cs),
(236,399,o),
(152,332,o),
(104,243,c),
(126,208,l),
(150,309,o),
(213,372,o),
(284,372,cs),
(306,372,o),
(320,354,o),
(313,324,cs),
(299,256,o),
(246,227,o),
(111,196,c),
(111,184,l)
);
}
);
width = 418;
},
{
anchors = (
{
name = bottom;
pos = (173,0);
},
{
name = top;
pos = (188,671);
}
);
layerId = "A1717557-2B81-457C-987E-D55DA76CA63F";
shapes = (
{
closed = 1;
nodes = (
(95,-8,o),
(113,0,o),
(116,12,cs),
(150,205,l),
(241,717,ls),
(242,722,o),
(234,727,o),
(229,725,cs),
(74,649,ls),
(68,647,o),
(73,635,o),
(78,637,cs),
(133,663,o),
(147,653,o),
(136,589,cs),
(42,74,ls),
(36,39,o),
(27,5,o),
(27,0,cs),
(27,-4,o),
(34,-8,o),
(60,-8,cs)
);
},
{
closed = 1;
nodes = (
(344,-9,o),
(378,16,o),
(422,67,cs),
(427,71,o),
(419,80,o),
(414,75,cs),
(392,57,o),
(373,49,o),
(360,49,cs),
(342,49,o),
(326,57,o),
(298,102,cs),
(228,214,l),
(123,173,l),
(150,181,o),
(156,178,o),
(170,154,cs),
(228,58,ls),
(260,7,o),
(282,-9,o),
(317,-9,cs)
);
},
{
closed = 1;
nodes = (
(288,205,o),
(387,274,o),
(398,339,cs),
(401,363,o),
(394,399,o),
(331,399,cs),
(244,399,o),
(152,330,o),
(104,243,c),
(150,205,l),
(167,295,o),
(213,356,o),
(267,356,cs),
(289,356,o),
(297,339,o),
(295,311,cs),
(291,251,o),
(239,214,o),
(123,191,c),
(123,173,l)
);
}
);
width = 412;
}
);
metricLeft = h;
unicode = 107;
},
{
color = 9;
glyphname = kgreenlandic;
kernLeft = n;
kernRight = k;
layers = (
{
anchors = (
{
name = bottom;
pos = (185,0);
},
{
name = top;
pos = (253,386);
}
);
layerId = "2373B5BC-5F65-41C1-A640-5B37284EFBFD";
shapes = (
{
closed = 1;
nodes = (
(97,-8,o),
(106,-2,o),
(108,6,cs),
(145,208,l),
(160,297,ls),
(173,370,o),
(167,395,o),
(136,395,cs),
(102,395,o),
(65,370,o),
(21,319,cs),
(16,315,o),
(25,306,o),
(29,311,cs),
(58,342,o),
(85,358,o),
(101,358,cs),
(118,358,o),
(126,338,o),
(118,297,cs),
(76,74,ls),
(69,39,o),
(61,2,o),
(61,-2,cs),
(61,-6,o),
(64,-8,o),
(82,-8,cs)
);
},
{
closed = 1;
nodes = (
(276,218,o),
(381,278,o),
(393,339,cs),
(398,358,o),
(392,399,o),
(342,399,cs),
(255,399,o),
(171,332,o),
(123,243,c),
(145,208,l),
(168,309,o),
(232,372,o),
(303,372,cs),
(325,372,o),
(339,354,o),
(332,324,cs),
(318,256,o),
(264,227,o),
(130,196,c),
(130,184,l)
);
},
{
closed = 1;
nodes = (
(351,-9,o),
(385,16,o),
(429,67,cs),
(434,71,o),
(426,80,o),
(421,75,cs),
(392,44,o),
(367,30,o),
(351,30,cs),
(331,30,o),
(313,40,o),
(285,90,cs),
(216,212,l),
(130,184,l),
(164,192,o),
(173,187,o),
(188,160,cs),
(247,58,ls),
(276,7,o),
(294,-9,o),
(324,-9,cs)
);
}
);
width = 436;
},
{
anchors = (
{
name = bottom;
pos = (182,0);
},
{
name = top;
pos = (250,386);
}
);
layerId = "A1717557-2B81-457C-987E-D55DA76CA63F";
shapes = (
{
closed = 1;
nodes = (
(115,-8,o),
(133,0,o),
(136,12,cs),
(170,205,l),
(188,309,ls),
(198,364,o),
(187,395,o),
(144,395,cs),
(106,395,o),
(70,372,o),
(22,315,cs),
(18,310,o),
(26,301,o),
(30,306,cs),
(55,333,o),
(75,346,o),
(88,346,cs),
(103,346,o),
(109,330,o),
(103,297,cs),
(62,74,ls),
(56,39,o),
(47,5,o),
(47,0,cs),
(47,-4,o),
(54,-8,o),
(80,-8,cs)
);
},
{
closed = 1;
nodes = (
(308,205,o),
(407,274,o),
(418,339,cs),
(421,363,o),
(414,399,o),
(351,399,cs),
(264,399,o),
(172,330,o),
(124,243,c),
(170,205,l),
(187,295,o),
(233,356,o),
(287,356,cs),
(309,356,o),
(317,339,o),
(315,311,cs),
(311,251,o),
(258,214,o),
(143,191,c),
(143,173,l)
);
},
{
closed = 1;
nodes = (
(364,-9,o),
(398,16,o),
(442,67,cs),
(447,71,o),
(439,80,o),
(434,75,cs),
(412,57,o),
(393,49,o),
(380,49,cs),
(361,49,o),
(346,57,o),
(318,102,cs),
(248,214,l),
(143,173,l),
(170,181,o),
(175,178,o),
(189,154,cs),
(248,58,ls),
(280,7,o),
(302,-9,o),
(337,-9,cs)
);
}
);
width = 432;
}
);
metricLeft = n;
metricRight = k;
unicode = 312;
},
{
glyphname = l;
kernLeft = l;
layers = (
{
anchors = (
{
name = bottom;
pos = (92,0);
},
{
name = center;
pos = (118,193);
},
{
name = top;
pos = (166,662);
},
{
name = topright;
pos = (209,386);
}
);
layerId = "2373B5BC-5F65-41C1-A640-5B37284EFBFD";
shapes = (
{
closed = 1;
nodes = (
(124,-9,o),
(158,19,o),
(202,69,cs),
(207,74,o),
(199,82,o),
(194,77,cs),
(165,47,o),
(140,28,o),
(125,28,cs),
(108,28,o),
(99,48,o),
(108,89,cs),
(225,717,ls),
(226,720,o),
(219,727,o),
(214,725,cs),
(91,665,ls),
(85,663,o),
(90,651,o),
(96,654,cs),
(158,684,o),
(173,670,o),
(165,627,cs),
(64,89,ls),
(50,16,o),
(58,-9,o),
(90,-9,cs)
);
}
);
width = 235;
},
{
anchors = (
{
name = bottom;
pos = (96,0);
},
{
name = center;
pos = (124,193);
},
{
name = top;
pos = (172,662);
},
{
name = topright;
pos = (215,386);
}
);
layerId = "A1717557-2B81-457C-987E-D55DA76CA63F";
shapes = (
{
closed = 1;
nodes = (
(133,-9,o),
(166,19,o),
(208,69,cs),
(213,74,o),
(205,82,o),
(200,77,cs),
(179,57,o),
(161,42,o),
(147,42,cs),
(136,42,o),
(127,51,o),
(135,89,cs),
(247,717,ls),
(248,720,o),
(241,727,o),
(235,725,cs),
(80,649,ls),
(74,647,o),
(78,635,o),
(84,637,cs),
(139,663,o),
(153,653,o),
(142,589,cs),
(50,89,ls),
(39,25,o),
(49,-9,o),
(94,-9,cs)
);
}
);
width = 247;
}
);
unicode = 108;
},
{
glyphname = ldot;
kernLeft = l;
layers = (
{
layerId = "2373B5BC-5F65-41C1-A640-5B37284EFBFD";
shapes = (
{
closed = 1;
nodes = (
(280,315,o),
(294,329,o),
(294,353,cs),
(294,377,o),
(280,391,o),
(255,391,cs),
(230,391,o),
(215,377,o),
(215,353,cs),
(215,329,o),
(230,315,o),
(255,315,cs)
);
},
{
ref = l;
}
);
width = 235;
},
{
layerId = "A1717557-2B81-457C-987E-D55DA76CA63F";
shapes = (
{
closed = 1;
nodes = (
(298,305,o),
(317,325,o),
(317,360,cs),
(317,392,o),
(298,411,o),
(265,411,cs),
(232,411,o),
(212,392,o),
(212,360,cs),
(212,325,o),
(232,305,o),
(265,305,cs)
);
},
{
ref = l;
}
);
width = 247;
}
);
unicode = 320;
},
{
glyphname = lslash;
kernLeft = l;
layers = (
{
layerId = "2373B5BC-5F65-41C1-A640-5B37284EFBFD";
shapes = (
{
closed = 1;
nodes = (
(233,389,ls),
(237,392,o),
(228,408,o),
(223,406,cs),
(46,303,ls),
(41,301,o),
(50,284,o),
(55,287,cs)
);
},
{
alignment = -1;
pos = (5,0);
ref = l;
}
);
width = 247;
},
{
layerId = "A1717557-2B81-457C-987E-D55DA76CA63F";
shapes = (
{
closed = 1;
nodes = (
(268,409,ls),
(273,412,o),
(260,432,o),
(255,429,cs),
(28,305,ls),
(23,303,o),
(36,283,o),
(41,285,cs)
);
},
{
alignment = -1;
pos = (5,0);
ref = l;
}
);
width = 258;
}
);
metricLeft = "=l+5";
metricRight = "=l+5";
unicode = 322;
},
{
glyphname = m;
kernLeft = n;
kernRight = n;
layers = (
{
anchors = (
{
name = bottom;
pos = (309,0);
},
{
name = top;
pos = (371,386);
}
);
layerId = "2373B5BC-5F65-41C1-A640-5B37284EFBFD";
shapes = (
{
closed = 1;
nodes = (
(580,-9,o),
(614,19,o),
(658,69,cs),
(663,74,o),
(655,82,o),
(650,77,cs),
(621,47,o),
(596,28,o),
(580,28,cs),
(564,28,o),
(557,48,o),
(564,89,cs),
(596,267,ls),
(612,361,o),
(596,399,o),
(543,399,cs),
(447,399,o),
(357,239,o),
(317,7,c),
(327,6,l),
(368,234,o),
(451,365,o),
(515,365,cs),
(554,365,o),
(564,327,o),
(551,248,cs),
(522,89,ls),
(509,16,o),
(515,-9,o),
(546,-9,cs)
);
},
{
closed = 1;
nodes = (
(97,-8,o),
(106,-2,o),
(108,6,cs),
(160,297,ls),
(173,370,o),
(167,395,o),
(136,395,cs),
(102,395,o),
(65,370,o),
(21,319,cs),
(16,315,o),
(25,306,o),
(29,311,cs),
(58,342,o),
(85,358,o),
(101,358,cs),
(118,358,o),
(125,338,o),
(118,297,cs),
(76,68,ls),
(70,39,o),
(62,2,o),
(62,-2,cs),
(62,-6,o),
(64,-8,o),
(82,-8,cs)
);
},
{
closed = 1;
nodes = (
(317,-8,o),
(326,-2,o),
(327,6,cs),
(374,267,ls),
(392,361,o),
(374,399,o),
(323,399,cs),
(227,399,o),
(137,239,o),
(97,7,c),
(108,6,l),
(149,234,o),
(232,365,o),
(295,365,cs),
(331,365,o),
(340,327,o),
(329,248,cs),
(297,74,ls),
(292,44,o),
(282,2,o),
(282,-2,cs),
(282,-6,o),
(284,-8,o),
(302,-8,cs)
);
}
);
width = 674;
},
{
anchors = (
{
name = bottom;
pos = (315,0);
},
{
name = top;
pos = (365,386);
}
);
layerId = "A1717557-2B81-457C-987E-D55DA76CA63F";
shapes = (
{
closed = 1;
nodes = (
(589,-9,o),
(622,19,o),
(664,69,cs),
(669,74,o),
(661,82,o),
(656,77,cs),
(635,57,o),
(618,42,o),
(604,42,cs),
(592,42,o),
(584,51,o),
(591,89,cs),
(623,267,ls),
(640,357,o),
(616,399,o),
(564,399,cs),
(468,399,o),
(379,257,o),
(340,13,c),
(358,12,l),
(394,233,o),
(463,342,o),
(512,342,cs),
(538,342,o),
(547,312,o),
(536,248,cs),
(506,89,ls),
(495,25,o),
(505,-9,o),
(550,-9,cs)
);
},
{
closed = 1;
nodes = (
(115,-8,o),
(133,0,o),
(136,12,cs),
(188,309,ls),
(198,364,o),
(187,395,o),
(144,395,cs),
(106,395,o),
(70,372,o),
(22,315,cs),
(18,310,o),
(26,301,o),
(30,306,cs),
(55,333,o),
(75,346,o),
(88,346,cs),
(103,346,o),
(109,330,o),
(103,297,cs),
(62,74,ls),
(56,39,o),
(47,5,o),
(47,0,cs),
(47,-4,o),
(54,-8,o),
(80,-8,cs)
);
},
{
closed = 1;
nodes = (
(337,-8,o),
(356,0,o),
(358,12,cs),
(404,269,ls),
(420,359,o),
(394,399,o),
(343,399,cs),
(242,399,o),
(156,250,o),
(118,13,c),
(136,12,l),
(170,221,o),
(237,342,o),
(290,342,cs),
(316,342,o),
(329,315,o),
(317,250,cs),
(284,74,ls),
(278,39,o),
(269,5,o),
(269,0,cs),
(269,-4,o),
(276,-8,o),
(302,-8,cs)
);
}
);
width = 685;
}
);
metricLeft = n;
metricRight = n;
unicode = 109;
},
{
glyphname = n;
kernLeft = n;
kernRight = n;
layers = (
{
anchors = (
{
name = bottom;
pos = (221,0);
},
{
name = top;
pos = (260,386);
}
);
layerId = "2373B5BC-5F65-41C1-A640-5B37284EFBFD";
shapes = (
{
closed = 1;
nodes = (
(370,-9,o),
(404,19,o),
(448,69,cs),
(453,74,o),
(444,82,o),
(440,77,cs),
(411,47,o),
(386,28,o),
(371,28,cs),
(353,28,o),
(346,48,o),
(353,89,cs),
(386,267,ls),
(404,361,o),
(386,399,o),
(329,399,cs),
(230,399,o),
(139,239,o),
(98,7,c),
(109,6,l),
(151,234,o),
(235,365,o),
(301,365,cs),
(344,365,o),
(356,327,o),
(340,248,cs),
(311,89,ls),
(298,16,o),
(304,-9,o),
(336,-9,cs)
);
},
{
closed = 1;
nodes = (
(98,-8,o),
(108,-2,o),
(109,6,cs),
(160,297,ls),
(173,370,o),
(167,395,o),
(136,395,cs),
(102,395,o),
(65,370,o),
(21,319,cs),
(16,315,o),
(25,306,o),
(29,311,cs),
(58,342,o),
(85,358,o),
(101,358,cs),
(118,358,o),
(125,338,o),
(118,297,cs),
(77,74,ls),
(71,39,o),
(62,2,o),
(62,-2,cs),
(62,-6,o),
(65,-8,o),
(83,-8,cs)
);
}
);
width = 463;
},
{
anchors = (
{
name = bottom;
pos = (227,0);
},
{
name = top;
pos = (265,386);
}
);
layerId = "A1717557-2B81-457C-987E-D55DA76CA63F";
shapes = (
{
closed = 1;
nodes = (
(379,-9,o),
(412,19,o),
(454,69,cs),
(458,74,o),
(450,82,o),
(446,77,cs),
(425,57,o),
(407,42,o),
(393,42,cs),
(381,42,o),
(373,51,o),
(380,89,cs),
(413,267,ls),
(429,357,o),
(405,399,o),
(349,399,cs),
(246,399,o),
(157,250,o),
(118,13,c),
(136,12,l),
(172,226,o),
(241,342,o),
(298,342,cs),
(326,342,o),
(337,312,o),
(325,248,cs),
(296,89,ls),
(284,25,o),
(295,-9,o),
(339,-9,cs)
);
},
{
closed = 1;
nodes = (
(115,-8,o),
(133,0,o),
(136,12,cs),
(188,309,ls),
(198,364,o),
(187,395,o),
(144,395,cs),
(106,395,o),
(70,372,o),
(22,315,cs),
(18,310,o),
(26,301,o),
(30,306,cs),
(55,333,o),
(75,346,o),
(88,346,cs),
(103,346,o),
(109,330,o),
(103,297,cs),
(62,74,ls),
(56,39,o),
(47,5,o),
(47,0,cs),
(47,-4,o),
(54,-8,o),
(80,-8,cs)
);
}
);
width = 475;
}
);
unicode = 110;
},
{
glyphname = eng;
kernLeft = n;
kernRight = n;
layers = (
{
anchors = (
{
name = bottom;
pos = (177,0);
},
{
name = top;
pos = (255,386);
}
);
layerId = "2373B5BC-5F65-41C1-A640-5B37284EFBFD";
shapes = (
{
closed = 1;
nodes = (
(265,-275,o),
(291,-223,o),
(326,-42,cs),
(386,267,ls),
(404,361,o),
(386,399,o),
(329,399,cs),
(230,399,o),
(139,239,o),
(98,7,c),
(109,6,l),
(151,234,o),
(235,365,o),
(301,365,cs),
(344,365,o),
(356,327,o),
(340,248,cs),
(281,-64,ls),
(254,-205,o),
(241,-261,o),
(208,-261,cs),
(180,-261,o),
(192,-207,o),
(163,-207,cs),
(149,-207,o),
(136,-216,o),
(132,-235,cs),
(130,-255,o),
(146,-275,o),
(187,-275,cs)
);
},
{
closed = 1;
nodes = (
(98,-8,o),
(108,-2,o),
(109,6,cs),
(160,297,ls),
(173,370,o),
(167,395,o),
(136,395,cs),
(102,395,o),
(65,370,o),
(21,319,cs),
(16,315,o),
(25,306,o),
(29,311,cs),
(58,342,o),
(85,358,o),
(101,358,cs),
(118,358,o),
(125,338,o),
(118,297,cs),
(77,74,ls),
(71,39,o),
(62,2,o),
(62,-2,cs),
(62,-6,o),
(65,-8,o),
(83,-8,cs)
);
}
);
width = 429;
},
{
anchors = (
{
name = bottom;
pos = (177,0);
},
{
name = top;
pos = (265,386);
}
);
layerId = "A1717557-2B81-457C-987E-D55DA76CA63F";
shapes = (
{
closed = 1;
nodes = (
(283,-275,o),
(324,-208,o),
(359,-20,cs),
(413,267,ls),
(429,357,o),
(405,399,o),
(349,399,cs),
(246,399,o),
(157,250,o),
(118,13,c),
(136,12,l),
(172,226,o),
(241,342,o),
(298,342,cs),
(326,342,o),
(337,312,o),
(325,248,cs),
(270,-46,ls),
(237,-218,o),
(234,-255,o),
(214,-255,cs),
(179,-255,o),
(213,-178,o),
(149,-178,cs),
(127,-178,o),
(106,-191,o),
(103,-218,cs),
(98,-249,o),
(132,-275,o),
(192,-275,cs)
);
},
{
closed = 1;
nodes = (
(115,-8,o),
(133,0,o),
(136,12,cs),
(188,309,ls),
(198,364,o),
(187,395,o),
(144,395,cs),
(106,395,o),
(70,372,o),
(22,315,cs),
(18,310,o),
(26,301,o),
(30,306,cs),
(55,333,o),
(75,346,o),
(88,346,cs),
(103,346,o),
(109,330,o),
(103,297,cs),
(62,74,ls),
(56,39,o),
(47,5,o),
(47,0,cs),
(47,-4,o),
(54,-8,o),
(80,-8,cs)
);
}
);
width = 450;
}
);
unicode = 331;
},
{
glyphname = o;
kernLeft = o;
kernRight = o;
layers = (
{
anchors = (
{
name = bottom;
pos = (172,0);
},
{
name = center;
pos = (198,193);
},
{
name = ogonek;
pos = (247,12);
},
{
name = top;
pos = (223,386);
},
{
name = topright;
pos = (302,386);
}
);
layerId = "2373B5BC-5F65-41C1-A640-5B37284EFBFD";
shapes = (
{
closed = 1;
nodes = (
(243,-14,o),
(339,68,o),
(364,193,cs),
(386,303,o),
(344,399,o),
(242,399,cs),
(144,399,o),
(56,309,o),
(34,193,cs),
(12,76,o),
(60,-14,o),
(153,-14,cs)
);
},
{
closed = 1;
nodes = (
(96,11,o),
(58,138,o),
(80,236,cs),
(97,320,o),
(153,375,o),
(213,375,cs),
(306,375,o),
(336,242,o),
(318,149,cs),
(302,61,o),
(246,11,o),
(188,11,cs)
);
}
);
width = 396;
},
{
anchors = (
{
name = bottom;
pos = (175,0);
},
{
name = center;
pos = (205,193);
},
{
name = ogonek;
pos = (251,12);
},
{
name = top;
pos = (236,386);
},
{
name = topright;
pos = (340,386);
}
);
layerId = "A1717557-2B81-457C-987E-D55DA76CA63F";
shapes = (
{
closed = 1;
nodes = (
(251,-14,o),
(354,56,o),
(381,193,cs),
(404,309,o),
(360,399,o),
(249,399,cs),
(143,399,o),
(51,315,o),
(28,193,cs),
(7,83,o),
(47,-14,o),
(158,-14,cs)
);
},
{
closed = 1;
nodes = (
(133,11,o),
(106,115,o),
(127,236,cs),
(144,331,o),
(178,375,o),
(216,375,cs),
(276,375,o),
(304,269,o),
(282,149,cs),
(267,65,o),
(235,11,o),
(192,11,cs)
);
}
);
width = 408;
}
);
unicode = 111;
},
{
glyphname = oslash;
kernLeft = o;
kernRight = o;
layers = (
{
anchors = (
{
name = top;
pos = (239,386);
}
);
layerId = "2373B5BC-5F65-41C1-A640-5B37284EFBFD";
shapes = (
{
closed = 1;
nodes = (
(400,386,ls),
(405,391,o),
(389,401,o),
(386,398,cs),
(0,0,ls),
(-5,-5,o),
(9,-18,o),
(13,-14,cs)
);
},
{
ref = o;
}
);
width = 408;
},
{
anchors = (
{
name = top;
pos = (239,386);
}
);
layerId = "A1717557-2B81-457C-987E-D55DA76CA63F";
shapes = (
{
closed = 1;
nodes = (
(404,387,ls),
(408,392,o),
(389,406,o),
(386,402,cs),
(-5,0,ls),
(-9,-5,o),
(8,-21,o),
(12,-18,cs)
);
},
{
ref = o;
}
);
width = 408;
}
);
unicode = 248;
},
{
glyphname = oe;
kernLeft = o;
kernRight = c;
layers = (
{
anchors = (
{
name = bottom;
pos = (632,0);
},
{
name = ogonek;
pos = (796,12);
},
{
name = top;
pos = (648,386);
}
);
layerId = "2373B5BC-5F65-41C1-A640-5B37284EFBFD";
shapes = (
{
closed = 1;
nodes = (
(233,-14,o),
(329,65,o),
(352,193,cs),
(372,305,o),
(332,399,o),
(240,399,cs),
(143,399,o),
(54,311,o),
(34,193,cs),
(14,81,o),
(55,-14,o),
(146,-14,cs)
);
},
{
closed = 1;
nodes = (
(95,11,o),
(61,136,o),
(80,236,cs),
(94,316,o),
(149,375,o),
(207,375,cs),
(296,375,o),
(324,242,o),
(308,149,cs),
(292,61,o),
(237,11,o),
(181,11,cs)
);
},
{
closed = 1;
nodes = (
(480,-12,o),
(525,4,o),
(577,44,c),
(580,48,o),
(573,55,o),
(570,53,c),
(536,28,o),
(499,20,o),
(467,20,cs),
(380,20,o),
(344,104,o),
(366,218,cs),
(380,301,o),
(420,372,o),
(497,372,cs),
(529,372,o),
(550,360,o),
(542,324,cs),
(525,254,o),
(433,239,o),
(349,228,c),
(346,213,l),
(430,223,o),
(585,273,o),
(601,345,cs),
(608,378,o),
(585,399,o),
(538,399,cs),
(427,399,o),
(332,284,o),
(312,178,cs),
(295,80,o),
(330,-12,o),
(434,-12,cs)
);
}
);
width = 613;
},
{
anchors = (
{
name = bottom;
pos = (633,0);
},
{
name = ogonek;
pos = (798,12);
},
{
name = top;
pos = (649,386);
}
);
layerId = "A1717557-2B81-457C-987E-D55DA76CA63F";
shapes = (
{
closed = 1;
nodes = (
(246,-14,o),
(349,56,o),
(375,193,cs),
(398,309,o),
(354,399,o),
(243,399,cs),
(137,399,o),
(46,315,o),
(22,193,cs),
(1,83,o),
(41,-14,o),
(152,-14,cs)
);
},
{
closed = 1;
nodes = (
(127,11,o),
(101,115,o),
(122,236,cs),
(138,331,o),
(172,375,o),
(211,375,cs),
(270,375,o),
(298,269,o),
(276,149,cs),
(261,65,o),
(229,11,o),
(186,11,cs)
);
},
{
closed = 1;
nodes = (
(465,-12,o),
(522,6,o),
(572,55,cs),
(575,58,o),
(568,65,o),
(565,63,cs),
(536,40,o),
(501,32,o),
(475,32,cs),
(392,32,o),
(364,116,o),
(380,218,cs),
(394,304,o),
(428,372,o),
(474,372,cs),
(498,372,o),
(510,353,o),
(505,324,cs),
(496,260,o),
(426,229,o),
(331,214,c),
(329,201,l),
(463,215,o),
(599,275,o),
(606,345,cs),
(609,379,o),
(580,399,o),
(526,399,cs),
(400,399,o),
(303,290,o),
(283,185,cs),
(264,87,o),
(301,-12,o),
(416,-12,cs)
);
}
);
width = 607;
}
);
metricLeft = "=o-5";
metricRight = "=e-5";
unicode = 339;
},
{
glyphname = p;
kernLeft = p;
kernRight = o;
layers = (
{
anchors = (
{
name = bottom;
pos = (170,0);
},
{
name = top;
pos = (237,386);
}
);
layerId = "2373B5BC-5F65-41C1-A640-5B37284EFBFD";
shapes = (
{
closed = 1;
nodes = (
(113,-250,ls),
(119,-249,o),
(116,-237,o),
(111,-239,cs),
(54,-247,o),
(42,-233,o),
(51,-178,cs),
(164,456,ls),
(165,461,o),
(154,463,o),
(153,458,cs),
(146,418,o),
(109,393,o),
(108,386,cs),
(6,-185,ls),
(-5,-247,o),
(-12,-256,o),
(-57,-263,cs),
(-62,-264,o),
(-60,-276,o),
(-55,-275,cs)
);
},
{
closed = 1;
nodes = (
(250,-1,o),
(359,116,o),
(378,253,cs),
(391,344,o),
(358,393,o),
(285,393,cs),
(205,393,o),
(118,335,o),
(40,264,cs),
(36,262,o),
(44,253,o),
(48,255,cs),
(130,320,o),
(187,360,o),
(250,360,cs),
(333,360,o),
(339,290,o),
(330,220,cs),
(315,109,o),
(264,27,o),
(171,27,cs),
(123,27,o),
(92,41,o),
(67,58,c),
(57,8,l),
(76,4,o),
(91,-1,o),
(145,-1,cs)
);
}
);
width = 407;
},
{
anchors = (
{
name = bottom;
pos = (168,0);
},
{
name = top;
pos = (236,386);
}
);
layerId = "A1717557-2B81-457C-987E-D55DA76CA63F";
shapes = (
{
closed = 1;
nodes = (
(123,-244,ls),
(129,-243,o),
(125,-233,o),
(120,-233,cs),
(73,-239,o),
(63,-230,o),
(73,-178,cs),
(186,462,ls),
(187,467,o),
(177,469,o),
(175,464,cs),
(165,423,o),
(88,393,o),
(87,386,cs),
(-15,-185,ls),
(-26,-244,o),
(-30,-254,o),
(-69,-263,cs),
(-74,-264,o),
(-71,-276,o),
(-67,-275,cs)
);
},
{
closed = 1;
nodes = (
(255,-1,o),
(367,116,o),
(387,253,cs),
(400,344,o),
(365,393,o),
(285,393,cs),
(196,393,o),
(98,340,o),
(13,270,cs),
(7,265,o),
(14,255,o),
(20,260,cs),
(97,315,o),
(157,344,o),
(216,344,cs),
(289,344,o),
(304,283,o),
(297,220,cs),
(284,112,o),
(250,29,o),
(182,29,cs),
(129,29,o),
(95,49,o),
(67,70,c),
(57,8,l),
(76,4,o),
(111,-1,o),
(145,-1,cs)
);
}
);
width = 405;
}
);
metricRight = "=|d";
unicode = 112;
},
{
glyphname = thorn;
kernLeft = l;
kernRight = o;
layers = (
{
anchors = (
{
name = bottom;
pos = (171,0);
},
{
name = top;
pos = (239,386);
}
);
layerId = "2373B5BC-5F65-41C1-A640-5B37284EFBFD";
shapes = (
{
closed = 1;
nodes = (
(113,-250,ls),
(119,-249,o),
(116,-237,o),
(111,-239,cs),
(54,-247,o),
(42,-233,o),
(51,-178,cs),
(212,717,ls),
(213,720,o),
(206,727,o),
(201,725,cs),
(78,665,ls),
(73,663,o),
(77,651,o),
(83,654,cs),
(145,684,o),
(163,670,o),
(154,627,cs),
(6,-185,ls),
(-6,-247,o),
(-12,-256,o),
(-57,-263,cs),
(-62,-264,o),
(-60,-276,o),
(-55,-275,cs)
);
},
{
closed = 1;
nodes = (
(226,-1,o),
(353,87,o),
(386,251,cs),
(401,331,o),
(365,393,o),
(296,393,cs),
(209,393,o),
(119,333,o),
(41,263,cs),
(37,261,o),
(44,253,o),
(48,255,cs),
(130,320,o),
(195,360,o),
(256,360,cs),
(326,360,o),
(342,291,o),
(330,220,cs),
(308,98,o),
(265,27,o),
(171,27,cs),
(123,27,o),
(92,41,o),
(67,58,c),
(57,8,l),
(76,4,o),
(91,-1,o),
(145,-1,cs)
);
}
);
width = 408;
},
{
anchors = (
{
name = bottom;
pos = (172,0);
},
{
name = top;
pos = (240,386);
}
);
layerId = "A1717557-2B81-457C-987E-D55DA76CA63F";
shapes = (
{
closed = 1;
nodes = (
(123,-244,ls),
(129,-243,o),
(125,-233,o),
(120,-233,cs),
(73,-239,o),
(63,-230,o),
(73,-178,cs),
(232,717,ls),
(233,720,o),
(226,727,o),
(220,725,cs),
(64,649,ls),
(58,647,o),
(63,635,o),
(69,637,cs),
(124,663,o),
(136,653,o),
(124,589,cs),
(-15,-185,ls),
(-26,-244,o),
(-30,-254,o),
(-69,-263,cs),
(-74,-264,o),
(-71,-276,o),
(-67,-275,cs)
);
},
{
closed = 1;
nodes = (
(255,-1,o),
(373,116,o),
(393,253,cs),
(406,344,o),
(365,393,o),
(285,393,cs),
(196,393,o),
(98,340,o),
(13,270,cs),
(7,265,o),
(14,255,o),
(20,260,cs),
(97,315,o),
(157,344,o),
(216,344,cs),
(289,344,o),
(310,283,o),
(303,220,cs),
(290,112,o),
(250,29,o),
(182,29,cs),
(129,29,o),
(95,49,o),
(67,70,c),
(57,8,l),
(76,4,o),
(111,-1,o),
(145,-1,cs)
);
}
);
width = 411;
}
);
metricRight = "=p";
unicode = 254;
},
{
glyphname = q;
kernLeft = a;
kernRight = q;
layers = (
{
anchors = (
{
name = bottom;
pos = (173,0);
},
{
name = top;
pos = (241,386);
}
);
layerId = "2373B5BC-5F65-41C1-A640-5B37284EFBFD";
shapes = (
{
closed = 1;
nodes = (
(338,-250,ls),
(344,-249,o),
(340,-237,o),
(336,-239,cs),
(278,-247,o),
(267,-228,o),
(276,-178,cs),
(381,406,l),
(382,409,o),
(371,411,o),
(370,407,c),
(365,381,o),
(338,360,o),
(323,357,c),
(361,332,l),
(357,380,o),
(319,399,o),
(283,399,cs),
(166,399,o),
(44,261,o),
(25,103,cs),
(18,39,o),
(48,-13,o),
(98,-13,cs),
(172,-13,o),
(258,64,o),
(309,202,c),
(301,205,l),
(232,-185,ls),
(220,-247,o),
(214,-256,o),
(168,-263,cs),
(164,-264,o),
(166,-276,o),
(171,-275,cs)
);
},
{
closed = 1;
nodes = (
(82,30,o),
(65,67,o),
(71,139,cs),
(90,285,o),
(167,365,o),
(253,367,cs),
(301,371,o),
(323,335,o),
(310,258,cs),
(288,131,o),
(205,30,o),
(122,30,cs)
);
}
);
width = 413;
},
{
anchors = (
{
name = bottom;
pos = (177,0);
},
{
name = top;
pos = (244,386);
}
);
layerId = "A1717557-2B81-457C-987E-D55DA76CA63F";
shapes = (
{
closed = 1;
nodes = (
(366,-250,ls),
(372,-249,o),
(368,-237,o),
(364,-239,cs),
(306,-247,o),
(295,-228,o),
(304,-178,cs),
(411,404,ls),
(412,407,o),
(401,411,o),
(399,407,cs),
(381,380,o),
(353,360,o),
(331,357,c),
(392,324,l),
(387,377,o),
(336,399,o),
(296,399,cs),
(160,399,o),
(41,257,o),
(20,103,cs),
(8,21,o),
(43,-13,o),
(97,-13,cs),
(170,-13,o),
(258,62,o),
(303,191,c),
(282,174,ls),
(219,-185,ls),
(207,-247,o),
(201,-256,o),
(156,-263,cs),
(151,-264,o),
(153,-275,o),
(158,-275,cs)
);
},
{
closed = 1;
nodes = (
(101,60,o),
(108,140,o),
(112,177,cs),
(129,306,o),
(177,350,o),
(229,350,cs),
(287,350,o),
(306,312,o),
(292,232,cs),
(277,147,o),
(228,60,o),
(159,60,cs)
);
}
);
width = 421;
}
);
metricLeft = a;
unicode = 113;
},
{
glyphname = r;
kernLeft = n;
kernRight = r;
layers = (
{
anchors = (
{
name = bottom;
pos = (90,0);
},
{
name = top;
pos = (199,386);
}
);
layerId = "2373B5BC-5F65-41C1-A640-5B37284EFBFD";
shapes = (
{
closed = 1;
nodes = (
(129,127,o),
(212,353,o),
(261,353,cs),
(281,353,o),
(278,319,o),
(308,319,cs),
(322,319,o),
(333,326,o),
(337,343,cs),
(343,371,o),
(312,395,o),
(287,395,cs),
(214,395,o),
(122,150,o),
(95,7,c),
(105,6,l)
);
},
{
closed = 1;
nodes = (
(95,-8,o),
(104,-2,o),
(105,6,cs),
(149,249,ls),
(170,367,o),
(156,395,o),
(122,395,cs),
(89,395,o),
(55,372,o),
(18,330,cs),
(15,326,o),
(23,319,o),
(26,322,cs),
(43,338,o),
(67,358,o),
(87,358,cs),
(104,358,o),
(123,340,o),
(106,249,cs),
(75,74,ls),
(70,44,o),
(60,2,o),
(60,-2,cs),
(60,-6,o),
(62,-8,o),
(80,-8,cs)
);
}
);
width = 336;
},
{
anchors = (
{
name = bottom;
pos = (97,0);
},
{
name = top;
pos = (206,386);
}
);
layerId = "A1717557-2B81-457C-987E-D55DA76CA63F";
shapes = (
{
closed = 1;
nodes = (
(152,119,o),
(218,322,o),
(255,322,cs),
(277,322,o),
(291,292,o),
(322,292,cs),
(347,292,o),
(364,315,o),
(366,333,cs),
(371,367,o),
(329,395,o),
(297,395,cs),
(213,395,o),
(156,191,o),
(123,13,c),
(133,12,l)
);
},
{
closed = 1;
nodes = (
(112,-8,o),
(131,0,o),
(133,12,cs),
(186,309,ls),
(195,364,o),
(185,395,o),
(142,395,cs),
(104,395,o),
(68,372,o),
(20,315,cs),
(15,310,o),
(23,301,o),
(28,306,cs),
(53,333,o),
(73,346,o),
(85,346,cs),
(101,346,o),
(106,330,o),
(101,297,cs),
(60,74,ls),
(54,39,o),
(44,5,o),
(44,0,cs),
(44,-4,o),
(51,-8,o),
(77,-8,cs)
);
}
);
width = 356;
}
);
unicode = 114;
},
{
glyphname = s;
kernLeft = s;
kernRight = s;
layers = (
{
anchors = (
{
name = bottom;
pos = (106,0);
},
{
name = top;
pos = (178,386);
}
);
layerId = "2373B5BC-5F65-41C1-A640-5B37284EFBFD";
shapes = (
{
closed = 1;
nodes = (
(167,-11,o),
(225,42,o),
(235,102,cs),
(253,209,o),
(92,234,o),
(108,333,cs),
(112,364,o),
(137,375,o),
(163,375,cs),
(215,375,o),
(215,325,o),
(247,325,cs),
(258,325,o),
(271,332,o),
(274,349,cs),
(278,374,o),
(242,396,o),
(198,396,cs),
(144,396,o),
(81,364,o),
(69,299,cs),
(49,195,o),
(211,178,o),
(195,74,cs),
(189,30,o),
(164,8,o),
(125,8,cs),
(58,8,o),
(67,73,o),
(39,73,cs),
(27,73,o),
(14,65,o),
(12,49,cs),
(7,15,o),
(51,-11,o),
(99,-11,cs)
);
}
);
width = 298;
},
{
anchors = (
{
name = bottom;
pos = (112,0);
},
{
name = top;
pos = (189,386);
}
);
layerId = "A1717557-2B81-457C-987E-D55DA76CA63F";
shapes = (
{
closed = 1;
nodes = (
(196,-11,o),
(256,57,o),
(265,108,cs),
(285,216,o),
(109,242,o),
(125,337,cs),
(127,351,o),
(137,368,o),
(161,368,cs),
(221,368,o),
(194,295,o),
(257,295,cs),
(276,295,o),
(298,309,o),
(302,336,cs),
(306,373,o),
(267,396,o),
(204,396,cs),
(124,396,o),
(64,343,o),
(55,295,cs),
(34,185,o),
(207,168,o),
(193,63,cs),
(189,36,o),
(180,23,o),
(156,23,cs),
(98,23,o),
(102,102,o),
(50,102,cs),
(28,102,o),
(9,88,o),
(5,61,cs),
(-1,21,o),
(48,-11,o),
(108,-11,cs)
);
}
);
width = 316;
}
);
unicode = 115;
},
